<?xml version="1.0" encoding="utf-8"?>
<!-- Generator: Adobe Illustrator 19.0.0, SVG Export Plug-In . SVG Version: 6.00 Build 0)  -->
<svg version="1.1" id="Capa_1" xmlns="http://www.w3.org/2000/svg" xmlns:xlink="http://www.w3.org/1999/xlink" x="0px" y="0px"
	 viewBox="-49 141 512 512" style="enable-background:new -49 141 512 512;" xml:space="preserve">
<g>
	<g>
		<path d="M456.7,300.6L287.5,191.7c-3.4-2.2-7.9-1.2-10.1,2.2c-2.2,3.4-1.2,7.9,2.2,10.1l166.8,107.3h-38.9L217.6,189.1
			c-6.5-4.2-14.8-4.2-21.3,0L6.5,311.2h-38.9l239.4-154l33.9,21.8c3.4,2.2,7.9,1.2,10.1-2.2c2.2-3.4,1.2-7.9-2.2-10.1L214.9,145
			c-4.8-3.1-10.9-3.1-15.7,0L-42.7,300.6c-5.2,3.3-7.5,9.5-5.7,15.4c1.7,5.9,7,9.8,13.1,9.8H1.4v25.1v22c0,5.8,4.1,10.6,9.6,11.8
			v12.8c0,6.6,5.4,12,12,12h1v89.1c0,4,3.3,7.3,7.3,7.3c4,0,7.3-3.3,7.3-7.3v-96.4c0-4-3.3-7.3-7.3-7.3h-5.8v-10H77v10h-5.8
			c-4,0-7.3,3.3-7.3,7.3v160.7c0,4,3.3,7.3,7.3,7.3H77V581H25.5v-10.9h5.8c4,0,7.3-3.3,7.3-7.3v-18.6c0-4-3.3-7.3-7.3-7.3
			c-4,0-7.3,3.3-7.3,7.3v11.3h-1c-6.6,0-12,5.4-12,12v12.8c-5.5,1.1-9.6,6-9.6,11.8v14.7h-25.8c-8,0-14.6,6.5-14.6,14.6v15.3
			c0,8,6.5,14.6,14.6,14.6h462.8c8,0,14.6-6.5,14.6-14.6v-15.3c0-8-6.5-14.6-14.6-14.6h-25.8v-14.7c0-5.8-4.1-10.6-9.6-11.8v-12.8
			c0-6.6-5.4-12-12-12h-1V409.4h1c6.6,0,12-5.4,12-12v-12.8c5.5-1.1,9.6-6,9.6-11.8v-22v-25.1h36.7c6.1,0,11.4-3.9,13.1-9.8
			C464.2,310.1,461.9,303.9,456.7,300.6z M204.2,201.3c1.7-1.1,3.9-1.1,5.5,0l170.8,109.9H33.4L204.2,201.3z M15.9,325.8h382.2v17.8
			h-77.9h-70.6h-85.2H93.8H15.9V325.8z M247.3,580.4v-12.8c0-6.6-5.4-12-12-12h-1V409.4h1c6.6,0,12-5.4,12-12v-12.8
			c5.5-1.1,9.6-6,9.6-11.8v-14.7h56v14.7c0,5.8,4.1,10.6,9.6,11.8v12.8c0,6.6,5.4,12,12,12h1v146.2h-1c-6.6,0-12,5.4-12,12v12.8
			c-5.5,1.1-9.6,6-9.6,11.8v14.7h-56v-14.7C256.9,586.4,252.8,581.6,247.3,580.4z M91.5,580.4v-12.8c0-6.6-5.4-12-12-12h-1V409.4h1
			c6.6,0,12-5.4,12-12v-12.8c5.5-1.1,9.6-6,9.6-11.8v-14.7h56v14.7c0,5.8,4.1,10.6,9.6,11.8v12.8c0,6.6,5.4,12,12,12h1v146.2h-1
			c-6.6,0-12,5.4-12,12v12.8c-5.5,1.1-9.6,6-9.6,11.8v14.7h-56v-14.7C101.1,586.4,97,581.6,91.5,580.4z M227,570.1h5.8V581h-51.5
			v-10.9h5.8c4,0,7.3-3.3,7.3-7.3V402.1c0-4-3.3-7.3-7.3-7.3h-5.8v-10h51.5v10H227c-4,0-7.3,3.3-7.3,7.3v160.7
			C219.7,566.9,223,570.1,227,570.1z M174,370.3L174,370.3h-2.3v-12.2h70.6v12.2H240c0,0,0,0,0,0s0,0,0,0H174z M171.7,595.2
			c0.7,0.2,1.5,0.4,2.3,0.4H240c0.8,0,1.6-0.1,2.3-0.4v11.7h-70.6V595.2z M18.2,370.3h-2.3v-12.2h70.6v12.2h0h-2.3H18.2z
			 M15.9,595.2c0.7,0.2,1.5,0.4,2.3,0.4h66.1c0.8,0,1.6-0.1,2.3-0.4v11.7H15.9L15.9,595.2L15.9,595.2z M438.4,621.5l0,15.3
			c0,0,0,0,0,0l-462.8,0l0-15.3L438.4,621.5z M395.8,595.6c0.8,0,1.6-0.1,2.3-0.4v11.7h-70.6v-11.7c0.7,0.2,1.5,0.4,2.3,0.4H395.8z
			 M342.8,394.9H337v-10h51.5v10h-5.8c-4,0-7.3,3.3-7.3,7.3v160.7c0,4,3.3,7.3,7.3,7.3h5.8V581H337v-10.9h5.8c4,0,7.3-3.3,7.3-7.3
			V402.1C350,398.1,346.8,394.9,342.8,394.9z M398.1,370.3L398.1,370.3h-2.3c0,0,0,0,0,0s0,0,0,0h-66h0h-2.3v-12.2h70.6L398.1,370.3
			L398.1,370.3z"/>
	</g>
</g>
<g>
	<path d="M202.2,298.7v-9.3c-6.5-0.3-12.9-2.1-16.6-4.2l2.9-11.4c4.1,2.2,9.9,4.3,16.2,4.3c5.6,0,9.4-2.2,9.4-6.1
		c0-3.7-3.1-6.1-10.4-8.5c-10.5-3.5-17.6-8.4-17.6-17.9c0-8.6,6.1-15.3,16.5-17.4v-9.3h9.6v8.6c6.5,0.3,10.9,1.7,14.2,3.2l-2.8,11
		c-2.5-1.1-7-3.3-14.1-3.3c-6.4,0-8.4,2.7-8.4,5.5c0,3.2,3.4,5.3,11.7,8.4c11.6,4.1,16.3,9.5,16.3,18.3c0,8.7-6.2,16.1-17.4,18.1v10
		H202.2z"/>
</g>
</svg>
