<?xml version="1.0" encoding="iso-8859-1"?>
<!-- Generator: Adobe Illustrator 19.0.0, SVG Export Plug-In . SVG Version: 6.00 Build 0)  -->
<svg xmlns="http://www.w3.org/2000/svg" xmlns:xlink="http://www.w3.org/1999/xlink" version="1.1" id="Capa_1" x="0px" y="0px" viewBox="0 0 511.999 511.999" style="enable-background:new 0 0 511.999 511.999;" xml:space="preserve" width="512px" height="512px">
<g>
	<g>
		<path d="M480.452,48.097h-16.548V31.547c0-8.556-6.96-15.516-15.516-15.516h-16.032c-8.556,0-15.516,6.96-15.516,15.516v16.548    H95.161V31.547c0-8.556-6.96-15.516-15.516-15.516H63.613c-8.556,0-15.516,6.96-15.516,15.516v16.548H31.548    C14.152,48.097,0,62.249,0,79.646v384.774c0,17.396,14.152,31.548,31.548,31.548h448.903c17.396,0,31.548-14.152,31.548-31.548    V79.646C512,62.249,497.848,48.097,480.452,48.097z M431.839,31.547c0-0.284,0.231-0.516,0.516-0.516h16.032    c0.285,0,0.516,0.231,0.516,0.516v48.097c0,0.284-0.231,0.516-0.516,0.516h-16.032c-0.285,0-0.516-0.231-0.516-0.516V31.547z     M63.097,31.547c0-0.284,0.231-0.516,0.516-0.516h16.032c0.285,0,0.516,0.231,0.516,0.516v48.097c0,0.284-0.231,0.516-0.516,0.516    H63.613c-0.285,0-0.516-0.231-0.516-0.516V31.547z M497,464.419c0,9.124-7.423,16.548-16.548,16.548H31.548    c-9.125,0-16.548-7.424-16.548-16.548V127.226h24.563c4.142,0,7.5-3.357,7.5-7.5c0-4.142-3.358-7.5-7.5-7.5H15v-32.58    c0-9.125,7.423-16.549,16.548-16.549h16.548v16.549c0,8.556,6.96,15.516,15.516,15.516h16.032c8.556,0,15.516-6.96,15.516-15.516    V63.097h321.678v16.549c0,8.556,6.96,15.516,15.516,15.516h16.032c8.556,0,15.516-6.96,15.516-15.516V63.097h16.548    c9.125,0,16.548,7.424,16.548,16.549v32.58h-24.564c-4.142,0-7.5,3.358-7.5,7.5c0,4.143,3.358,7.5,7.5,7.5H497V464.419z" fill="#cccccc"/>
	</g>
</g>
<g>
	<g>
		<path d="M440.371,112.226H71.629c-4.142,0-7.5,3.358-7.5,7.5c0,4.143,3.358,7.5,7.5,7.5h368.742c4.142,0,7.5-3.357,7.5-7.5    C447.871,115.584,444.513,112.226,440.371,112.226z" fill="#cccccc"/>
	</g>
</g>
<g>
	<g>
		<path d="M382.034,211.159c-1.336-1.629-3.295-2.618-5.397-2.729l-236.19-12.471c-1.909-2.725-4.245-5.151-6.922-7.156    l-25.337-18.968c-3.315-2.482-8.016-1.807-10.499,1.509c-2.483,3.316-1.807,8.017,1.509,10.499l25.337,18.968    c2.909,2.178,5.048,5.305,6.023,8.806l32.696,117.342c1.988,7.133,6.334,13.067,12.008,17.14l-23.131,40.479    c-2.776,4.857-2.757,10.646,0.052,15.486c2.203,3.797,5.77,6.386,9.905,7.328c-1.135,2.756-1.766,5.771-1.766,8.932    c0,12.976,10.557,23.532,23.532,23.532s23.532-10.557,23.532-23.532c0-3.009-0.574-5.885-1.608-8.532h100.441    c-1.034,2.647-1.608,5.523-1.608,8.532c0,12.976,10.557,23.532,23.532,23.532c12.975,0,23.532-10.557,23.532-23.532    c0-3.009-0.574-5.885-1.608-8.532h2.124c4.142,0,7.5-3.357,7.5-7.5c0-4.142-3.358-7.5-7.5-7.5h-186.59    c-0.118,0-0.297,0-0.446-0.257c-0.149-0.257-0.061-0.412-0.002-0.515l24.171-42.299c1.415,0.196,2.848,0.32,4.304,0.32    c0.91,0,1.828-0.039,2.749-0.119l151.799-13.2c10.96-0.953,19.701-9.226,21.257-20.116l14.232-99.623    C383.962,214.899,383.371,212.785,382.034,211.159z M328.145,407.789c4.704,0,8.532,3.828,8.532,8.532    c0,4.705-3.828,8.532-8.532,8.532c-4.704,0-8.532-3.827-8.532-8.532C319.613,411.617,323.441,407.789,328.145,407.789z     M183.855,407.789c4.704,0,8.532,3.828,8.532,8.532c0,4.705-3.828,8.532-8.532,8.532c-4.704,0-8.532-3.827-8.532-8.532    C175.323,411.617,179.151,407.789,183.855,407.789z M146.601,211.305l43.848,2.315l5.3,30.086l-40.433-1.123L146.601,211.305z     M168.469,289.789l-8.939-32.084l38.876,1.08l5.315,30.173L168.469,289.789z M195.079,334.976    c-7.922,0.692-15.237-4.375-17.375-12.044l-5.081-18.236l33.73-0.795l5.222,29.641L195.079,334.976z M256.182,329.663    l-29.606,2.574l-5.055-28.694l34.661-0.817V329.663z M256.182,287.721l-37.293,0.879l-5.178-29.39l42.471,1.18V287.721z     M256.182,245.385l-45.127-1.253l-5.232-29.699l50.359,2.659V245.385z M305.983,325.331l-34.801,3.026v-25.986l36.746-0.866    L305.983,325.331z M309.155,286.472l-37.973,0.895v-26.561l39.978,1.11L309.155,286.472z M312.382,246.946l-41.2-1.145v-27.918    l43.386,2.291L312.382,246.946z M354.585,314.482c-0.564,3.949-3.733,6.948-7.707,7.293l-25.737,2.238l1.866-22.863l33.596-0.792    L354.585,314.482z M358.753,285.303l-34.519,0.814l1.942-23.783l35.717,0.992L358.753,285.303z M364.028,248.38l-36.63-1.017    l2.155-26.398l38.104,2.012L364.028,248.38z" fill="#cccccc"/>
	</g>
</g>
<g>
</g>
<g>
</g>
<g>
</g>
<g>
</g>
<g>
</g>
<g>
</g>
<g>
</g>
<g>
</g>
<g>
</g>
<g>
</g>
<g>
</g>
<g>
</g>
<g>
</g>
<g>
</g>
<g>
</g>
</svg>
