<?xml version="1.0" encoding="iso-8859-1"?>
<!-- Generator: Adobe Illustrator 19.0.0, SVG Export Plug-In . SVG Version: 6.00 Build 0)  -->
<svg xmlns="http://www.w3.org/2000/svg" xmlns:xlink="http://www.w3.org/1999/xlink" version="1.1" id="Capa_1" x="0px" y="0px" viewBox="0 0 496 496" style="enable-background:new 0 0 496 496;" xml:space="preserve" width="512px" height="512px">
<g>
	<g>
		<g>
			<path d="M256,200c0-10.416-6.712-19.216-16-22.528V144h64v144h16V144h48v144h16V128h-80V80c0-44.112-35.888-80-80-80     c-11.376,0-22.192,2.424-32,6.728C182.192,2.424,171.376,0,160,0c-44.112,0-80,35.888-80,80v48H0v368h208v-16H16V144h64v33.472     c-9.288,3.312-16,12.112-16,22.528c0,13.232,10.768,24,24,24s24-10.768,24-24c0-10.416-6.712-19.216-16-22.528V144h128v33.472     c-9.288,3.312-16,12.112-16,22.528c0,13.232,10.768,24,24,24S256,213.232,256,200z M88,208c-4.408,0-8-3.592-8-8s3.592-8,8-8     s8,3.592,8,8S92.408,208,88,208z M224,16c35.288,0,64,28.712,64,64v48h-48V80c0-25.224-11.76-47.72-30.056-62.392     C214.472,16.584,219.168,16,224,16z M144,128H96V80c0-35.288,28.712-64,64-64c4.832,0,9.528,0.584,14.056,1.608     C155.76,32.28,144,54.776,144,80V128z M160,128V80c0-23.624,12.904-44.256,32-55.344C211.096,35.744,224,56.368,224,80v48H160z      M224,200c0-4.408,3.592-8,8-8s8,3.592,8,8s-3.592,8-8,8S224,204.408,224,200z" fill="#cccccc"/>
			<path d="M472,304H248c-13.232,0-24,10.768-24,24v144c0,13.232,10.768,24,24,24h224c13.232,0,24-10.768,24-24V328     C496,314.768,485.232,304,472,304z M480,472c0,4.408-3.592,8-8,8H248c-4.408,0-8-3.592-8-8v-88h240V472z M480,368H240v-16h240     V368z M480,336H240v-8c0-4.408,3.592-8,8-8h224c4.408,0,8,3.592,8,8V336z" fill="#cccccc"/>
			<path d="M384,464c9.6,0,18.128-4.336,24-11.056c5.872,6.72,14.4,11.056,24,11.056c17.648,0,32-14.352,32-32s-14.352-32-32-32     c-9.6,0-18.128,4.336-24,11.056c-5.872-6.72-14.4-11.056-24-11.056c-17.648,0-32,14.352-32,32S366.352,464,384,464z M432,416     c8.824,0,16,7.176,16,16c0,8.824-7.176,16-16,16c-8.824,0-16-7.176-16-16C416,423.176,423.176,416,432,416z M384,416     c8.824,0,16,7.176,16,16c0,8.824-7.176,16-16,16c-8.824,0-16-7.176-16-16C368,423.176,375.176,416,384,416z" fill="#cccccc"/>
			<rect x="336" y="160" width="16" height="128" fill="#cccccc"/>
		</g>
	</g>
</g>
<g>
</g>
<g>
</g>
<g>
</g>
<g>
</g>
<g>
</g>
<g>
</g>
<g>
</g>
<g>
</g>
<g>
</g>
<g>
</g>
<g>
</g>
<g>
</g>
<g>
</g>
<g>
</g>
<g>
</g>
</svg>
