<?xml version="1.0" encoding="utf-8"?>
<!-- Generator: Adobe Illustrator 19.0.0, SVG Export Plug-In . SVG Version: 6.00 Build 0)  -->
<svg version="1.1" id="Capa_1" xmlns="http://www.w3.org/2000/svg" xmlns:xlink="http://www.w3.org/1999/xlink" x="0px" y="0px"
	 viewBox="-204 296.5 201.5 201.5" style="enable-background:new -204 296.5 201.5 201.5;" xml:space="preserve">
<style type="text/css">
	.st0{fill:#CCCCCC;}
</style>
<g>
	<g>
		<path class="st0" d="M-103.2,296.5c-55.6,0-100.8,45.2-100.8,100.8S-158.8,498-103.2,498S-2.5,452.8-2.5,397.2
			S-47.7,296.5-103.2,296.5z M-103.2,491.1c-51.7,0-93.8-42.1-93.8-93.8s42.1-93.8,93.8-93.8s93.8,42.1,93.8,93.8
			S-51.5,491.1-103.2,491.1z"/>
	</g>
</g>
<g>
	<g>
		<path class="st0" d="M-15.6,347.8c-0.6-1.1-1.7-1.7-3-1.7h-111.2c-14.6,0-26.5,11.9-26.5,26.5v17.9c0,1.9,1.5,3.4,3.4,3.4H-6.2
			c0.9,0,1.8-0.4,2.5-1.1c0.6-0.7,1-1.6,0.9-2.6C-3.9,375.1-8.2,360.9-15.6,347.8z M-149.3,387v-14.5c0-10.8,8.8-19.7,19.7-19.7
			h109.1c5.7,10.6,9.3,22.1,10.6,34.1H-149.3z"/>
	</g>
</g>
<g>
	<g>
		<path class="st0" d="M-130.6,359.7c-6.6,0-11.9,5.4-11.9,11.9s5.4,11.9,11.9,11.9s11.9-5.4,11.9-11.9S-124,359.7-130.6,359.7z
			 M-130.6,376.8c-2.8,0-5.1-2.3-5.1-5.1s2.3-5.1,5.1-5.1c2.8,0,5.1,2.3,5.1,5.1C-125.4,374.5-127.7,376.8-130.6,376.8z"/>
	</g>
</g>
<g>
	<g>
		<path class="st0" d="M-103.2,359.7c-6.6,0-11.9,5.4-11.9,11.9s5.4,11.9,11.9,11.9s11.9-5.4,11.9-11.9S-96.7,359.7-103.2,359.7z
			 M-103.2,376.8c-2.8,0-5.1-2.3-5.1-5.1s2.3-5.1,5.1-5.1s5.1,2.3,5.1,5.1C-98.1,374.5-100.4,376.8-103.2,376.8z"/>
	</g>
</g>
<g>
	<g>
		<path class="st0" d="M-75.9,359.6c-6.6,0-12,5.4-12,12c0,6.6,5.4,12,12,12s12-5.4,12-12C-63.9,365-69.3,359.6-75.9,359.6z
			 M-75.9,376.7c-2.8,0-5.1-2.3-5.1-5.1c0-2.8,2.3-5.1,5.1-5.1s5.1,2.3,5.1,5.1C-70.9,374.4-73.1,376.7-75.9,376.7z"/>
	</g>
</g>
<g>
	<g>
		<path class="st0" d="M-2.8,390.2L-3,387h-153.1v95.9l1.7,1c15.5,9.2,33.2,14,51.2,14c55.5,0,100.7-45.2,100.7-100.7
			C-2.6,395.1-2.6,392.9-2.8,390.2z M-103.2,491.1c-16.2,0-32.1-4.2-46.1-12.1v-85.2H-9.5c0,1.2,0.1,2.3,0.1,3.4
			C-9.4,449-51.5,491.1-103.2,491.1z"/>
	</g>
</g>
<g>
	<g>
		<path class="st0" d="M-44.3,415.6c-0.6-0.8-1.6-1.2-2.6-1.2h-70.7l-1.1-4.2c-0.5-1.8-2.3-2.9-4.1-2.5c-1.8,0.5-2.9,2.3-2.5,4.1
			l10.2,41c0.4,1.5,1.7,2.6,3.3,2.6h58c1.6,0,3-1.1,3.3-2.7l6.8-34.1C-43.4,417.4-43.6,416.4-44.3,415.6z M-56.6,448.4h-52.6
			l-6.8-27.3h64.9L-56.6,448.4z"/>
	</g>
</g>
<g>
	<g>
		<g>
			<circle class="st0" cx="-98.1" cy="462.1" r="6.8"/>
			<circle class="st0" cx="-67.4" cy="462.1" r="6.8"/>
		</g>
	</g>
</g>
<g>
	<g>
		<path class="st0" d="M-50.3,431.4h-64.9c-1.9,0-3.4,1.5-3.4,3.4c0,1.9,1.5,3.4,3.4,3.4h64.9c1.9,0,3.4-1.5,3.4-3.4
			C-46.9,432.9-48.5,431.4-50.3,431.4z"/>
	</g>
</g>
<g>
	<g>
		<path class="st0" d="M-122,407.5h-10.2c-1.9,0-3.4,1.5-3.4,3.4s1.5,3.4,3.4,3.4h10.2c1.9,0,3.4-1.5,3.4-3.4
			S-120.1,407.5-122,407.5z"/>
	</g>
</g>
</svg>
