<?xml version="1.0" encoding="utf-8"?>
<!-- Generator: Adobe Illustrator 19.0.0, SVG Export Plug-In . SVG Version: 6.00 Build 0)  -->
<svg version="1.1" id="Calque_1" xmlns="http://www.w3.org/2000/svg" xmlns:xlink="http://www.w3.org/1999/xlink" x="0px" y="0px"
	 viewBox="-94 186 422 422" style="enable-background:new -94 186 422 422;" xml:space="preserve">
<style type="text/css">
	.st0{fill:#D4E1F4;}
	.st1{fill:#6978A8;}
	.st2{fill:#0023FF;}
</style>
<g>
	<polygon class="st0" points="-38.3,452.7 290.3,452.7 290.3,434.7 -56.3,434.7 -56.3,593.6 -38.3,593.6 	"/>
	<path class="st1" d="M-10.5,568.6c3.5,0,6.3-2.8,6.3-6.3v-96.4c0-3.5-2.8-6.3-6.3-6.3s-6.3,2.8-6.3,6.3v96.4
		C-16.8,565.8-13.9,568.6-10.5,568.6z"/>
	<path class="st1" d="M53.3,568.6c3.5,0,6.3-2.8,6.3-6.3v-96.4c0-3.5-2.8-6.3-6.3-6.3s-6.3,2.8-6.3,6.3v96.4
		C47,565.8,49.8,568.6,53.3,568.6z"/>
	<path class="st1" d="M117,568.6c3.5,0,6.3-2.8,6.3-6.3v-96.4c0-3.5-2.8-6.3-6.3-6.3s-6.3,2.8-6.3,6.3v96.4
		C110.7,565.8,113.5,568.6,117,568.6z"/>
	<path class="st1" d="M180.7,568.6c3.5,0,6.3-2.8,6.3-6.3v-96.4c0-3.5-2.8-6.3-6.3-6.3s-6.3,2.8-6.3,6.3v96.4
		C174.5,565.8,177.3,568.6,180.7,568.6z"/>
	<path class="st1" d="M244.5,568.6c3.5,0,6.3-2.8,6.3-6.3v-96.4c0-3.5-2.8-6.3-6.3-6.3s-6.3,2.8-6.3,6.3v96.4
		C238.2,565.8,241,568.6,244.5,568.6z"/>
	<path class="st1" d="M-68.7,427.3c0,0.1,0,0.2,0,0.3c0,0.1,0,0.2-0.1,0.4c0,0.1,0,0.1,0,0.2c0,0.2,0,0.3,0,0.5v0v171.1
		c0,3.5,2.8,6.4,6.3,6.5h359.1c3.5-0.1,6.3-3,6.3-6.5V428.6c0-0.2,0-0.4,0-0.6c0,0,0,0,0-0.1c0-0.2,0-0.3-0.1-0.4
		c-0.1-0.6-0.3-1.2-0.6-1.8c0,0,0-0.1,0-0.1c-0.1-0.1-0.1-0.2-0.2-0.3c0-0.1-0.1-0.1-0.1-0.2c-0.1-0.1-0.1-0.1-0.2-0.2
		c-0.1-0.1-0.1-0.2-0.2-0.3c0,0-0.1-0.1-0.1-0.1c-0.1-0.1-0.2-0.2-0.3-0.3l0,0c-0.3-0.3-0.6-0.5-1-0.8c-0.2-0.1-0.3-0.2-0.5-0.3l0,0
		c-0.2-0.1-0.4-0.2-0.6-0.3h-0.1l-173.7-71.6v-16.7c0-3.5-2.8-6.3-6.3-6.3s-6.3,2.8-6.3,6.3v16.6L-65,422.8c0,0,0,0,0,0
		c-0.1,0.1-0.2,0.1-0.4,0.2c-0.1,0-0.1,0.1-0.1,0.1c-0.1,0.1-0.2,0.1-0.3,0.2c-0.1,0-0.1,0.1-0.2,0.1c-0.1,0-0.1,0.1-0.2,0.1
		c-1.2,0.9-2.1,2.1-2.4,3.6C-68.7,427.2-68.7,427.2-68.7,427.3z M119,362.1l145.8,60.1H-30.1L119,362.1z M290.3,593.6H-56.3V434.7
		h346.5V593.6z"/>
	<path class="st2" d="M117,327.3c-9.8,0-17.8-8-17.8-17.8c0-3.5-2.8-6.3-6.3-6.3s-6.3,2.8-6.3,6.3c0,16.8,13.6,30.4,30.4,30.4
		c16.8,0,30.4-13.6,30.4-30.4c0-14.4-10.1-26.8-24.1-29.7v-30.9h5.8c2.9,0,5.4-2,6.1-4.8l12-48.2c0.5-1.9,0-3.9-1.1-5.5
		c-1.2-1.6-3-2.5-5-2.5H92.9c-3.5,0.1-6.4,3-6.3,6.6c0,0.5,0.1,0.9,0.2,1.4l12,48.3c0.7,2.8,3.2,4.8,6.1,4.8h5.8v36.5
		c0,3.5,2.8,6.3,6.3,6.3c9.8-0.1,17.9,7.9,17.9,17.7c0.1,9.8-7.9,17.9-17.7,17.9C117.2,327.3,117.1,327.3,117,327.3z M100.9,200.4
		H133l-8.9,35.9h-14.3L100.9,200.4z"/>
</g>
</svg>
