<?xml version="1.0" encoding="utf-8"?>
<!-- Generator: Adobe Illustrator 19.0.0, SVG Export Plug-In . SVG Version: 6.00 Build 0)  -->
<svg version="1.1" id="Layer_1" xmlns="http://www.w3.org/2000/svg" xmlns:xlink="http://www.w3.org/1999/xlink" x="0px" y="0px"
	 viewBox="0 0 192.8 192.8" style="enable-background:new 0 0 192.8 192.8;" xml:space="preserve">
<style type="text/css">
	.st0{fill-rule:evenodd;clip-rule:evenodd;fill:#482683;}
	.st1{fill-rule:evenodd;clip-rule:evenodd;fill:#EE7203;}
	.st2{fill-rule:evenodd;clip-rule:evenodd;fill:#FFFFFF;}
</style>
<g>
	<path class="st0" d="M0,0h149.7c23.8,0,43,19.3,43,43v106.7c0,23.8-19.3,43-43,43H43c-23.8,0-43-19.3-43-43V0L0,0z"/>
	<polygon class="st1" points="151.8,107 146.1,100.7 140.5,107 128.7,107 140.3,94.1 128.7,81.2 140.9,81.2 146.6,87.5 152.1,81.2 
		163.8,81.2 152.3,94.1 164,107 151.8,107 	"/>
	<polygon class="st1" points="106.1,107 106.1,66.3 128.7,66.3 128.7,75.4 115.7,75.4 115.7,81.2 128.7,81.2 128.7,89.9 115.7,89.9 
		115.7,97.9 128.7,97.9 128.7,107 106.1,107 	"/>
	<path class="st2" d="M96.6,66.3V83h-0.1c-2.1-2.4-4.8-3.3-7.8-3.3c-6.3,0-11,4.3-12.7,9.9c-1.9-6.2-6.8-10-14-10
		c-5.9,0-10.5,2.6-12.9,6.9v-5.3H36.9v-5.8h13.3v-9.1H26.1V107h10.8V89.9h10.8c-0.3,1.3-0.5,2.6-0.5,4c0,8.5,6.5,14.5,14.8,14.5
		c7,0,11.6-3.3,14-9.2h-9.3c-1.3,1.8-2.2,2.3-4.7,2.3c-2.9,0-5.4-2.5-5.4-5.5h18.9c0.8,6.8,6.1,12.6,13.3,12.6c3.1,0,6-1.5,7.7-4.1
		h0.1v2.6h9.5V66.3H96.6L96.6,66.3z M56.9,90c0.6-2.6,2.6-4.3,5.1-4.3c2.8,0,4.7,1.6,5.2,4.3C67.4,90,56.9,90,56.9,90L56.9,90z
		 M90.8,100.8c-3.5,0-5.7-3.3-5.7-6.7c0-3.7,1.9-7.2,5.7-7.2c3.9,0,5.5,3.5,5.5,7.2C96.3,97.6,94.6,100.8,90.8,100.8L90.8,100.8z"/>
	<path class="st2" d="M136,126.5v-0.7c0.9,0,1.3-0.4,1.3-1.1v-6c0-1.5-0.3-2-1.4-2v-0.7l3.1,0v2.4h0c0.3-1.2,1.1-2.7,2.4-2.7
		c0.9,0,1.7,0.7,1.7,1.9c0,0.8-0.5,1.3-1.1,1.3c-0.5,0-1-0.3-1-1.2c0-0.5,0.5-1,0.7-1.1c0-0.2-0.3-0.3-0.4-0.3
		c-1.4,0-2.1,3.3-2.1,5.2v3.1c0,0.7,0.4,1.1,1.9,1.1v0.7H136L136,126.5z"/>
	<path class="st2" d="M129.2,121.6c0-3.8,1.1-5.1,2.3-5.1c1.1,0,1.9,1.4,1.9,4.8c0,3.4-0.8,4.8-2,4.8
		C130.5,126,129.2,125,129.2,121.6L129.2,121.6z M126.4,116.6c0.6,0.1,0.9,0.2,0.9,1.1v10.9c0,0.7-0.4,1.1-1.4,1.1v0.7h5v-0.7
		c-1.3,0-1.6-0.4-1.6-1.1v-3.4h0c0.4,0.8,1.2,1.4,2.3,1.4c2.4,0,4-2.5,4-5.6c0-2.3-1.3-5.6-3.8-5.6c-1.4,0-2.3,1-2.7,2.1h0v-1.8
		h-2.7V116.6L126.4,116.6z"/>
	<path class="st2" d="M104.5,126.5v-0.7c1.4-0.1,1.6-0.4,1.6-1.5v-10.8c0-1.2-0.3-1.4-1.6-1.5v-0.7h10.4v5.3h-0.7
		c-0.5-2.9-1.3-4.6-3.9-4.6c-1.6,0-2,0.5-2,1.5v4.6h0.8c1.6,0,2-0.8,2.2-2.7h0.7v6.1h-0.7c-0.3-1.9-0.9-2.6-2.3-2.6h-0.8v5.4
		c0,0.9,0.3,1.5,1.7,1.5c2.9,0,4.2-1.4,4.6-4.8h0.7v5.5H104.5L104.5,126.5z"/>
	<path class="st2" d="M126,126.5h-4.6v-0.7c0.8,0,1-0.2,1-0.5c0-0.3-0.2-0.6-1.9-3.1c-1.4,2.2-1.6,2.6-1.6,2.9c0,0.4,0.4,0.6,1,0.6
		v0.7h-3.8v-0.7c0.8-0.1,1.4-0.4,2.1-1.5l1.8-2.8l-2.8-4.3c-0.3-0.4-0.5-0.5-1.2-0.6v-0.7h4.4v0.7c-0.7,0-1,0.1-1,0.5
		c0,0.3,0.2,0.5,1.8,2.9c1.4-2.2,1.6-2.4,1.6-2.9c0-0.3-0.2-0.5-1.1-0.5v-0.7h3.6v0.7c-0.5,0-1.1,0.4-1.6,1.1l-2,3l2.7,4.2
		c0.4,0.6,0.7,0.8,1.6,0.9L126,126.5L126,126.5z"/>
	<path class="st2" d="M145.5,120.3c0-2.8,0.8-3.9,2.1-3.9c1.2,0,1.8,1.1,1.8,3.9H145.5L145.5,120.3z M151.6,121.1
		c0-3.2-1.6-5.5-4-5.5c-2.5,0-4.3,2.3-4.3,5.6c0,2.8,1.8,5.6,4.6,5.6c2.1,0,3.2-1.3,3.7-3.4l-0.7-0.1c-0.4,1.6-1.1,2.7-2.8,2.7
		c-1.5,0-2.6-1.7-2.6-4.8H151.6L151.6,121.1z"/>
	<path class="st2" d="M152.7,126.5v-3.7h0.7c0.2,1.4,1.1,3.3,2.7,3.3c1.1,0,1.9-0.7,1.9-1.9c0-2.9-5.3-1.6-5.3-5.5c0-1.4,1-3,2.9-3
		c1.2,0,1.7,0.7,2.1,0.7c0.2,0,0.3-0.2,0.4-0.4h0.7v3.2h-0.7c-0.2-1.2-1-2.8-2.4-2.8c-1,0-1.6,0.6-1.6,1.6c0,2.7,5.5,1.5,5.5,5.5
		c0,1.4-1.1,3.3-3.4,3.3c-1.5,0-1.9-0.8-2.5-0.8c-0.2,0-0.4,0.3-0.4,0.5H152.7L152.7,126.5z"/>
	<path class="st2" d="M160.5,126.5v-3.7h0.7c0.2,1.4,1.1,3.3,2.7,3.3c1.1,0,1.9-0.7,1.9-1.9c0-2.9-5.3-1.6-5.3-5.5c0-1.4,1-3,2.9-3
		c1.2,0,1.7,0.7,2.1,0.7c0.2,0,0.3-0.2,0.4-0.4h0.7v3.2H166c-0.2-1.2-1-2.8-2.4-2.8c-1,0-1.6,0.6-1.6,1.6c0,2.7,5.5,1.5,5.5,5.5
		c0,1.4-1.1,3.3-3.4,3.3c-1.5,0-1.9-0.8-2.5-0.8c-0.2,0-0.4,0.3-0.4,0.5H160.5L160.5,126.5z"/>
	<path class="st1" d="M166.6,104.4c0-1.4,1.2-2.6,2.6-2.6c1.5,0,2.6,1.2,2.6,2.6c0,1.5-1.2,2.6-2.6,2.6
		C167.7,107,166.6,105.9,166.6,104.4L166.6,104.4z M171.4,104.4c0-1.2-1-2.2-2.2-2.2c-1.2,0-2.2,1-2.2,2.2c0,1.2,1,2.2,2.2,2.2
		C170.4,106.6,171.4,105.6,171.4,104.4L171.4,104.4z M168.6,104.6v1.3h-0.5v-3.1h1c0.6,0,1.1,0.2,1.1,0.9c0,0.4-0.2,0.6-0.6,0.7v0
		c0.4,0.1,0.5,0.3,0.5,0.6c0,0.3,0.1,0.6,0.2,0.9h-0.6c0-0.2-0.1-0.4-0.1-0.6c0-0.3,0-0.5-0.2-0.7c-0.1-0.1-0.3-0.1-0.4-0.1H168.6
		L168.6,104.6z M169.1,104.1c0.5,0,0.6-0.2,0.6-0.4c0-0.2-0.1-0.3-0.5-0.3h-0.6v0.8H169.1L169.1,104.1z"/>
</g>
</svg>
