<?xml version="1.0" encoding="utf-8"?>
<!-- Generator: Adobe Illustrator 19.0.0, SVG Export Plug-In . SVG Version: 6.00 Build 0)  -->
<svg version="1.1" id="Calque_1" xmlns="http://www.w3.org/2000/svg" xmlns:xlink="http://www.w3.org/1999/xlink" x="0px" y="0px"
	 viewBox="-94 186 422 422" style="enable-background:new -94 186 422 422;" xml:space="preserve">
<style type="text/css">
	.st0{fill:#D4E1F4;}
	.st1{fill:#6978A8;}
	.st2{fill:#0023FF;}
</style>
<g>
	<path class="st0" d="M-20.4,498.9v-95.2l-39.8-16.9v141.9c0,7.1,5.8,12.9,12.9,12.9h18.5c2.2-12.7,10.1-23.7,21.4-29.8h-0.2
		C-14.6,511.8-20.4,506-20.4,498.9z"/>
	<path class="st0" d="M32.2,511.8c11.4,6.1,19.3,17.1,21.4,29.8h95.5v-29.8H32.2z"/>
	<path class="st0" d="M-7.3,511.8h39.5C19.8,505.2,5,505.2-7.3,511.8z"/>
	<path class="st1" d="M-67.1,364.2c-3.8,0-7,3.1-7,7v157.5c0,14.8,12,26.8,26.9,26.9h24.9c3.8,0,7-3.1,7-7c0-3.8-3.1-7-7-7h-24.9
		c-7.1,0-12.9-5.8-12.9-12.9V371.2C-60.2,367.4-63.3,364.2-67.1,364.2z"/>
	<path class="st1" d="M148.1,439.6v102H47.2c-3.8,0-7,3.1-7,7c0,3.8,3.1,7,7,7h159.1c3.8,0,7-3.1,7-7c0-3.8-3.1-7-7-7h-44.3v-95
		h151.7v82.1c0,7.1-5.8,12.9-12.9,12.9H276c-3.8,0-7,3.1-7,7c0,3.8,3.1,7,7,7h24.9c14.8,0,26.8-12,26.9-26.9v-89.1
		c0-0.1,0-0.1,0-0.2c0-0.1,0-0.3,0-0.4c0-0.1,0-0.2,0-0.3c0-0.1,0-0.2-0.1-0.4c0-0.1,0-0.2-0.1-0.3c0-0.1-0.1-0.2-0.1-0.3
		c0-0.1-0.1-0.2-0.1-0.3c0-0.1-0.1-0.2-0.1-0.3c0-0.1-0.1-0.2-0.1-0.3c0-0.1-0.1-0.2-0.1-0.3c-0.1-0.1-0.1-0.2-0.2-0.3
		c-0.1-0.1-0.1-0.2-0.2-0.3c-0.1-0.1-0.1-0.2-0.2-0.3c-0.1-0.1-0.1-0.2-0.2-0.3c-0.1-0.1-0.2-0.2-0.2-0.3c0,0-0.1-0.1-0.1-0.1
		l-51.2-55.8c-5.1-5.5-12.3-8.7-19.8-8.7h-92.8v-72.2c0-14.8-12-26.8-26.9-26.9H62.1c-3.8,0-7,3.1-7,7c0,3.8,3.1,7,7,7h73.1
		c7.1,0,12.9,5.8,12.9,12.9V439.6z M254.8,384.3c3.6,0,7.1,1.5,9.5,4.2l40.5,44.2H162.1v-48.3H254.8z"/>
	<g>
		<path class="st2" d="M241.1,590.4c-23.1,0-41.8-18.7-41.8-41.8c0-23.1,18.7-41.8,41.8-41.8s41.8,18.7,41.8,41.8
			C282.9,571.6,264.2,590.3,241.1,590.4z M241.1,520.7c-15.4,0-27.8,12.5-27.8,27.8c0,15.4,12.5,27.8,27.8,27.8S269,564,269,548.6
			C269,533.2,256.5,520.8,241.1,520.7z"/>
		<path class="st2" d="M-7.5,404.6c-47.8,0-86.5-38.7-86.5-86.5s38.7-86.5,86.5-86.5S79,270.3,79,318.1
			C79,365.9,40.3,404.6-7.5,404.6z M-7.5,245.5c-40.1,0-72.6,32.5-72.6,72.6s32.5,72.6,72.6,72.6s72.6-32.5,72.6-72.6
			C65.1,278,32.6,245.6-7.5,245.5z"/>
		<path class="st2" d="M34.2,325.2H-7.2c-3.8,0-7-3.1-7-7v-41.4c0-3.8,3.1-7,7-7s7,3.1,7,7v34.4h34.4c3.8,0,7,3.1,7,7
			C41.1,322.1,38,325.2,34.2,325.2z"/>
		<path class="st2" d="M12.4,590.4c-23.1,0-41.8-18.7-41.8-41.8c0-23.1,18.7-41.8,41.8-41.8s41.8,18.7,41.8,41.8
			C54.2,571.6,35.5,590.3,12.4,590.4z M12.4,520.7c-15.4,0-27.8,12.5-27.8,27.8c0,15.4,12.5,27.8,27.8,27.8s27.8-12.5,27.8-27.8
			C40.2,533.2,27.8,520.8,12.4,520.7z"/>
	</g>
</g>
</svg>
