<?xml version="1.0" encoding="utf-8"?>
<!-- Generator: Adobe Illustrator 19.0.0, SVG Export Plug-In . SVG Version: 6.00 Build 0)  -->
<svg version="1.1" id="Layer_1" xmlns="http://www.w3.org/2000/svg" xmlns:xlink="http://www.w3.org/1999/xlink" x="0px" y="0px"
	 viewBox="-53 144.8 504 504" style="enable-background:new -53 144.8 504 504;" xml:space="preserve">
<style type="text/css">
	.st0{fill:#FFB600;}
	.st1{fill:#F7981D;}
	.st2{fill:#FF8500;}
	.st3{fill:#FF5050;}
	.st4{fill:#E52836;}
	.st5{fill:#CB2026;}
	.st6{fill:#FFFFFF;}
	.st7{fill:#DCE5E5;}
</style>
<path class="st0" d="M451,396.8C451,480,383.8,548,299.8,548c-83.2,0-151.2-68-151.2-151.2l0,0c0-83.2,67.2-151.2,150.4-151.2
	C383.8,245.6,451,313.6,451,396.8L451,396.8z"/>
<path class="st1" d="M299.8,245.6c83.2,0,151.2,68,151.2,151.2l0,0C451,480,383.8,548,299.8,548c-83.2,0-151.2-68-151.2-151.2"/>
<path class="st2" d="M299.8,245.6c83.2,0,151.2,68,151.2,151.2l0,0C451,480,383.8,548,299.8,548"/>
<path class="st3" d="M96.6,245.6C14.2,246.4-53,313.6-53,396.8S14.2,548,98.2,548c39.2,0,74.4-15.2,101.6-39.2l0,0l0,0
	c5.6-4.8,10.4-10.4,15.2-16h-31.2c-4-4.8-8-10.4-11.2-15.2h53.6c3.2-4.8,6.4-10.4,8.8-16h-71.2c-2.4-4.8-4.8-10.4-6.4-16h83.2
	c4.8-15.2,8-31.2,8-48c0-11.2-1.6-21.6-3.2-32h-92.8c0.8-5.6,2.4-10.4,4-16h83.2c-1.6-5.6-4-11.2-6.4-16H163
	c2.4-5.6,5.6-10.4,8.8-16h53.6c-3.2-5.6-7.2-11.2-12-16h-29.6c4.8-5.6,9.6-10.4,15.2-15.2c-26.4-24.8-62.4-39.2-101.6-39.2
	C97.4,245.6,97.4,245.6,96.6,245.6z"/>
<path class="st4" d="M-53,396.8C-53,480,14.2,548,98.2,548c39.2,0,74.4-15.2,101.6-39.2l0,0l0,0c5.6-4.8,10.4-10.4,15.2-16h-31.2
	c-4-4.8-8-10.4-11.2-15.2h53.6c3.2-4.8,6.4-10.4,8.8-16h-71.2c-2.4-4.8-4.8-10.4-6.4-16h83.2c4.8-15.2,8-31.2,8-48
	c0-11.2-1.6-21.6-3.2-32h-92.8c0.8-5.6,2.4-10.4,4-16h83.2c-1.6-5.6-4-11.2-6.4-16H163c2.4-5.6,5.6-10.4,8.8-16h53.6
	c-3.2-5.6-7.2-11.2-12-16h-29.6c4.8-5.6,9.6-10.4,15.2-15.2c-26.4-24.8-62.4-39.2-101.6-39.2h-0.8"/>
<path class="st5" d="M98.2,548c39.2,0,74.4-15.2,101.6-39.2l0,0l0,0c5.6-4.8,10.4-10.4,15.2-16h-31.2c-4-4.8-8-10.4-11.2-15.2h53.6
	c3.2-4.8,6.4-10.4,8.8-16h-71.2c-2.4-4.8-4.8-10.4-6.4-16h83.2c4.8-15.2,8-31.2,8-48c0-11.2-1.6-21.6-3.2-32h-92.8
	c0.8-5.6,2.4-10.4,4-16h83.2c-1.6-5.6-4-11.2-6.4-16H163c2.4-5.6,5.6-10.4,8.8-16h53.6c-3.2-5.6-7.2-11.2-12-16h-29.6
	c4.8-5.6,9.6-10.4,15.2-15.2c-26.4-24.8-62.4-39.2-101.6-39.2h-0.8"/>
<g>
	<path class="st6" d="M151.8,435.2l2.4-13.6c-0.8,0-2.4,0.8-4,0.8c-5.6,0-6.4-3.2-5.6-4.8l4.8-28h8.8l2.4-15.2h-8l1.6-9.6h-16
		c0,0-9.6,52.8-9.6,59.2c0,9.6,5.6,13.6,12.8,13.6C146.2,437.6,150.2,436,151.8,435.2z"/>
	<path class="st6" d="M157.4,409.6c0,22.4,15.2,28,28,28c12,0,16.8-2.4,16.8-2.4l3.2-15.2c0,0-8.8,4-16.8,4
		c-17.6,0-14.4-12.8-14.4-12.8H207c0,0,2.4-10.4,2.4-14.4c0-10.4-5.6-23.2-23.2-23.2C169.4,372,157.4,389.6,157.4,409.6z
		 M185.4,386.4c8.8,0,7.2,10.4,7.2,11.2H175C175,396.8,176.6,386.4,185.4,386.4z"/>
	<path class="st6" d="M287,435.2l3.2-17.6c0,0-8,4-13.6,4c-11.2,0-16-8.8-16-18.4c0-19.2,9.6-29.6,20.8-29.6c8,0,14.4,4.8,14.4,4.8
		l2.4-16.8c0,0-9.6-4-18.4-4c-18.4,0-36.8,16-36.8,46.4c0,20,9.6,33.6,28.8,33.6C278.2,437.6,287,435.2,287,435.2z"/>
	<path class="st6" d="M63.8,372c-11.2,0-19.2,3.2-19.2,3.2l-2.4,13.6c0,0,7.2-3.2,17.6-3.2c5.6,0,10.4,0.8,10.4,5.6
		c0,3.2-0.8,4-0.8,4s-4.8,0-7.2,0c-13.6,0-28.8,5.6-28.8,24c0,14.4,9.6,17.6,15.2,17.6c11.2,0,16-7.2,16.8-7.2l-0.8,6.4H79l6.4-44
		C85.4,372.8,69.4,372,63.8,372z M67,408c0,2.4-1.6,15.2-11.2,15.2c-4.8,0-6.4-4-6.4-6.4c0-4,2.4-9.6,14.4-9.6
		C66.2,408,67,408,67,408z"/>
	<path class="st6" d="M100.6,436.8c4,0,24,0.8,24-20.8c0-20-19.2-16-19.2-24c0-4,3.2-5.6,8.8-5.6c2.4,0,11.2,0.8,11.2,0.8l2.4-14.4
		c0,0-5.6-1.6-15.2-1.6c-12,0-24,4.8-24,20.8c0,18.4,20,16.8,20,24c0,4.8-5.6,5.6-9.6,5.6c-7.2,0-14.4-2.4-14.4-2.4l-2.4,14.4
		C83,435.2,87,436.8,100.6,436.8z"/>
	<path class="st6" d="M419.8,359.2l-3.2,21.6c0,0-6.4-8-15.2-8c-14.4,0-27.2,17.6-27.2,38.4c0,12.8,6.4,26.4,20,26.4
		c9.6,0,15.2-6.4,15.2-6.4l-0.8,5.6h16l12-76.8L419.8,359.2z M412.6,401.6c0,8.8-4,20-12.8,20c-5.6,0-8.8-4.8-8.8-12.8
		c0-12.8,5.6-20.8,12.8-20.8C409.4,388,412.6,392,412.6,401.6z"/>
	<path class="st6" d="M-23.4,436l9.6-57.6l1.6,57.6H-1l20.8-57.6L11,436h16.8l12.8-76.8H14.2l-16,47.2l-0.8-47.2h-23.2L-38.6,436
		H-23.4z"/>
	<path class="st6" d="M224.6,436c4.8-26.4,5.6-48,16.8-44c1.6-10.4,4-14.4,5.6-18.4c0,0-0.8,0-3.2,0c-7.2,0-12.8,9.6-12.8,9.6
		l1.6-8.8h-15.2L207,436.8h17.6V436z"/>
	<path class="st6" d="M323.8,372c-11.2,0-19.2,3.2-19.2,3.2l-2.4,13.6c0,0,7.2-3.2,17.6-3.2c5.6,0,10.4,0.8,10.4,5.6
		c0,3.2-0.8,4-0.8,4s-4.8,0-7.2,0c-13.6,0-28.8,5.6-28.8,24c0,14.4,9.6,17.6,15.2,17.6c11.2,0,16-7.2,16.8-7.2l-0.8,6.4H339l6.4-44
		C346.2,372.8,329.4,372,323.8,372z M327.8,408c0,2.4-1.6,15.2-11.2,15.2c-4.8,0-6.4-4-6.4-6.4c0-4,2.4-9.6,14.4-9.6
		C327,408,327,408,327.8,408z"/>
	<path class="st6" d="M359,436c4.8-26.4,5.6-48,16.8-44c1.6-10.4,4-14.4,5.6-18.4c0,0-0.8,0-3.2,0c-7.2,0-12.8,9.6-12.8,9.6l1.6-8.8
		h-15.2l-10.4,62.4H359V436z"/>
</g>
<g>
	<path class="st7" d="M127,424c0,9.6,5.6,13.6,12.8,13.6c5.6,0,10.4-1.6,12-2.4l2.4-13.6c-0.8,0-2.4,0.8-4,0.8
		c-5.6,0-6.4-3.2-5.6-4.8l4.8-28h8.8l2.4-15.2h-8l1.6-9.6"/>
	<path class="st7" d="M165.4,409.6c0,22.4,7.2,28,20,28c12,0,16.8-2.4,16.8-2.4l3.2-15.2c0,0-8.8,4-16.8,4
		c-17.6,0-14.4-12.8-14.4-12.8H207c0,0,2.4-10.4,2.4-14.4c0-10.4-5.6-23.2-23.2-23.2C169.4,372,165.4,389.6,165.4,409.6z
		 M185.4,386.4c8.8,0,10.4,10.4,10.4,11.2H175C175,396.8,176.6,386.4,185.4,386.4z"/>
	<path class="st7" d="M287,435.2l3.2-17.6c0,0-8,4-13.6,4c-11.2,0-16-8.8-16-18.4c0-19.2,9.6-29.6,20.8-29.6c8,0,14.4,4.8,14.4,4.8
		l2.4-16.8c0,0-9.6-4-18.4-4c-18.4,0-28.8,16-28.8,46.4c0,20,1.6,33.6,20.8,33.6C278.2,437.6,287,435.2,287,435.2z"/>
	<path class="st7" d="M42.2,389.6c0,0,7.2-3.2,17.6-3.2c5.6,0,10.4,0.8,10.4,5.6c0,3.2-0.8,4-0.8,4s-4.8,0-7.2,0
		c-13.6,0-28.8,5.6-28.8,24c0,14.4,9.6,17.6,15.2,17.6c11.2,0,16-7.2,16.8-7.2l-0.8,6.4H79l6.4-44c0-18.4-16-19.2-22.4-19.2 M75,408
		c0,2.4-9.6,15.2-19.2,15.2c-4.8,0-6.4-4-6.4-6.4c0-4,2.4-9.6,14.4-9.6C66.2,408,75,408,75,408z"/>
	<path class="st7" d="M83,435.2c0,0,4.8,1.6,18.4,1.6c4,0,24,0.8,24-20.8c0-20-19.2-16-19.2-24c0-4,3.2-5.6,8.8-5.6
		c2.4,0,11.2,0.8,11.2,0.8l2.4-14.4c0,0-5.6-1.6-15.2-1.6c-12,0-16,4.8-16,20.8c0,18.4,12,16.8,12,24c0,4.8-5.6,5.6-9.6,5.6"/>
	<path class="st7" d="M416.6,380.8c0,0-6.4-8-15.2-8c-14.4,0-19.2,17.6-19.2,38.4c0,12.8-1.6,26.4,12,26.4c9.6,0,15.2-6.4,15.2-6.4
		l-0.8,5.6h16l12-76.8 M415.8,401.6c0,8.8-7.2,20-16,20c-5.6,0-8.8-4.8-8.8-12.8c0-12.8,5.6-20.8,12.8-20.8
		C409.4,388,415.8,392,415.8,401.6z"/>
	<path class="st7" d="M-23.4,436l9.6-57.6l1.6,57.6H-1l20.8-57.6L11,436h16.8l12.8-76.8h-20l-22.4,47.2l-0.8-47.2h-8.8L-38.6,436
		H-23.4z"/>
	<path class="st7" d="M207.8,436h16.8c4.8-26.4,5.6-48,16.8-44c1.6-10.4,4-14.4,5.6-18.4c0,0-0.8,0-3.2,0c-7.2,0-12.8,9.6-12.8,9.6
		l1.6-8.8"/>
	<path class="st7" d="M302.2,389.6c0,0,7.2-3.2,17.6-3.2c5.6,0,10.4,0.8,10.4,5.6c0,3.2-0.8,4-0.8,4s-4.8,0-7.2,0
		c-13.6,0-28.8,5.6-28.8,24c0,14.4,9.6,17.6,15.2,17.6c11.2,0,16-7.2,16.8-7.2l-0.8,6.4H339l6.4-44c0-18.4-16-19.2-22.4-19.2
		 M335,408c0,2.4-9.6,15.2-19.2,15.2c-4.8,0-6.4-4-6.4-6.4c0-4,2.4-9.6,14.4-9.6C327,408,335,408,335,408z"/>
	<path class="st7" d="M342.2,436H359c4.8-26.4,5.6-48,16.8-44c1.6-10.4,4-14.4,5.6-18.4c0,0-0.8,0-3.2,0c-7.2,0-12.8,9.6-12.8,9.6
		l1.6-8.8"/>
</g>
</svg>
