<?xml version="1.0" encoding="utf-8"?>
<!-- Generator: Adobe Illustrator 19.0.0, SVG Export Plug-In . SVG Version: 6.00 Build 0)  -->
<svg version="1.1" id="Calque_1" xmlns="http://www.w3.org/2000/svg" xmlns:xlink="http://www.w3.org/1999/xlink" x="0px" y="0px"
	 viewBox="-200 246 302 302" style="enable-background:new -200 246 302 302;" xml:space="preserve">
<style type="text/css">
	.st0{fill:#27346A;}
	.st1{fill:#2790C3;}
	.st2{fill:#1F264F;}
</style>
<g>
	<path class="st0" d="M37.7,273.1C24.1,257.6-0.4,251-31.7,251h-90.9c-6.4,0-11.9,4.7-12.9,11l-37.9,240.1c-0.8,4.7,2.9,9,7.7,9
		h56.1l14.1-89.4l-0.4,2.8c1-6.3,6.4-11,12.8-11h26.7c52.4,0,93.4-21.3,105.4-82.9c0.4-1.8,0.7-3.6,0.9-5.3c-1.5-0.8-1.5-0.8,0,0
		C53.6,302.6,50,287.1,37.7,273.1"/>
	<path class="st0" d="M-73.9,317.1c1.5-0.7,3.2-1.1,4.9-1.1H2.3c8.4,0,16.3,0.6,23.5,1.7c2.1,0.3,4.1,0.7,6,1.1
		c1.9,0.4,3.8,0.9,5.7,1.4c0.9,0.3,1.8,0.5,2.7,0.8c3.5,1.2,6.8,2.6,9.9,4.2c3.6-22.8,0-38.2-12.3-52.3C24.1,257.6-0.4,251-31.7,251
		h-90.9c-6.4,0-11.8,4.7-12.9,11l-37.9,240.1c-0.8,4.7,2.9,9,7.7,9h56.1l29.2-185.5C-79.6,321.8-77.2,318.7-73.9,317.1z"/>
	<path class="st1" d="M49.1,330.7c-12,61.6-53,82.9-105.4,82.9H-83c-6.4,0-11.8,4.7-12.8,11l-17.5,111.2c-0.7,4.1,2.5,7.9,6.7,7.9
		h47.3c5.6,0,10.4-4.1,11.2-9.6l0.5-2.4l8.9-56.5l0.6-3.1c0.9-5.5,5.6-9.6,11.2-9.6h7.1c45.8,0,81.7-18.6,92.2-72.5
		c4.4-22.5,2.1-41.3-9.5-54.5c-3.5-4-7.9-7.3-13-10C49.7,327.1,49.4,328.8,49.1,330.7L49.1,330.7z"/>
	<path class="st2" d="M37.5,320.3c-1.8-0.5-3.7-1-5.7-1.4c-1.9-0.4-3.9-0.8-6-1.1c-7.2-1.2-15.1-1.7-23.5-1.7H-69
		c-1.8,0-3.4,0.4-4.9,1.1c-3.3,1.6-5.7,4.7-6.3,8.5l-15.1,96.1l-0.4,2.8c1-6.3,6.4-11,12.8-11h26.7c52.4,0,93.4-21.3,105.4-82.9
		c0.4-1.8,0.7-3.6,0.9-5.3c-3-1.6-6.3-3-9.9-4.2C39.3,320.9,38.4,320.6,37.5,320.3"/>
</g>
</svg>
