<?xml version="1.0" encoding="utf-8"?>
<!-- Generator: Adobe Illustrator 19.0.0, SVG Export Plug-In . SVG Version: 6.00 Build 0)  -->
<svg version="1.1" id="Calque_1" xmlns="http://www.w3.org/2000/svg" xmlns:xlink="http://www.w3.org/1999/xlink" x="0px" y="0px"
	 viewBox="-177 269 256 256" style="enable-background:new -177 269 256 256;" xml:space="preserve">
<style type="text/css">
	.st0{fill:url(#SVGID_1_);}
	.st1{filter:url(#filter-2);}
	.st2{fill:#FFFFFF;}
</style>
<filter  height="200%" x="-50%" y="-50%" width="200%" filterUnits="objectBoundingBox" id="filter-2">
	<feOffset  dx="2" dy="2" result="shadowOffsetOuter1" in="SourceAlpha"></feOffset>
	<feGaussianBlur  stdDeviation="3.5" result="shadowBlurOuter1" in="shadowOffsetOuter1"></feGaussianBlur>
	
		<feColorMatrix  type="matrix" values="0 0 0 0 0   0 0 0 0 0   0 0 0 0 0  0 0 0 0.185125113 0" result="shadowMatrixOuter1" in="shadowBlurOuter1">
		</feColorMatrix>
	<feMerge>
		<feMergeNode  in="shadowMatrixOuter1"></feMergeNode>
		<feMergeNode  in="SourceGraphic"></feMergeNode>
	</feMerge>
</filter>
<g>
	
		<linearGradient id="SVGID_1_" gradientUnits="userSpaceOnUse" x1="-352.4368" y1="792.2401" x2="-353.345" y2="792.77" gradientTransform="matrix(256 0 0 -256 90270 203266)">
		<stop  offset="0" style="stop-color:#2697D4"/>
		<stop  offset="0.5" style="stop-color:#207BCB"/>
		<stop  offset="1" style="stop-color:#2285CE"/>
	</linearGradient>
	<path class="st0" d="M-133.3,269H35.3c24.2,0,43.8,19.6,43.8,43.8v168.5c0,24.2-19.6,43.8-43.8,43.8h-168.5
		c-24.2,0-43.8-19.6-43.8-43.8V312.8C-177,288.6-157.4,269-133.3,269z"/>
	<g class="st1">
		<path class="st2" d="M-37.3,380c-12.9-4.8-20-8.5-20-14.3c0-5,4.1-7.8,11.3-7.8c13.3,0,26.9,5.1,36.3,9.7l5.3-32.8
			c-7.4-3.5-22.7-9.4-43.7-9.4c-14.9,0-27.3,3.9-36.1,11.2c-9.2,7.6-14,18.6-14,31.9c0,24.1,14.7,34.4,38.6,43
			c15.4,5.5,20.5,9.4,20.5,15.4c0,5.8-5,9.2-14,9.2c-11.2,0-29.6-5.5-41.6-12.6l-5.3,33.1c10.3,5.8,29.4,11.9,49.2,11.9
			c15.8,0,28.9-3.7,37.7-10.8C-3.1,449.9,2,438.4,2,423.6C2,398.9-13.1,388.7-37.3,380L-37.3,380z"/>
	</g>
</g>
</svg>
