<?xml version="1.0" encoding="utf-8"?>
<!-- Generator: Adobe Illustrator 19.0.0, SVG Export Plug-In . SVG Version: 6.00 Build 0)  -->
<svg version="1.1" id="Calque_1" xmlns="http://www.w3.org/2000/svg" xmlns:xlink="http://www.w3.org/1999/xlink" x="0px" y="0px"
	 viewBox="-94 186 422 422" style="enable-background:new -94 186 422 422;" xml:space="preserve">
<style type="text/css">
	.st0{fill:#D4E1F4;}
	.st1{fill:#1AE5BE;}
	.st2{fill:#0023FF;}
	.st3{fill:#6978A8;}
</style>
<g>
	<path class="st0" d="M269.8,339.5c-1.5-4.6-5.9-7.7-10.7-7.6H-65.6c-6.2,0-11.1,4.6-11.1,10.8v6.5h318.5c4.8-0.1,9.2,3,10.7,7.6
		l41.2,127.3h2.5c8.3-0.1,15.2-6.6,15.6-14.9L269.8,339.5z"/>
	<path class="st1" d="M238.1,413.6v-36.3c0-6.2,4.9-10.8,11.1-10.8H283v-12.1h-33.8c-12.7-0.2-23,9.9-23.2,22.6c0,0.1,0,0.2,0,0.3
		v36.3c0,12.9,10.4,23.8,23.2,23.8h57.2v-12.1h-57.2C243,425.3,238.1,419.8,238.1,413.6z"/>
	<rect x="85.9" y="386.4" class="st1" width="12.1" height="102"/>
	<path class="st1" d="M20.2,395.1c0-8.1-6.6-14.7-14.7-14.7h-53.6c-8.1,0-14.7,6.6-14.7,14.7v33.7c0,8.1,6.6,14.7,14.7,14.7H5.5
		c8.1,0,14.7-6.6,14.7-14.7V395.1z M8.1,428.8c0,1.4-1.2,2.6-2.6,2.6h-53.6c-1.4,0-2.6-1.2-2.6-2.6v-33.7c0-1.4,1.2-2.6,2.6-2.6l0,0
		H5.5c1.4,0,2.6,1.2,2.6,2.6l0,0V428.8z"/>
	<path class="st1" d="M202.6,395.1c0-8.1-6.6-14.7-14.7-14.7h-19c-8.1,0-14.7,6.6-14.7,14.7v33.7c0,8.1,6.6,14.7,14.7,14.7h19
		c8.1,0,14.7-6.6,14.7-14.7V395.1z M190.5,428.8c0,1.4-1.2,2.6-2.6,2.6h-19c-1.4,0-2.6-1.2-2.6-2.6v-33.7c0-1.4,1.2-2.6,2.6-2.6l0,0
		h19c1.4,0,2.6,1.2,2.6,2.6l0,0V428.8z"/>
	<path class="st1" d="M120.8,320.1l-39.3-21.4l60.9-31.9c3-1.6,4.1-5.2,2.6-8.2s-5.2-4.1-8.2-2.6l-70.9,37.2c-3,1.6-4.1,5.2-2.5,8.2
		c0.6,1.1,1.4,1.9,2.5,2.5l49.3,26.8c2.9,1.6,6.6,0.5,8.2-2.4C124.8,325.4,123.7,321.7,120.8,320.1L120.8,320.1z"/>
	<path class="st1" d="M21.9,483.7c-3.3,0-6.1,2.7-6.1,6.1c0,13.4-10.8,24.2-24.2,24.2s-24.2-10.8-24.2-24.2c0-3.3-2.7-6.1-6.1-6.1
		s-6.1,2.7-6.1,6.1c0,20.1,16.3,36.3,36.3,36.3s36.3-16.3,36.3-36.3C27.9,486.4,25.2,483.7,21.9,483.7z"/>
	<path class="st1" d="M105.5,483.7c-3.3,0-6.1,2.7-6.1,6.1c0,13.4-10.8,24.2-24.2,24.2S51,503.1,51,489.7c0-3.3-2.7-6.1-6.1-6.1
		c-3.3,0-6.1,2.7-6.1,6.1c0,20.1,16.3,36.3,36.3,36.3s36.3-16.3,36.3-36.3C111.5,486.4,108.8,483.7,105.5,483.7z"/>
	<path class="st1" d="M189.1,483.7c-3.3,0-6.1,2.7-6.1,6.1c0,13.4-10.8,24.2-24.2,24.2s-24.2-10.8-24.2-24.2c0-3.3-2.7-6.1-6.1-6.1
		s-6.1,2.7-6.1,6.1c0,20.1,16.3,36.3,36.3,36.3s36.3-16.3,36.3-36.3C195.1,486.4,192.4,483.7,189.1,483.7z"/>
	<path class="st1" d="M272.6,483.7c-3.3,0-6.1,2.7-6.1,6.1c0,13.4-10.8,24.2-24.2,24.2s-24.2-10.8-24.2-24.2c0-3.3-2.7-6.1-6.1-6.1
		c-3.3,0-6.1,2.7-6.1,6.1c0,20.1,16.3,36.3,36.3,36.3s36.3-16.3,36.3-36.3C278.7,486.4,276,483.7,272.6,483.7z"/>
	<path class="st2" d="M238.1,413.6v-36.3c0-6.2,4.9-10.8,11.1-10.8H283v-12.1h-33.8c-12.7-0.2-23,9.9-23.2,22.6c0,0.1,0,0.2,0,0.3
		v36.3c0,12.9,10.4,23.8,23.2,23.8h57.2v-12.1h-57.2C243,425.3,238.1,419.8,238.1,413.6z"/>
	<rect x="85.9" y="386.4" class="st2" width="12.1" height="102"/>
	<path class="st2" d="M20.2,395.1c0-8.1-6.6-14.7-14.7-14.7h-53.6c-8.1,0-14.7,6.6-14.7,14.7v33.7c0,8.1,6.6,14.7,14.7,14.7H5.5
		c8.1,0,14.7-6.6,14.7-14.7V395.1z M8.1,428.8c0,1.4-1.2,2.6-2.6,2.6h-53.6c-1.4,0-2.6-1.2-2.6-2.6v-33.7c0-1.4,1.2-2.6,2.6-2.6l0,0
		H5.5c1.4,0,2.6,1.2,2.6,2.6l0,0V428.8z"/>
	<path class="st2" d="M202.6,395.1c0-8.1-6.6-14.7-14.7-14.7h-19c-8.1,0-14.7,6.6-14.7,14.7v33.7c0,8.1,6.6,14.7,14.7,14.7h19
		c8.1,0,14.7-6.6,14.7-14.7V395.1z M190.5,428.8c0,1.4-1.2,2.6-2.6,2.6h-19c-1.4,0-2.6-1.2-2.6-2.6v-33.7c0-1.4,1.2-2.6,2.6-2.6l0,0
		h19c1.4,0,2.6,1.2,2.6,2.6l0,0V428.8z"/>
	<path class="st2" d="M120.8,320.1l-39.3-21.4l60.9-31.9c3-1.6,4.1-5.2,2.6-8.2s-5.2-4.1-8.2-2.6l-70.9,37.2c-3,1.6-4.1,5.2-2.5,8.2
		c0.6,1.1,1.4,1.9,2.5,2.5l49.3,26.8c2.9,1.6,6.6,0.5,8.2-2.4C124.8,325.4,123.7,321.7,120.8,320.1L120.8,320.1z"/>
	<path class="st2" d="M21.9,483.7c-3.3,0-6.1,2.7-6.1,6.1c0,13.4-10.8,24.2-24.2,24.2s-24.2-10.8-24.2-24.2c0-3.3-2.7-6.1-6.1-6.1
		s-6.1,2.7-6.1,6.1c0,20.1,16.3,36.3,36.3,36.3s36.3-16.3,36.3-36.3C27.9,486.4,25.2,483.7,21.9,483.7z"/>
	<path class="st2" d="M105.5,483.7c-3.3,0-6.1,2.7-6.1,6.1c0,13.4-10.8,24.2-24.2,24.2S51,503.1,51,489.7c0-3.3-2.7-6.1-6.1-6.1
		c-3.3,0-6.1,2.7-6.1,6.1c0,20.1,16.3,36.3,36.3,36.3s36.3-16.3,36.3-36.3C111.5,486.4,108.8,483.7,105.5,483.7z"/>
	<path class="st2" d="M189.1,483.7c-3.3,0-6.1,2.7-6.1,6.1c0,13.4-10.8,24.2-24.2,24.2s-24.2-10.8-24.2-24.2c0-3.3-2.7-6.1-6.1-6.1
		s-6.1,2.7-6.1,6.1c0,20.1,16.3,36.3,36.3,36.3s36.3-16.3,36.3-36.3C195.1,486.4,192.4,483.7,189.1,483.7z"/>
	<path class="st2" d="M272.6,483.7c-3.3,0-6.1,2.7-6.1,6.1c0,13.4-10.8,24.2-24.2,24.2s-24.2-10.8-24.2-24.2c0-3.3-2.7-6.1-6.1-6.1
		c-3.3,0-6.1,2.7-6.1,6.1c0,20.1,16.3,36.3,36.3,36.3s36.3-16.3,36.3-36.3C278.7,486.4,276,483.7,272.6,483.7z"/>
	<path class="st3" d="M-65.6,496.2h361.7c15.4-0.1,27.7-12.6,27.7-28c0-0.7-0.1-1.3-0.3-2l-42.3-130.5c-3.1-9.6-12.1-16.1-22.2-16
		H-65.6c-12.7-0.2-23,9.9-23.2,22.6c0,0.1,0,0.2,0,0.3v129.7C-88.8,485.3-78.4,496.2-65.6,496.2z M54.7,484.1v-91.7h74.4v91.7H54.7z
		 M-76.7,342.7c0-6.2,4.9-10.8,11.1-10.8h324.6c4.8-0.1,9.2,3,10.7,7.6l42,129.7c-0.5,8.3-7.3,14.8-15.6,14.9H141.2V386
		c0-3.3-2.7-5.6-6.1-5.6H48.7c-3.3,0-6.1,2.3-6.1,5.6v98.1H-65.6c-6.2,0-11.1-5.5-11.1-11.7V342.7z"/>
	<path class="st3" d="M321.9,526.5H-87.9c-3.3,0-6.1,2.7-6.1,6.1s2.7,6.1,6.1,6.1h409.9c3.3,0,6.1-2.7,6.1-6.1
		S325.3,526.5,321.9,526.5z"/>
	<path class="st3" d="M98,255.8c-3.3,0-6.1,2.7-6.1,6.1s2.7,6.1,6.1,6.1h65.7c3.3,0,6.1-2.7,6.1-6.1s-2.7-6.1-6.1-6.1H98z"/>
</g>
</svg>
