<?xml version="1.0" encoding="utf-8"?>
<!-- Generator: Adobe Illustrator 19.0.0, SVG Export Plug-In . SVG Version: 6.00 Build 0)  -->
<svg version="1.1" id="Calque_1" xmlns="http://www.w3.org/2000/svg" xmlns:xlink="http://www.w3.org/1999/xlink" x="0px" y="0px"
	 viewBox="-94 186 422 422" style="enable-background:new -94 186 422 422;" xml:space="preserve">
<style type="text/css">
	.st0{fill:#D4E1F4;}
	.st1{fill:#0023FF;}
	.st2{fill:#6978A8;}
</style>
<g>
	<path class="st0" d="M-40.2,396.3c0-47.1,19-91.8,53-126c22.1-21.9,49.5-37.6,79.5-45.7v-6.3c-46.5,1.5-89.2,19.9-121.8,52
		c-34.1,34.2-53.1,78.9-53.1,126c0,98.2,81.1,178.1,180.8,178.1c7.1,0,14.2-0.4,21.2-1.2C29.7,562.8-40.2,487.5-40.2,396.3z"/>
	<path class="st1" d="M242.9,239.1c-20.8-0.1-37.8,16.7-37.9,37.5c-0.1,20.8,16.7,37.8,37.5,37.9c20.8,0.1,37.8-16.7,37.9-37.5
		c0-0.1,0-0.1,0-0.2C280.4,256.1,263.6,239.2,242.9,239.1z M242.9,300.6c-13.1,0.1-23.8-10.4-23.9-23.5
		c-0.1-13.1,10.4-23.8,23.5-23.9c13.1-0.1,23.8,10.4,23.9,23.5c0,0.1,0,0.1,0,0.2C266.4,289.9,255.9,300.5,242.9,300.6z"/>
	<path class="st2" d="M74,303.9l-4.1,13.4c65.9,20.3,117.4,72.1,137.3,138.2l13.4-4C199.3,381,144.4,325.7,74,303.9z"/>
	<path class="st2" d="M36.5,322.9c-17.4,41.8-21.6,87.9-12,132.2l13.7-3c-9-41.4-5-84.6,11.3-123.8L36.5,322.9z"/>
	<path class="st2" d="M288.8,353.2l-1.7-6.8l-13.6,3.4l1.7,6.8c14.7,59.5-2.5,122.4-45.5,166.1c0.1-2.5,0.1-5.1,0.1-7.6
		c0-7.4-0.4-14.9-1.1-22.3l-13.9,1.4c0.7,6.9,1,13.9,1,20.9c0,6.3-0.3,14.7-0.9,21c-27.6,22.5-61.4,36-97,38.9
		c-29.9-21.9-53.3-51.3-67.9-85.3l-12.9,5.5C50.5,526,70.6,553.4,96,575.3C2.4,571.1-72.4,493.7-72.4,399.1c0-28.4,6.8-56.3,20-81.5
		c19.9-6.2,40.7-9.4,61.6-9.3c7.4,0,14.9,0.4,22.2,1.2l1.5-13.9c-7.9-0.8-15.8-1.3-23.7-1.3c-17.6,0.1-35,2.5-52,7.1
		c32.7-49.1,87.8-78.7,146.8-78.7c5.1,0,10.3,0.2,15.4,0.7c-25,16.4-46.5,37.7-63.1,62.6l11.7,7.8c17.7-26.6,44.7-51.1,72.4-67
		l-0.5-0.3c16,3.3,31.6,8.9,46.1,16.5l6.2,3.3l6.5-12.4l-6.2-3.3c-92-48.3-205.7-13.9-255.5,77.2l-1.8,3.3
		c-14.3,27.2-21.7,57.4-21.7,88.1c0,105,85.4,190.4,190.4,190.4c3.4,0,6.7-0.1,10-0.3c0.2,0.1,0.4,0.3,0.6,0.4l2-0.6
		c0.1,0,0.1,0,0.2,0.1l0.1-0.1c99-6.6,177.6-89.3,177.6-190C294.4,383.6,292.5,368.2,288.8,353.2z"/>
	<path class="st1" d="M296.9,226.3c-30-29.3-78-29.3-108,0c-13.8,13.5-22.1,31.6-23.4,50.9c-0.7,10.5,0.9,21.1,4.6,31
		c3.9,10.3,9.9,19.6,17.6,27.5l50.1,52.3c2.7,2.8,7.1,2.9,9.9,0.2c0.1-0.1,0.1-0.1,0.2-0.2l50.1-52.3c7.7-7.9,13.7-17.2,17.6-27.5
		c3.7-9.9,5.3-20.4,4.6-31C319,258,310.6,239.9,296.9,226.3z M302.5,303.3c-3.3,8.5-8.3,16.2-14.6,22.7l-45,47l-45-47
		c-6.4-6.5-11.4-14.2-14.6-22.7c-3-8-4.3-16.6-3.8-25.1c1.1-15.8,7.9-30.7,19.3-41.8c24.6-23.9,63.8-23.9,88.4,0
		c11.3,11.1,18.2,26,19.3,41.8C306.9,286.7,305.6,295.3,302.5,303.3L302.5,303.3z"/>
	<path class="st1" d="M218.8,446c-15.1,0-27.4,12.2-27.4,27.4c0,15.1,12.3,27.3,27.4,27.4c1.3,0,2.7-0.1,4-0.3
		c14.9-2.2,25.3-16.1,23.1-31.1C243.9,455.9,232.4,446,218.8,446L218.8,446z M220.7,486.5c-0.6,0.1-1.3,0.1-1.9,0.1
		c-7.4,0-13.4-6-13.4-13.4c0-6.1,4.2-11.5,10.2-13c1-0.3,2.1-0.4,3.2-0.4c7.4,0,13.4,6,13.4,13.4C232.2,480,227.3,485.6,220.7,486.5
		z"/>
	<path class="st1" d="M36.6,445.9c-15.1,0-27.4,12.2-27.4,27.4c0,15.1,12.2,27.4,27.4,27.4S64,488.4,64,473.3c0,0,0,0,0,0
		C63.9,458.2,51.7,445.9,36.6,445.9z M41.2,485.8c-6.9,2.6-14.6-1-17.2-7.9c-2.6-6.9,1-14.6,7.9-17.2c6.9-2.6,14.6,1,17.2,7.9
		c0.5,1.5,0.8,3.1,0.8,4.6C50,478.8,46.5,483.9,41.2,485.8z"/>
	<path class="st1" d="M51.9,280c-15.1,0-27.4,12.2-27.4,27.4c0,15.1,12.2,27.4,27.4,27.4c15.1,0,27.4-12.2,27.4-27.4
		c0-9.7-5.1-18.7-13.5-23.6C61.5,281.3,56.7,280,51.9,280z M65.1,309.5c-1.2,7.3-8.1,12.2-15.3,11c-7.3-1.2-12.2-8.1-11-15.3
		c1.2-7.3,8.1-12.2,15.3-11c6.5,1.1,11.2,6.6,11.2,13.2C65.2,308.1,65.2,308.8,65.1,309.5z"/>
</g>
</svg>
