<?xml version="1.0" encoding="utf-8"?>
<!-- Generator: Adobe Illustrator 19.0.0, SVG Export Plug-In . SVG Version: 6.00 Build 0)  -->
<svg version="1.1" id="OBJECTS" xmlns="http://www.w3.org/2000/svg" xmlns:xlink="http://www.w3.org/1999/xlink" x="0px" y="0px"
	 viewBox="0 0 291.4 268.5" style="enable-background:new 0 0 291.4 268.5;" xml:space="preserve">
<style type="text/css">
	.st0{opacity:0.17;fill:#606060;}
	.st1{fill:url(#SVGID_1_);}
	.st2{opacity:0.4;fill:#8260DE;}
	.st3{fill:url(#SVGID_2_);}
	.st4{fill:url(#SVGID_3_);}
	.st5{fill:url(#SVGID_4_);}
	.st6{fill:url(#SVGID_5_);}
	.st7{fill:url(#SVGID_6_);}
	.st8{fill:url(#SVGID_7_);}
	.st9{fill:url(#SVGID_8_);}
	.st10{fill:url(#SVGID_9_);}
	.st11{opacity:0.79;fill:url(#SVGID_10_);}
	.st12{fill:url(#SVGID_11_);}
	.st13{fill:url(#SVGID_12_);}
	.st14{fill:url(#SVGID_13_);}
	.st15{fill:#0023FF;}
	.st16{fill:url(#SVGID_14_);}
	.st17{fill:#7DCEFF;}
	.st18{fill:#90D8FC;}
	.st19{fill:#FFFFFF;}
	.st20{fill:url(#SVGID_15_);}
	.st21{fill:url(#SVGID_16_);}
	.st22{fill:#B06E53;}
	.st23{fill:#F59B7E;}
	.st24{fill:#787878;}
	.st25{fill:#505050;}
	.st26{fill:#B0B0B0;}
	.st27{fill:url(#SVGID_17_);}
	.st28{fill:url(#SVGID_18_);}
	.st29{fill:url(#SVGID_19_);}
	.st30{fill:url(#SVGID_20_);}
</style>
<g>
	<ellipse class="st0" cx="56.8" cy="235.8" rx="20.6" ry="3.2"/>
	<g>
		<g>
			<linearGradient id="SVGID_1_" gradientUnits="userSpaceOnUse" x1="54.7716" y1="182.6241" x2="54.7716" y2="69.7162">
				<stop  offset="9.422110e-003" style="stop-color:#8339BC"/>
				<stop  offset="1" style="stop-color:#817EF9"/>
			</linearGradient>
			<path class="st1" d="M52.5,109.4c-0.4-3-0.9-6-1.3-8.9c-0.4-2.9-1-5.6-1.5-8.3c-0.9-5.3-2.1-10.2-3.1-14.5
				c-1-4.3-0.7-4.4,0.5-0.1c1.2,4.3,2.6,9.1,3.7,14.5c0.5,2.7,1.2,5.4,1.7,8.3c0.5,2.9,1,5.8,1.5,8.9c1.8,12.2,3.2,25.9,3.8,40.4
				c0.1,2.3,0.2,4.5,0.2,6.8c0.8-0.1,1.6-0.3,2.5-0.4c5.9-1.1,11.1-4.7,15.4-8.9c0.9-0.9,1.8-1.9,2.2-3.1c0.4-1.2,0.2-2.7-0.8-3.5
				c-1.1-0.9-2.7-0.7-3.9,0s-2.1,1.9-3.3,2.5c-2.6,1.2-6,1.1-5.9-1.9c0.1-3.6,1.4-4.3,5.5-5.4c2.7-0.7,5.3-1.6,7.2-3.6
				c1.9-2,3-4.8,2.4-7.5c-0.3-1.4-1.2-2.8-2.7-3.1c-1.9-0.3-3.4,1.5-4.7,2.9c-1.6,1.8-3.6,3.2-5.8,4.1c-1.5,0.7-3.3,1.1-4.7,0.3
				c-0.9-0.5-1.5-1.4-1.8-2.4c-1-2.8,0-6.2,2.4-8c2-1.5,4.6-1.9,6.9-2.6c2.5-0.7,5-2,6.5-4.1c1.6-2.1,2-5.1,0.6-7.3
				c-0.3-0.5-0.8-1-1.3-1.2c-2-0.9-3.9,1.3-5.7,2.7c-2.6,2.1-6.3,2.7-9.4,1.4c-0.9-0.4-1.9-1.1-2-2.1c-0.1-1.2,1.1-2,2.1-2.6
				c2.1-1.2,6.6-4,8-6c1.4-2,1.9-4.9,0.5-6.9c-0.3-0.4-0.7-0.8-1.1-1c-2.5-1.1-8,6.6-10.6,5.8c-2-0.6-2.3-3.2-2.4-5.2
				c-0.3-6.9-1.6-16.1-5-22.1c-1.1-2-3.2-4.1-5.3-3.3c-1.2,0.5-1.8,1.8-2.2,3.1c-2.2,8.3,3.1,16.7,3.8,25.3c0.2,2.2-0.5,5-2.6,5.3
				c-0.9,0.1-1.9-0.3-2.6-0.8c-2.5-1.9-3.8-5.3-6.7-6.5c-0.4-0.2-0.9-0.3-1.3-0.2c-0.4,0.1-0.8,0.5-1,0.8c-2,2.7-1.1,6.7,0.9,9.4
				c2.1,2.7,5,4.4,7.6,6.6c2,1.6,3.8,3.5,5.3,5.6c1,1.3,1.8,3.3,0.6,4.4c-0.8,0.8-2.1,0.6-3.2,0.2c-1.2-0.5-2.4-1.2-3.3-2.1
				c-0.8-0.7-1.4-1.6-2.4-2c-1.8-0.8-4,0.4-4.7,2.2c-0.7,1.8,0,3.9,1.2,5.4c1.3,1.5,3.1,2.4,4.9,3c1.6,0.6,3.3,1,4.8,1.8
				c1.5,0.8,2.9,2.1,3.3,3.7c0.4,1.7-0.5,3.7-2.2,4c-2.9,0.7-5.5-3.4-8.2-2.2c-0.6,0.3-1,0.8-1.3,1.3c-1.1,2-0.4,4.6,1,6.4
				s3.5,3,5.7,3.7c3.8,1.4,6.9,0,7.6,1.9c1.5,3.9-3,4.5-5.9,4.2c-4.9-0.6-7.7,0-7.4,3.2c0.3,2.8,7.3,6.6,20.7,5
				c-0.1-2.3-0.2-4.6-0.2-6.9C55.4,135.3,54.1,121.6,52.5,109.4z"/>
		</g>
		<path class="st2" d="M58,156.3c-0.1-2.2-0.1-4.5-0.2-6.8c-0.6-14.5-2-28.1-3.8-40.4c-0.5-3.1-1-6-1.5-8.9
			c-0.5-2.9-1.2-5.6-1.7-8.3c-1-5.3-2.5-10.1-3.7-14.5c-1.2-4.3-1.5-4.2-0.5,0.1c1,4.4,2.2,9.2,3.1,14.5c0.5,2.7,1.1,5.4,1.5,8.3
			c0.4,2.9,0.8,5.8,1.3,8.9c1.6,12.2,2.8,25.9,3.5,40.3c0.1,2.3,0.2,4.6,0.2,6.9c0.5,15.5,0.4,30.1,0,42.7h1.3
			C58.2,186.6,58.5,172,58,156.3z"/>
	</g>
	<linearGradient id="SVGID_2_" gradientUnits="userSpaceOnUse" x1="57.0572" y1="254.3696" x2="57.0572" y2="191.0739">
		<stop  offset="3.091980e-003" style="stop-color:#0023FF"/>
		<stop  offset="1" style="stop-color:#817EF9"/>
	</linearGradient>
	<polygon class="st3" points="68.6,235.2 45.5,235.2 41.6,180.1 72.5,180.1 	"/>
</g>
<g>
	<ellipse class="st0" cx="181.4" cy="241.9" rx="78.8" ry="7.1"/>
	<g>
		<linearGradient id="SVGID_3_" gradientUnits="userSpaceOnUse" x1="170.651" y1="211.0956" x2="182.3571" y2="211.0956">
			<stop  offset="0.1247" style="stop-color:#ABDCFF"/>
			<stop  offset="0.9976" style="stop-color:#EAEFFF"/>
		</linearGradient>
		<rect x="170.7" y="182.4" class="st4" width="11.7" height="57.4"/>
		<linearGradient id="SVGID_4_" gradientUnits="userSpaceOnUse" x1="155.9552" y1="240.6811" x2="197.0528" y2="240.6811">
			<stop  offset="0.1247" style="stop-color:#ABDCFF"/>
			<stop  offset="0.9976" style="stop-color:#EAEFFF"/>
		</linearGradient>
		<path class="st5" d="M156.8,239.8h39.4c0.5,0,0.8,0.4,0.8,0.8v0.1c0,0.5-0.4,0.8-0.8,0.8h-39.4c-0.5,0-0.8-0.4-0.8-0.8v-0.1
			C156,240.2,156.3,239.8,156.8,239.8z"/>
		<linearGradient id="SVGID_5_" gradientUnits="userSpaceOnUse" x1="138.227" y1="148.4921" x2="214.7812" y2="148.4921">
			<stop  offset="0.1247" style="stop-color:#ABDCFF"/>
			<stop  offset="0.9976" style="stop-color:#EAEFFF"/>
		</linearGradient>
		<path class="st6" d="M176.8,102.2c22.8,0,42.7,68.8,37.1,80.1c-8.2,16.4-68.8,17.4-74.7-1.6C134.7,166.4,146.2,102.2,176.8,102.2z
			"/>
	</g>
	<g>
		<g>
			
				<linearGradient id="SVGID_6_" gradientUnits="userSpaceOnUse" x1="233.9464" y1="150.0551" x2="230.7432" y2="150.0551" gradientTransform="matrix(-1 0 0 1 362.1829 0)">
				<stop  offset="3.091980e-003" style="stop-color:#0023FF"/>
				<stop  offset="1" style="stop-color:#817EF9"/>
			</linearGradient>
			<path class="st7" d="M126.2,154.7h2.7c1,0,1.8-0.7,1.9-1.7l0.7-5.4c0.1-0.6-0.1-1.1-0.5-1.5c-0.4-0.4-0.9-0.7-1.5-0.7h-2.4v0.8
				h2.4c0.3,0,0.7,0.1,0.9,0.4c0.2,0.3,0.3,0.6,0.3,0.9l-0.7,5.4c-0.1,0.6-0.6,1-1.2,1h-2.7V154.7z"/>
		</g>
		
			<linearGradient id="SVGID_7_" gradientUnits="userSpaceOnUse" x1="238.9449" y1="159.7976" x2="238.9449" y2="144.2953" gradientTransform="matrix(-1 0 0 1 362.1829 0)">
			<stop  offset="3.091980e-003" style="stop-color:#0023FF"/>
			<stop  offset="1" style="stop-color:#817EF9"/>
		</linearGradient>
		<polygon class="st8" points="127.2,157.6 128.8,142.9 117.7,142.9 119.3,157.6 		"/>
		
			<linearGradient id="SVGID_8_" gradientUnits="userSpaceOnUse" x1="233.5206" y1="142.8716" x2="244.3692" y2="142.8716" gradientTransform="matrix(-1 0 0 1 362.1829 0)">
			<stop  offset="8.379880e-002" style="stop-color:#643936"/>
			<stop  offset="0.1687" style="stop-color:#6B3E3A"/>
			<stop  offset="0.6272" style="stop-color:#8F544C"/>
			<stop  offset="0.8721" style="stop-color:#9D5C53"/>
		</linearGradient>
		<ellipse class="st9" cx="123.2" cy="142.9" rx="5.4" ry="1.1"/>
		<g>
			
				<linearGradient id="SVGID_9_" gradientUnits="userSpaceOnUse" x1="238.9449" y1="143.7741" x2="238.9449" y2="138.6976" gradientTransform="matrix(-1 0 0 1 362.1829 0)">
				<stop  offset="0.1047" style="stop-color:#C7F4F1"/>
				<stop  offset="0.4293" style="stop-color:#E2F9F8"/>
				<stop  offset="0.7593" style="stop-color:#F7FDFD"/>
				<stop  offset="0.9762" style="stop-color:#FFFFFF"/>
			</linearGradient>
			<path class="st10" d="M117.7,142.9c0-0.8,2.8-1.3,5.5-1.3s5.5,0.4,5.5,1.3c0,0.8-2.8,1.3-5.5,1.3S117.7,143.7,117.7,142.9z
				 M117.9,142.9c0,0.5,2.2,1,5.3,1c3.1,0,5.3-0.5,5.3-1c0-0.5-2.2-1-5.3-1C120.1,141.8,117.9,142.4,117.9,142.9z"/>
		</g>
		
			<linearGradient id="SVGID_10_" gradientUnits="userSpaceOnUse" x1="235.1222" y1="142.8987" x2="242.3791" y2="142.8987" gradientTransform="matrix(-1 0 0 1 362.1829 0)">
			<stop  offset="0" style="stop-color:#FFEEBB"/>
			<stop  offset="4.737506e-002" style="stop-color:#FFEFC0"/>
			<stop  offset="0.4405" style="stop-color:#FFF8E2"/>
			<stop  offset="0.7641" style="stop-color:#FFFDF7"/>
			<stop  offset="0.9762" style="stop-color:#FFFFFF"/>
		</linearGradient>
		<path class="st11" d="M119.9,142.9c0.1-0.1,0.1-0.1,0.1-0.1c0,0,0.1,0,0.1,0c0.1,0,0.2,0,0.3,0c0.2,0,0.4,0,0.5,0c0.3,0,0.7,0,1,0
			c0.6,0,1.2,0,1.7,0c0.5,0,0.5,0.1,0,0.1c-0.5,0-1.1,0.1-1.7,0.1c-0.3,0-0.6,0-1,0c-0.1,0-0.2,0-0.2,0c0.2,0,0.3,0,0.5,0
			c0.4,0,0.7,0,1.1,0c0.4,0,0.8,0,1.2,0c0.4,0,0.8,0,1.2,0c0.4,0,0.7,0,1.1,0c0.2,0,0.3,0,0.5-0.1c0.1,0,0.2,0,0.2,0c0,0,0,0,0,0
			l0,0c0,0,0,0,0,0c0,0,0,0,0,0c0,0,0,0,0,0c0,0-0.1,0-0.1,0c-0.1,0-0.1,0-0.2,0c-0.3,0-0.6-0.1-0.9-0.1c-0.6,0-1.1-0.1-1.7-0.1
			c-1.1,0-2,0-2.8-0.1c-0.5,0-0.5-0.1,0-0.1c0.8-0.1,1.8-0.1,2.8-0.1c0.5,0,1.1,0,1.7,0c0.3,0,0.6,0,0.9,0.1c0.1,0,0.2,0,0.2,0
			c0,0,0.1,0,0.1,0c0,0,0,0,0.1,0c0,0,0.1,0,0.1,0c0.1,0.1,0.2,0.2,0.3,0.3c0,0.1,0,0.1,0,0.2c0,0.1,0,0.1-0.1,0.1
			c-0.1,0.1-0.3,0.1-0.4,0.2c-0.1,0-0.2,0-0.3,0.1c-0.2,0-0.4,0-0.5,0.1c-0.4,0-0.7,0-1.1,0c-0.4,0-0.8,0-1.2,0c-0.4,0-0.8,0-1.2,0
			c-0.4,0-0.8,0-1.2-0.1c-0.4,0-0.8-0.1-1.1-0.2c0,0-0.1,0-0.1-0.1c0,0-0.1,0-0.1-0.1C119.8,143,119.8,142.9,119.9,142.9z"/>
		<g>
			<linearGradient id="SVGID_11_" gradientUnits="userSpaceOnUse" x1="123.8969" y1="143.8019" x2="114.7076" y2="120.0877">
				<stop  offset="0" style="stop-color:#FFEEBB"/>
				<stop  offset="4.423080e-002" style="stop-color:#FFEEC0"/>
				<stop  offset="0.2557" style="stop-color:#FFF5D8"/>
				<stop  offset="0.5071" style="stop-color:#FFFAEE"/>
				<stop  offset="0.7508" style="stop-color:#FFFEFB"/>
				<stop  offset="0.9762" style="stop-color:#FFFFFF"/>
			</linearGradient>
			<path class="st12" d="M118.2,133.9c0.6,0.2,1.2,0.2,1.7,0.7c0.4,0.4,0.5,1.3-0.1,1.6c-0.2,0.1-0.4,0.1-0.5,0.2
				c-0.5,0.3-0.2,1.1,0.3,1.4c0.5,0.3,1.1,0.3,1.6,0.4c0.5,0.2,1.1,0.6,0.9,1.2c-0.1,0.3-0.5,0.6-0.4,0.9c0.3,0.8,1.5,0.9,1.2,2.6
				c0,0,1.2-0.6,0.5-1.8c-0.2-0.4,0.6-0.1,0.8-0.2c0.3-0.2,0.2-0.7,0-1c-0.2-0.3-0.5-0.5-0.8-0.8c-0.2-0.3-0.4-0.6-0.3-1
				c0.2-0.5,1-0.5,1.5-0.7c0.7-0.3,1-1.1,1-1.9c0-1.1-0.5-2.4-1.6-2.7c-0.1,0-0.3,0-0.4,0c-0.2,0.1-0.3,0.2-0.4,0.3
				c-0.4,0.4-1.1,0.7-1.5,0.3c-0.3-0.3-0.5-0.8-0.3-1.1c0.6-0.9,1.3-2.3,0.4-3.4c-0.9-1.2-3.4,0.2-3.8-0.9c-0.6-1.9-1.9-3.1-3.3-2.5
				C112.8,126.2,111.1,132,118.2,133.9z"/>
		</g>
	</g>
	<g>
		<linearGradient id="SVGID_12_" gradientUnits="userSpaceOnUse" x1="180.4757" y1="173.0943" x2="219.468" y2="218.0854">
			<stop  offset="3.091980e-003" style="stop-color:#0023FF"/>
			<stop  offset="1" style="stop-color:#817EF9"/>
		</linearGradient>
		<path class="st13" d="M216.3,241.6c0,0-1.5-27.8-13.6-43c-8-10.1-35.8-26.5-35.8-26.5s16.9-4.3,25.5-3.9c0,0,14.6,5.7,23.3,19
			c7.8,12.1,8.1,49.9,8.1,49.9s5.5,1.3,9.5,4.6H216.3z"/>
		<linearGradient id="SVGID_13_" gradientUnits="userSpaceOnUse" x1="179.7249" y1="237.9563" x2="170.7885" y2="170.188">
			<stop  offset="3.091980e-003" style="stop-color:#0023FF"/>
			<stop  offset="1" style="stop-color:#817EF9"/>
		</linearGradient>
		<path class="st14" d="M162.3,239.9c0,0,22.7-41.3,8.3-48.9c-15.1-8-11.3-18.4-11.3-18.4l20.9-4.5c0,0,10.9,15.9,12,26.2
			c1.9,16.5-20,43.1-20,43.1s4.5,0.7,8,4.2H162C162,241.6,161.7,240.7,162.3,239.9z"/>
		<g>
			<path class="st15" d="M161.3,102.2c1.5,1.3,2.4,3.1,2.9,5c0.3,1.1,0.4,2.3,0.7,3.4c0.5,1.6,1.4,3.2,1.2,4.8
				c-0.3,2.7-3.4,4.3-3.9,6.9c-0.2,1.1,0.1,2.2,0.3,3.3c0.4,2.9-0.4,5.8-2.1,8.2c0.6,2.3,1.8,5.3,0.4,7.3c-1.2,1.8-3.5,2.5-4.7,4.3
				c-1.6,2.5-0.2,5.9-0.7,8.8c-0.3,1.9-1.4,3.8-3,4.9c-0.6,0.4-1.3,0.8-2.1,0.8c-0.7,0-1.3-0.2-1.9-0.5c-2.1-1-3.6-3.1-3.8-5.4
				c-0.1-0.7-0.1-1.5-0.3-2.1c-0.8-2.2-3.7-2.8-4.9-4.9c-1.7-3,1.4-6.8,0.6-10.2c-0.8-3.4-5.2-4.9-6.3-8.3c-1-3.3,1.7-6.8,1.1-10.3
				c-0.5-2.6-2.9-4.6-3-7.2c-0.1-1.1,0.3-2.1,0.8-3.1c0.9-1.7,2.3-3.1,4-4c2.9-1.5,2.6-6.7,6.9-7.8c4.3-1.1,6.1,3.2,10.7,3.1
				C158.4,99.3,161.3,102.2,161.3,102.2z"/>
		</g>
		
			<linearGradient id="SVGID_14_" gradientUnits="userSpaceOnUse" x1="576.7189" y1="217.5969" x2="576.7189" y2="172.6256" gradientTransform="matrix(0.9618 -0.2737 0.2737 0.9618 -433.5617 121.6871)">
			<stop  offset="3.091980e-003" style="stop-color:#0023FF"/>
			<stop  offset="1" style="stop-color:#817EF9"/>
		</linearGradient>
		<path class="st16" d="M217.4,155.4l-5.3-0.1c-8.9-12.8-26.8-11.4-26.8-11.4s3,3,2.8,9.6c-0.2,9.8,4.2,14.7,4.2,14.7
			s-16.2,9.1-33.1,4.5c0,0-0.4-6.8-3.1-11.9c-2-3.6-2.1-7.3-2.1-7.3c-11.1,4.8-16.9,4.9-19.3,2.6c-6.3-6,8.6-28,8.6-28l4.4,3.1
			c-1.7,3-4.6,14.4-4.6,14.4s8.1-7.8,12.9-10.4c4.6-2.6,12.2-4.1,15.7-4.6c3.5-0.5,0,0,0,0s18.6-2,31.5,7
			C216.4,146.9,217.4,155.4,217.4,155.4z"/>
		<g>
			<path class="st17" d="M159.4,113.6c0,0-0.8-2.3,1.2-1.9c2,0.4,1.7,4.8,0.3,4.5L159.4,113.6z"/>
		</g>
		<path class="st18" d="M171.7,130.7l-10.9-9.4c0,0-6,2.7-7.6,8.1l2.9,5.9c0,0,3.3,6.9,10.5,3.7
			C172.1,136.5,171.7,130.7,171.7,130.7z"/>
		<g>
			<g>
				<path class="st17" d="M155.2,106.9c0,0,14.5,15.6,5.4,22.8c-9.3,7.5-21.6-9.9-21.6-9.9S143.7,110.9,155.2,106.9z"/>
				<path class="st19" d="M159.3,123.4l-4.5,3.6c0,0-1.5-1.2,0.9-3.3C157.6,122.1,159.3,123.4,159.3,123.4z"/>
				<path class="st18" d="M151.7,118.7c-0.3,0.2,1.5,4.2,1.8,4.2c0.3,0,1.9-1.4,1.9-1.7C155.4,120.9,152,118.5,151.7,118.7z"/>
				<path class="st15" d="M148.1,118.4c0,0-2.4,1.1-2.4,3.4l0,0c0,0,1.2-2.3,3.1-2.9L148.1,118.4z"/>
				<path class="st15" d="M152.1,115.4c0,0,1.3-2.3,3.6-2.1l0,0c0,0-2.4,1-3.1,2.8L152.1,115.4z"/>
			</g>
			<g>
				<path class="st15" d="M143.5,124.9c0.6,0.1,1-0.8,1-1.4c-0.1-0.6-0.5-1.2-0.8-1.7c-0.3-0.5-0.7-1.2-0.5-1.8
					c0.2-0.7,0.8-1.2,1.5-1.5c0.7-0.3,1.4-0.5,1.9-1c0.8-0.7,1-1.8,1-2.8c0-0.3,0-0.6,0.2-0.9c0.2-0.3,0.5-0.4,0.9-0.5
					c1.6-0.4,3.3-0.9,4.5-2.1c0.5-0.5,0.9-1.1,1.5-1.5c0.6-0.4,1.6-0.4,1.9,0.3c0.3,0.4,0.1,1,0.2,1.5c0.1,0.6,0.7,1.1,1.3,1.2
					c0.6,0.1,1.3-0.3,1.5-0.8c0,0,1.2-1.5,0.1-3.2c-1.1-1.7-3.9-3.7-3.9-3.7c-1.7,0.1-14.8,7.1-18,14.5
					C137.7,119.5,140.7,124.4,143.5,124.9z"/>
			</g>
		</g>
		<path class="st17" d="M143.3,128.1c0,0-3.1-2.1-2.3-5.2c0.5-1.7,4.5,3.2,7.3,5.8c0.4,0.4-0.6,2.5-0.6,2.5L143.3,128.1z"/>
		<path class="st17" d="M233.2,241.6c-4.1-3.3-9.5-4.6-9.5-4.6s-0.1-7.6-0.8-17.1h-10.3c3.1,11.5,3.7,21.7,3.7,21.7H233.2z"/>
		<path class="st17" d="M184.2,219.9h-12.9c-3.8,10.7-9,20.1-9,20.1c-0.6,0.8-0.3,1.6-0.3,1.6h18.3c-3.5-3.5-8-4.2-8-4.2
			S178.6,229.6,184.2,219.9z"/>
		<linearGradient id="SVGID_15_" gradientUnits="userSpaceOnUse" x1="215.9345" y1="239.5965" x2="233.2434" y2="239.5965">
			<stop  offset="3.091980e-003" style="stop-color:#0023FF"/>
			<stop  offset="1" style="stop-color:#817EF9"/>
		</linearGradient>
		<path class="st20" d="M233.2,241.6c-2.4-2-5.4-3.3-7.4-4c0,0-1.5,1.7-4.9,1.6c-3.3-0.1-5-1.6-5-1.6h0c0.3,2.5,0.4,4,0.4,4H233.2z"
			/>
		<linearGradient id="SVGID_16_" gradientUnits="userSpaceOnUse" x1="161.8987" y1="238.9035" x2="180.2318" y2="238.9035">
			<stop  offset="3.091980e-003" style="stop-color:#0023FF"/>
			<stop  offset="1" style="stop-color:#817EF9"/>
		</linearGradient>
		<path class="st21" d="M168,239c-3.6-0.8-3.8-2.7-3.8-2.7l-0.1,0c-1.2,2.3-1.9,3.7-1.9,3.7c-0.6,0.8-0.3,1.6-0.3,1.6h18.3
			c-2.1-2.2-4.7-3.3-6.3-3.8l-0.2,0.1C173.7,237.9,171.6,239.8,168,239z"/>
	</g>
	<rect x="113.6" y="157.6" class="st22" width="135.1" height="4.6"/>
	<g>
		<polygon class="st23" points="116.1,241.6 112.6,241.6 119,162.2 122.5,162.2 		"/>
		<polygon class="st23" points="246.2,241.6 249.6,241.6 243.2,162.2 239.8,162.2 		"/>
	</g>
	<g>
		<path class="st24" d="M215.6,155.4h-21.4c-1.1,0-2,0.9-2,2v0.2h23.4V155.4z"/>
		<polygon class="st25" points="239.8,136.5 213.3,136.5 209.3,157.6 235.8,157.6 		"/>
		<polygon class="st26" points="213.3,136.5 212.3,137.4 208.5,157.6 209.3,157.6 		"/>
		
			<ellipse transform="matrix(0.575 0.8181 -0.8181 0.575 215.7207 -121.2459)" class="st26" cx="224.6" cy="147" rx="2.1" ry="2.4"/>
	</g>
</g>
<g>
	<g>
		<g>
			<linearGradient id="SVGID_17_" gradientUnits="userSpaceOnUse" x1="54.613" y1="-69.3828" x2="54.613" y2="57.3484">
				<stop  offset="0" style="stop-color:#FFD125"/>
				<stop  offset="1" style="stop-color:#FFF576"/>
			</linearGradient>
			<rect x="54.1" y="-59.2" class="st27" width="1" height="101.2"/>
		</g>
		<linearGradient id="SVGID_18_" gradientUnits="userSpaceOnUse" x1="54.613" y1="26.2229" x2="54.613" y2="52.4358">
			<stop  offset="0" style="stop-color:#FFD125"/>
			<stop  offset="1" style="stop-color:#FFF576"/>
		</linearGradient>
		<path class="st28" d="M68,50.6c0-7.4-6-13.3-13.3-13.3c-7.4,0-13.3,6-13.3,13.3H68z"/>
	</g>
	<g>
		<g>
			<linearGradient id="SVGID_19_" gradientUnits="userSpaceOnUse" x1="242.2796" y1="-69.3828" x2="242.2796" y2="57.3484">
				<stop  offset="0" style="stop-color:#FFD125"/>
				<stop  offset="1" style="stop-color:#FFF576"/>
			</linearGradient>
			<rect x="241.8" y="-59.2" class="st29" width="1" height="101.2"/>
		</g>
		<linearGradient id="SVGID_20_" gradientUnits="userSpaceOnUse" x1="242.2797" y1="26.2229" x2="242.2797" y2="52.4358">
			<stop  offset="0" style="stop-color:#FFD125"/>
			<stop  offset="1" style="stop-color:#FFF576"/>
		</linearGradient>
		<path class="st30" d="M255.6,50.6c0-7.4-6-13.3-13.3-13.3c-7.4,0-13.3,6-13.3,13.3H255.6z"/>
	</g>
</g>
<g>
	<g>
		
			<rect x="155" y="115.4" transform="matrix(0.9693 0.2459 -0.2459 0.9693 33.4365 -34.549)" class="st15" width="0.2" height="2.5"/>
	</g>
	<g>
		
			<rect x="153.8" y="116.5" transform="matrix(0.9693 0.2459 -0.2459 0.9693 33.4365 -34.549)" class="st15" width="2.5" height="0.2"/>
	</g>
</g>
<g>
	<g>
		
			<rect x="148.6" y="120.1" transform="matrix(0.9693 0.2459 -0.2459 0.9693 34.392 -32.8362)" class="st15" width="0.2" height="2.5"/>
	</g>
	<g>
		
			<rect x="147.4" y="121.2" transform="matrix(0.9693 0.2459 -0.2459 0.9693 34.392 -32.8362)" class="st15" width="2.5" height="0.2"/>
	</g>
</g>
</svg>
