<?xml version="1.0" encoding="utf-8"?>
<!-- Generator: Adobe Illustrator 19.0.0, SVG Export Plug-In . SVG Version: 6.00 Build 0)  -->
<svg version="1.1" id="Layer_1" xmlns="http://www.w3.org/2000/svg" xmlns:xlink="http://www.w3.org/1999/xlink" x="0px" y="0px"
	 viewBox="-49 141 512 512" style="enable-background:new -49 141 512 512;" xml:space="preserve">
<g>
	<g>
		<g>
			<path d="M376,491.3V302.7l-169-93.9L38,302.7v188.6l169,93.9L376,491.3z M64,476V318l143-79.4l143,79.5v158l-143,79.3L64,476z"/>
		</g>
	</g>
	<g>
		<g>
			<path d="M298,397c0-50.2-40.8-91-91-91s-91,40.8-91,91s40.8,91,91,91S298,447.2,298,397z M142,397c0-35.9,29.2-65,65-65
				s65,29.2,65,65s-29.2,65-65,65S142,432.9,142,397z"/>
		</g>
	</g>
</g>
</svg>
