<svg id="Capa_1" enable-background="new 0 0 511.961 511.961" height="512" viewBox="0 0 511.961 511.961" width="512" xmlns="http://www.w3.org/2000/svg"><g><g><path d="m205.84 201.937c-8.46 0-15.341 6.882-15.341 15.341v37.722c0 8.459 6.882 15.341 15.341 15.341h108.783c8.459 0 15.341-6.882 15.341-15.341v-37.722c0-8.459-6.882-15.341-15.341-15.341m-109.124 15.342c0-.188.153-.341.341-.341h108.783c.188 0 .341.153.341.341v37.722c0 .188-.153.341-.341.341h-108.783c-.188 0-.341-.153-.341-.341z"/></g><path d="m509.94 429.044c-3.069-17.827-8.513-33.331-8.743-33.982-.133-.376-.305-.734-.494-1.082.121-23.177-.525-224.172-58.014-282.249-24.331-24.58-56.397-41.157-95.308-49.27-18.866-3.934-37.158-5.454-53.145-5.999-2.119-.023-4.062-.043-5.866-.063-.543-17.402-14.859-31.394-32.39-31.394-17.491 0-31.781 13.926-32.388 31.272-40.405.739-97.601 6.779-143.184 44.42-3.194 2.638-3.645 7.365-1.008 10.559 2.638 3.193 7.364 3.645 10.559 1.008 27.005-22.301 58.983-32.586 88.572-37.272-11.703 8.464-23.093 20.69-33.032 38.335-12.105 21.489-27.379 77.165-31.769 220.177-29.143 10.376-62.17 25.602-88.307 47.06.7-47.029 6.09-190.745 45.25-248.052 2.337-3.42 1.459-8.087-1.961-10.424-3.421-2.337-8.087-1.459-10.424 1.961-49.543 72.502-48.042 263.716-47.954 271.821.001.126.015.249.023.374-1.35 4.004-5.711 17.547-8.337 32.8-4.459 25.904-1.529 43.427 8.71 52.082 11.099 9.381 28.16 7.457 52.163-5.88 12.157-6.754 23.276-13.134 33.087-18.763 57.241-32.839 85.972-49.323 160-49.323 74.027 0 102.759 16.483 159.999 49.323 9.811 5.628 20.931 12.008 33.087 18.763 14.064 7.814 25.745 11.71 35.239 11.71 6.71 0 12.329-1.946 16.924-5.83 10.24-8.656 13.17-26.179 8.711-52.082zm-253.96-389.039c9.205 0 16.765 7.18 17.375 16.234-12.12-.121-10.842-.057-34.746-.043.633-9.033 8.18-16.191 17.371-16.191zm-97.411 80.683c24.703-43.854 58.918-49.115 81.984-49.479 2.063.016 27.912.015 29.999 0 23.062.373 57.229 5.678 81.902 49.48 9.368 16.631 16.836 49.246 22.197 96.938.463 4.117 4.188 7.077 8.291 6.615 4.116-.463 7.078-4.175 6.615-8.291-5.587-49.702-13.674-84.229-24.035-102.623-9.966-17.693-21.39-29.939-33.126-38.406 33.731 5.298 70.452 17.884 99.632 47.363 22.583 22.814 39.045 77.044 47.606 156.829 4.446 41.436 5.649 79.949 5.961 100.679-26.272-21.285-59.289-36.364-88.313-46.623-.998-32.229-2.664-62.167-4.96-89.058-.353-4.127-3.993-7.189-8.11-6.834-4.127.352-7.188 3.983-6.835 8.11 2.141 25.08 3.729 52.863 4.733 82.717-2.329-.733-4.618-1.435-6.853-2.102-49.401-14.74-95.129-19.971-119.276-19.971s-69.876 5.228-119.277 19.968c-2.539.758-5.146 1.56-7.804 2.403 3.547-106.381 14.035-179.96 29.669-207.715zm332.975 348.983c-5.533 4.675-18.031 1.997-35.192-7.538-12.066-6.704-23.139-13.057-32.908-18.661-59.549-34.164-89.438-51.312-167.463-51.312s-107.915 17.148-167.464 51.312c-9.769 5.604-20.842 11.957-32.908 18.661-17.161 9.536-29.658 12.212-35.192 7.538-10.427-8.808-4.092-44.49 3.938-68.021 57.721-56.95 179.046-80.62 231.626-80.62 52.579 0 173.904 23.67 231.625 80.62 8.031 23.533 14.365 59.213 3.938 68.021z"/></g></svg>