<svg id="Layer_1" height="512" viewBox="0 0 512 512" width="512" xmlns="http://www.w3.org/2000/svg" data-name="Layer 1"><path d="m387.58 309.36c0-.053-.011-.107-.018-.16a132.849 132.849 0 0 0 -38.257-77.43l-7.041-40.207a58.566 58.566 0 0 0 24.381-65.589c-7.8-26.474-13.415-48.022-17.658-67.811l-9.49-44.28a6 6 0 0 0 -5.731-4.741l-27.716-.172c-8.7 0-17.454 2.9-26.007 8.623a44.144 44.144 0 0 1 -49.247 0c-8.552-5.721-17.3-8.623-26.016-8.623l-26.546.172a6 6 0 0 0 -5.731 4.741l-9.49 44.279c-4.243 19.79-9.855 41.338-17.657 67.809a58.566 58.566 0 0 0 24.38 65.593l-7.036 40.207a132.907 132.907 0 0 0 -38.262 77.429l-.018.162-18.84 187.4a6 6 0 0 0 5.97 6.6h288.9a6 6 0 0 0 5.97-6.6zm-163.456-281.793a56.2 56.2 0 0 0 31.3 9.539 56.2 56.2 0 0 0 31.3-9.539c6.276-4.204 12.522-6.395 18.576-6.567l-.372 9.638c-12.353.327-23.664 6-31.949 16.091a55.8 55.8 0 0 0 -11.946 29.261h-11.226a55.8 55.8 0 0 0 -11.946-29.258c-8.026-9.772-18.888-15.415-30.789-16.058l-.37-9.62c5.692.404 11.542 2.579 17.422 6.513zm80.339 15.092-.758 19.768a14.073 14.073 0 0 1 -14.105 13.563h-16.474c2.283-16.518 13.797-32.421 31.337-33.331zm-66.75 33.331h-15.313a14.071 14.071 0 0 1 -14.1-13.561l-.759-19.68c16.879 1.541 27.937 17.09 30.172 33.241zm-80.848 53.376c7.891-26.77 13.573-48.6 17.882-68.689l8.5-39.646 11.438-.259 1.623 42.122a26.037 26.037 0 0 0 26.1 25.1h67.2a26.039 26.039 0 0 0 26.1-25.1l1.623-42.118 11.437.259 8.5 39.647c4.309 20.092 9.991 41.918 17.882 68.691a46.472 46.472 0 0 1 -22.346 53.872 44.808 44.808 0 0 1 -20.354 5.321 52.805 52.805 0 0 1 -12.165-1.128 209.757 209.757 0 0 0 -43.86-4.9h-.82a209.773 209.773 0 0 0 -43.861 4.9 51.765 51.765 0 0 1 -10.849 1.146c-.438 0-.876-.009-1.345-.018a44.787 44.787 0 0 1 -20.329-5.324 46.473 46.473 0 0 1 -22.356-53.876zm16.189 361.994h-54.87l18.168-180.717a120.857 120.857 0 0 1 34.365-69.89c8.712 1.9 17.563 3.527 26.437 4.851-7.783 18.546-12.709 40.473-14.325 64.034zm76.946 0h-64.928l9.734-180.989c1.612-23.483 6.685-45.2 14.714-63.125a402.476 402.476 0 0 0 40.48 2.676zm-43.324-256.541c-10.512-1.353-21.05-3.15-31.4-5.351l2.155-12.3c10.373 2.077 20.9 3.761 31.365 5a6 6 0 0 0 1.416-11.916c-10.253-1.219-20.551-2.891-30.707-4.933l1.437-8.2a57.458 57.458 0 0 0 18.279 3.441h.106a64.871 64.871 0 0 0 14.919-1.394 197.8 197.8 0 0 1 41.34-4.636h.82a197.781 197.781 0 0 1 41.339 4.636 63.776 63.776 0 0 0 13.371 1.414c.516 0 1.033-.01 1.549-.02h.106a57.443 57.443 0 0 0 18.279-3.441l1.44 8.222a387.732 387.732 0 0 1 -99.105 6.966 6 6 0 1 0 -.7 11.979q11.658.681 23.318.681a399.675 399.675 0 0 0 78.557-7.8l2.155 12.3c-10.424 2.22-20.963 4.016-31.4 5.351a389.7 389.7 0 0 1 -49.315 3.152 389.659 389.659 0 0 1 -49.324-3.151zm55.324 256.541v-241.438a402.222 402.222 0 0 0 40.48-2.677c8.028 17.9 13.1 39.611 14.708 63.037l9.74 181.078zm76.946 0-9.78-181.811c-1.613-23.5-6.536-45.419-14.316-63.942 8.821-1.314 17.67-2.939 26.433-4.853a120.844 120.844 0 0 1 34.365 69.888l18.168 180.718z"/><path d="m222.965 170.547a157.162 157.162 0 0 1 32.7-3.667h.66a157.162 157.162 0 0 1 32.705 3.667 6 6 0 1 0 2.51-11.734 169.088 169.088 0 0 0 -35.215-3.933h-.66a169.088 169.088 0 0 0 -35.215 3.933 6 6 0 1 0 2.51 11.734z"/></svg>