<?xml version="1.0" encoding="iso-8859-1"?>
<!-- Generator: Adobe Illustrator 19.0.0, SVG Export Plug-In . SVG Version: 6.00 Build 0)  -->
<svg version="1.1" id="Capa_1" xmlns="http://www.w3.org/2000/svg" xmlns:xlink="http://www.w3.org/1999/xlink" x="0px" y="0px"
	 viewBox="0 0 512 512" style="enable-background:new 0 0 512 512;" xml:space="preserve">
<g>
	<g>
		<path d="M501.333,0H10.667C4.776,0,0,4.776,0,10.667v42.667C0,59.224,4.776,64,10.667,64h490.667
			C507.224,64,512,59.224,512,53.333V10.667C512,4.776,507.224,0,501.333,0z M490.667,42.667H21.333V21.333h469.333V42.667z"/>
	</g>
</g>
<g>
	<g>
		<path d="M501.333,448H10.667C4.776,448,0,452.776,0,458.667v42.667C0,507.224,4.776,512,10.667,512h490.667
			c5.891,0,10.667-4.776,10.667-10.667v-42.667C512,452.776,507.224,448,501.333,448z M490.667,490.667H21.333v-21.333h469.333
			V490.667z"/>
	</g>
</g>
<g>
	<g>
		<rect x="32" y="53.333" width="21.333" height="405.333"/>
	</g>
</g>
<g>
	<g>
		<rect x="458.667" y="53.333" width="21.333" height="405.333"/>
	</g>
</g>
<g>
	<g>
		<path d="M170.667,85.333v137.685c-1.387,7.061-12.181,54.315-53.333,54.315H74.667v21.333h42.667
			c49.333,0,70.325-47.701,74.517-72.917c0.098-0.578,0.148-1.163,0.149-1.749V85.333H170.667z"/>
	</g>
</g>
<g>
	<g>
		<path d="M138.667,363.733V288h-21.333v85.333c0,5.866,4.737,10.631,10.603,10.667c1.088-0.06,2.178-0.061,3.266-0.003
			C147.992,384.882,160.885,399.21,160,416v10.667h21.333V416C182.768,390.166,164.265,367.5,138.667,363.733z"/>
	</g>
</g>
<g>
	<g>
		<path d="M394.667,277.333c-41.184,0-51.968-47.328-53.333-54.304V85.333H320V224c0.002,0.586,0.052,1.171,0.149,1.749
			c4.192,25.216,25.184,72.917,74.517,72.917h42.667v-21.333H394.667z"/>
	</g>
</g>
<g>
	<g>
		<path d="M373.333,288v75.733c-25.599,3.767-44.101,26.432-42.667,52.267v10.667H352V416c-0.058-1.081-0.058-2.163,0-3.244
			c0.896-16.777,15.223-29.652,32-28.756c5.891,0,10.667-4.776,10.667-10.667V288H373.333z"/>
	</g>
</g>
<g>
	<g>
		<rect x="245.333" y="53.333" width="21.333" height="405.333"/>
	</g>
</g>
<g>
	<g>
		<path d="M138.667,213.333V128h-21.333v85.205c0.071,0.657,0.075,1.32,0.012,1.978c-0.514,5.383-5.295,9.331-10.678,8.817v21.333
			c0.606,0.018,1.213,0.018,1.819,0C125.656,244.831,139.169,230.504,138.667,213.333z"/>
	</g>
</g>
<g>
	<g>
		<path d="M403.427,224c-5.365-0.526-9.287-5.302-8.76-10.667V128h-21.333v85.333c-0.018,0.606-0.018,1.213,0,1.819
			c0.502,17.171,14.829,30.684,32,30.181V224C404.699,224.062,404.061,224.062,403.427,224z"/>
	</g>
</g>
<g>
	<g>
		<path d="M128,362.667c-0.808-0.024-1.617-0.024-2.425,0c-22.895,0.67-40.911,19.772-40.242,42.667h21.333
			c-0.055-0.874-0.054-1.751,0.005-2.625c0.747-11.079,10.334-19.456,21.413-18.709L128,362.667z"/>
	</g>
</g>
<g>
	<g>
		<path d="M384,362.667V384c0.859-0.055,1.72-0.055,2.579,0c11.07,0.712,19.467,10.263,18.755,21.333h21.333
			c0.024-0.808,0.024-1.617,0-2.425C425.997,380.014,406.895,361.997,384,362.667z"/>
	</g>
</g>
<g>
	<g>
		<rect x="117.333" y="85.333" width="21.333" height="21.333"/>
	</g>
</g>
<g>
	<g>
		<rect x="373.333" y="85.333" width="21.333" height="21.333"/>
	</g>
</g>
<g>
	<g>
		<rect x="170.667" y="245.333" width="170.667" height="21.333"/>
	</g>
</g>
</svg>
