<?xml version="1.0" encoding="iso-8859-1"?>
<!-- Generator: Adobe Illustrator 19.0.0, SVG Export Plug-In . SVG Version: 6.00 Build 0)  -->
<svg version="1.1" id="Capa_1" xmlns="http://www.w3.org/2000/svg" xmlns:xlink="http://www.w3.org/1999/xlink" x="0px" y="0px"
	 viewBox="0 0 512 512" style="enable-background:new 0 0 512 512;" xml:space="preserve">
<g>
	<g>
		<path d="M458.667,0H53.333C23.893,0.035,0.035,23.893,0,53.333v405.333C0.035,488.107,23.893,511.965,53.333,512h405.333
			c29.441-0.035,53.298-23.893,53.333-53.333V53.333C511.965,23.893,488.107,0.035,458.667,0z M490.667,458.667
			c0,17.673-14.327,32-32,32H53.333c-17.673,0-32-14.327-32-32V53.333c0-17.673,14.327-32,32-32h405.333c17.673,0,32,14.327,32,32
			V458.667z"/>
	</g>
</g>
<g>
	<g>
		<rect x="245.333" y="42.667" width="21.333" height="352"/>
	</g>
</g>
<g>
	<g>
		<path d="M320,181.333h-21.333v21.333H320V224h-21.333v21.333H320c0.295,0.006,0.589,0.006,0.884,0
			c11.538-0.244,20.693-9.795,20.449-21.333v-21.333c0.006-0.295,0.006-0.589,0-0.884C341.089,190.245,331.538,181.089,320,181.333z
			"/>
	</g>
</g>
<g>
	<g>
		<path d="M213.333,202.667v-21.333H192c-0.295-0.006-0.589-0.006-0.884,0c-11.538,0.244-20.693,9.795-20.449,21.333V224
			c-0.006,0.295-0.006,0.589,0,0.884c0.244,11.538,9.795,20.693,21.333,20.449h21.333V224H192v-21.333H213.333z"/>
	</g>
</g>
<g>
	<g>
		<rect x="42.667" y="384" width="426.667" height="21.333"/>
	</g>
</g>
<g>
	<g>
		<rect x="234.667" y="437.333" width="42.667" height="21.333"/>
	</g>
</g>
</svg>
