<svg id="Layer_1" enable-background="new 0 0 512.001 512.001" height="512" viewBox="0 0 512.001 512.001" width="512" xmlns="http://www.w3.org/2000/svg"><g><g><path d="m511.98 501.352c-11.166-171.987-24.277-294.03-101.71-418.467-1.162-1.867-2.907-3.299-4.965-4.075l-63.069-23.759-3.622-19.693c-.461-2.507-1.862-4.743-3.916-6.252l-37-27.167c-1.717-1.26-3.79-1.939-5.919-1.939h-71.559c-2.129 0-4.202.679-5.919 1.939l-37 27.167c-2.054 1.509-3.455 3.745-3.916 6.252l-3.622 19.693-63.069 23.759c-2.058.775-3.803 2.208-4.965 4.075-77.431 124.437-90.542 246.48-101.708 418.467-.179 2.759.792 5.469 2.683 7.486 1.89 2.018 4.532 3.162 7.296 3.162h72.221c5.363 0 9.771-4.231 9.991-9.59 1.766-43.068 5.136-83.537 10.19-122.103.88 3.651 1.767 7.288 2.649 10.902 5.196 21.283 10.569 43.29 13.348 64.656.57 4.38 3.945 7.867 8.304 8.58 46.026 7.521 76.896 12.131 129.298 12.131s83.271-4.61 129.298-12.131c4.358-.712 7.733-4.2 8.304-8.579 2.778-21.364 8.151-43.369 13.347-64.65.883-3.616 1.77-7.253 2.65-10.906 5.054 38.566 8.423 79.034 10.19 122.101.22 5.359 4.628 9.59 9.991 9.59h72.219c2.765 0 5.406-1.145 7.297-3.162 1.891-2.018 2.862-4.728 2.683-7.487zm-178.875-385.376-25.969 4.329c-3.113.519-5.8 2.477-7.245 5.282-1.446 2.806-1.482 6.129-.099 8.966l16.435 33.692-73.725 57.136c15.676-30.447 30.381-64.873 41.829-98.424 8.468-24.817 20.342-64.805 20.763-94.774l14.568 10.697zm-48.699-95.975c.991 5.288 1.094 12.056.408 20.001h-57.659c-.672-8.004-.543-14.756.441-20.001zm-2.471 40.001c-4.643 24.376-13.881 54.85-25.964 86.244-12.538-32.394-21.504-62.447-25.985-86.244zm-68.057 176.355c-.786-9.567-1.503-19.671-2.136-30.416l13.068 10.135c-3.569 6.943-7.22 13.724-10.932 20.281zm-7.002-204.151c.484 36.887 18.349 93.062 38.256 140.647-3.604 8.381-7.373 16.722-11.276 24.928l-38.083-29.534 16.436-33.695c1.384-2.837 1.348-6.16-.099-8.966-1.445-2.805-4.132-4.764-7.245-5.282l-25.969-4.329 13.442-73.096zm-134.225 459.794h-16.005l3.993-49.403c.444-5.505-3.657-10.328-9.162-10.773-5.515-.442-10.329 3.657-10.773 9.162l-4.124 51.014h-15.902c10.441-157.391 23.643-271.961 90.199-385.577 21.316 34.183 14.453 63.464-1.31 130.713-3.563 15.201-7.602 32.43-11.762 51.795-2.267 10.554-4.374 21.231-6.347 32.027-.051.233-.096.468-.131.706-9.65 52.996-15.804 109.107-18.676 170.336zm44.71-198.868c4.12-19.183 8.136-36.315 11.679-51.431 16.174-68.999 24.875-106.114-3.081-148.774l39.583-14.911-8.155 44.345c-.485 2.637.109 5.358 1.649 7.553s3.896 3.679 6.542 4.12l22.78 3.797-14.124 28.955c-2.076 4.256-.883 9.385 2.859 12.287l13.763 10.674c3.601 75.914 11.167 121.727 18.491 166.039 3.261 19.727 6.416 38.823 9.107 59.933-31.502-1.537-57.017-5.073-89.354-10.04-1.203-5.134-2.434-10.239-3.67-15.309l44.597-77.244c2.762-4.783 1.123-10.899-3.66-13.66-4.785-2.763-10.9-1.123-13.66 3.66l-34.046 58.969c-2.947-12.922-5.577-25.916-7.312-38.695 1.877-10.201 3.869-20.294 6.012-30.268zm16.342 133.477c30.599 4.627 55.782 7.876 87.093 9.242.672 6.41 1.298 13.05 1.87 19.977-30.41-1.454-54.723-4.963-85.486-9.942-.989-6.433-2.179-12.863-3.477-19.277zm259.637-64.516-34.046-58.97c-2.761-4.782-8.877-6.421-13.66-3.66s-6.422 8.877-3.66 13.66l44.597 77.245c-1.236 5.07-2.467 10.174-3.67 15.308-10.312 1.583-19.318 2.928-28.041 4.129-5.471.753-9.296 5.8-8.542 11.271.689 5.009 4.976 8.637 9.894 8.637.454 0 .914-.031 1.377-.095 6.62-.912 13.371-1.9 20.71-3.009-1.298 6.413-2.488 12.844-3.477 19.277-41.14 6.658-70.741 10.689-118.82 10.689-4.564 0-8.959-.037-13.216-.108-.556-6.942-1.163-13.597-1.817-20.014 4.831.08 9.831.121 15.032.121 3.646 0 7.189-.021 10.648-.061 5.522-.064 9.948-4.593 9.884-10.115-.063-5.483-4.527-9.884-9.997-9.884-.038 0-.078 0-.117 0-3.385.039-6.852.06-10.418.06-6.028 0-11.768-.06-17.299-.171-2.814-22.693-6.159-42.936-9.621-63.881-4.155-25.139-8.39-50.763-11.914-82.201l117.739-91.248c3.743-2.901 4.938-8.032 2.861-12.289l-14.124-28.955 22.78-3.797c2.646-.44 5.002-1.925 6.542-4.12s2.135-4.916 1.649-7.553l-8.155-44.345 39.583 14.911c-27.956 42.661-19.255 79.776-3.081 148.776 3.544 15.115 7.56 32.248 11.68 51.429 2.142 9.973 4.134 20.065 6.01 30.262-1.735 12.782-4.364 25.778-7.311 38.701zm82.081 129.907-4.124-51.015c-.444-5.504-5.271-9.599-10.773-9.162-5.505.445-9.606 5.269-9.162 10.773l3.993 49.404h-16.005c-2.873-61.23-9.026-117.342-18.677-170.339-.034-.235-.078-.466-.129-.696-1.974-10.798-4.081-21.478-6.348-32.033-4.16-19.364-8.198-36.593-11.762-51.794-15.764-67.25-22.627-96.531-1.311-130.714 66.557 113.615 79.758 228.185 90.2 385.576z"/><path d="m342.008 210.13-57.001 46c-4.298 3.469-4.971 9.765-1.502 14.063 1.977 2.448 4.869 3.72 7.788 3.72 2.205 0 4.425-.726 6.274-2.218l57.001-46c4.298-3.469 4.971-9.765 1.502-14.063-3.469-4.297-9.765-4.97-14.062-1.502z"/><path d="m311.495 414.622h-.008c-5.522 0-9.996 4.477-9.996 10s4.481 10 10.004 10 10-4.477 10-10-4.478-10-10-10z"/></g></g></svg>