<?xml version="1.0" encoding="iso-8859-1"?>
<!-- Generator: Adobe Illustrator 19.0.0, SVG Export Plug-In . SVG Version: 6.00 Build 0)  -->
<svg version="1.1" id="Capa_1" xmlns="http://www.w3.org/2000/svg" xmlns:xlink="http://www.w3.org/1999/xlink" x="0px" y="0px"
	 viewBox="0 0 480 480" style="enable-background:new 0 0 480 480;" xml:space="preserve">
<g>
	<g>
		<path d="M352,0H128c-4.418,0-8,3.582-8,8v464c0,4.418,3.582,8,8,8h88c4.188,0.012,7.677-3.208,8-7.384l16-208.312l16,208.312
			c0.323,4.176,3.812,7.396,8,7.384h88c4.418,0,8-3.582,8-8V8C360,3.582,356.418,0,352,0z M248,16h16v16h-16V16z M248,48h16v40
			c0,4.418-3.582,8-8,8h-8V48z M136,16h96v16h-96V16z M136,48h31.2c-3.236,15.698-15.502,27.964-31.2,31.2V48z M344,464h-72.592
			L248,159.384c-0.342-4.405-4.19-7.699-8.595-7.357c-3.93,0.305-7.052,3.427-7.357,7.357L208.592,464H136V95.36
			c24.528-3.566,43.794-22.832,47.36-47.36H232v56c0,4.418,3.582,8,8,8h16c13.255,0,24-10.745,24-24V48h16.64
			c3.566,24.528,22.832,43.794,47.36,47.36V464z M344,79.2c-15.698-3.236-27.964-15.502-31.2-31.2H344V79.2z M344,32h-64V16h64V32z"
			/>
	</g>
</g>
<g>
</g>
<g>
</g>
<g>
</g>
<g>
</g>
<g>
</g>
<g>
</g>
<g>
</g>
<g>
</g>
<g>
</g>
<g>
</g>
<g>
</g>
<g>
</g>
<g>
</g>
<g>
</g>
<g>
</g>
</svg>
