<svg id="Layer_1" height="512" viewBox="0 0 512 512" width="512" xmlns="http://www.w3.org/2000/svg" data-name="Layer 1"><path d="m452.753 116.314a143.3 143.3 0 0 0 -112.619-85.859 18.009 18.009 0 0 0 -34.029 4.668 54.5 54.5 0 0 1 -14.527 29.255 48.387 48.387 0 0 1 -71.157 0 54.5 54.5 0 0 1 -14.521-29.258 17.752 17.752 0 0 0 -6.152-10.777 18.058 18.058 0 0 0 -27.878 6.11 143.253 143.253 0 0 0 -112.617 85.86l-39.58 93.141a6 6 0 0 0 3.952 8.137l82.4 22.349v245.91a6 6 0 0 0 6 6h287.955a6 6 0 0 0 6-6v-245.687l82.42-22.577a6 6 0 0 0 3.937-8.132zm-270.515-79.167.008-.047a6.036 6.036 0 0 1 9.8-3.554 5.744 5.744 0 0 1 2 3.471 66.441 66.441 0 0 0 17.713 35.664 60.382 60.382 0 0 0 88.483 0 66.443 66.443 0 0 0 17.714-35.664 5.934 5.934 0 0 1 5.885-4.868 6.046 6.046 0 0 1 5.926 5 5.772 5.772 0 0 1 0 1.869 78.716 78.716 0 0 1 -25.289 46.317 72.464 72.464 0 0 1 -96.956 0 78.7 78.7 0 0 1 -25.286-46.3 5.719 5.719 0 0 1 .002-1.888zm-76.218 190.359-72.62-19.695 7.827-18.418 64.79 17.576zm293.96-74.086a6 6 0 0 0 -6 6v264.85h-209.654a6 6 0 0 0 0 12h209.654v43.58h-275.96v-43.58h36.98a6 6 0 1 0 0-12h-36.98v-264.85a6 6 0 0 0 -12 0v35.115l-60.051-16.292 24.323-57.237a131.248 131.248 0 0 1 100.427-78.263 90.687 90.687 0 0 0 28.839 51.569 84.462 84.462 0 0 0 112.884 0 90.694 90.694 0 0 0 28.84-51.568 131.289 131.289 0 0 1 100.426 78.263l24.345 57.293-60.073 16.451v-35.331a6 6 0 0 0 -6-6zm6 74.3v-20.528l64.808-17.753 7.815 18.388z"/><path d="m364.02 174.9h-70.91a6 6 0 0 0 -6 6v9.83a6 6 0 1 0 12 0v-3.83h58.91v41.96a13.046 13.046 0 0 1 -6.163 11.029l-23.3 14.327-23.289-14.327a12.862 12.862 0 0 1 -6.162-11.029v-17.527a6 6 0 1 0 -12 0v17.527a24.78 24.78 0 0 0 11.876 21.25l26.43 16.26a6 6 0 0 0 6.286 0l26.445-16.263a25.125 25.125 0 0 0 11.877-21.247v-47.96a6 6 0 0 0 -6-6z"/><path d="m158.28 260.13a6 6 0 0 0 -6 6v6.95a6 6 0 0 0 12 0v-6.95a6 6 0 0 0 -6-6z"/><path d="m158.28 285.22a6 6 0 0 0 -6 6v61.53a6 6 0 0 0 12 0v-61.53a6 6 0 0 0 -6-6z"/></svg>