<?xml version="1.0" encoding="utf-8"?>
<!-- Generator: Adobe Illustrator 19.0.0, SVG Export Plug-In . SVG Version: 6.00 Build 0)  -->
<svg version="1.1" id="Calque_1" xmlns="http://www.w3.org/2000/svg" xmlns:xlink="http://www.w3.org/1999/xlink" x="0px" y="0px"
	 viewBox="0 0 200 200" style="enable-background:new 0 0 200 200;" xml:space="preserve">
<style type="text/css">
	.st0{opacity:0.15;fill:#3E7388;}
	.st1{fill:#2C62AC;}
	.st2{fill:#FFFFFF;}
	.st3{fill:#3E8BCB;}
	.st4{fill:#86D0F5;}
	.st5{fill:#0D58A1;}
</style>
<path id="XMLID_24_" class="st0" d="M166.1,92.8l-12.7,13.7c-5.8,6.3-15.7,6.7-22,0.9l-0.1-0.1c-6.3-5.8-6.7-15.7-0.9-22l12.7-13.7
	c5.8-6.3,5.4-16.2-0.9-22l-0.1-0.1c-6.3-5.8-16.2-5.4-22,0.9l-1.1,1.2c-5.8,6.3-15.7,6.7-22,0.9l-0.1-0.1c-6.3-5.8-6.7-15.7-0.9-22
	l1.1-1.2c5.8-6.3,5.4-16.2-0.9-22l0,0c-6.3-5.8-16.2-5.4-22,0.9L10.9,76.5c-5.8,6.3-5.4,16.2,0.9,22l0,0c6.3,5.8,16.2,5.4,22-0.9
	l12.7-13.7c5.8-6.3,15.7-6.7,22-0.9l0.1,0.1c6.3,5.8,6.7,15.7,0.9,22l-12.7,13.7c-5.8,6.3-5.4,16.2,0.9,22l0.1,0.1
	c6.3,5.8,16.2,5.4,22-0.9l5.9-6.4c5.8-6.3,15.7-6.7,22-0.9l0.1,0.1c6.3,5.8,6.7,15.7,0.9,22l-5.9,6.4c-5.8,6.3-5.4,16.2,0.9,22
	l0.1,0.1c6.3,5.8,16.2,5.4,22-0.9l63.2-68.5c5.8-6.3,5.4-16.2-0.9-22l-0.1-0.1C181.8,86.1,171.9,86.5,166.1,92.8z"/>
<g id="XMLID_5_">
	<path id="XMLID_47_" class="st1" d="M91,96.2c-10.3,0-10.3-14.9,0-14.9C101.3,81.4,101.3,96.2,91,96.2z M114.1,82l-21.8,33.2h-6.7
		L107.4,82H114.1z M91,91.9c4.1,0,4.1-6.2,0-6.2C86.9,85.7,86.9,91.9,91,91.9z M109,115.5c-10.3,0-10.3-14.9,0-14.9
		C119.2,100.6,119.2,115.5,109,115.5z M109,111.1c4.1,0,4.1-6.2,0-6.2S104.9,111.1,109,111.1z"/>
	<path id="XMLID_46_" class="st2" d="M133,105.9l17,4.6c0.7-3.5,1.1-7,1.1-10.5c0-4.5-0.6-8.9-1.7-13.2l0,0
		c-1.1-4.3-2.9-8.4-5.1-12.3c-2.3-3.9-5-7.5-8.1-10.6c-3.1-3.1-6.7-5.9-10.6-8.1c-3.9-2.2-8-4-12.3-5.1c-3.4-0.9-6.9-1.5-10.4-1.7
		v17.6c2,0.2,4,0.5,5.9,1c2.8,0.8,5.5,1.9,8.1,3.4c2.6,1.5,4.9,3.3,6.9,5.3c2.1,2.1,3.8,4.4,5.3,6.9c1.5,2.5,2.6,5.3,3.4,8.1
		c0.8,2.8,1.1,5.7,1.1,8.7C133.5,102,133.3,104,133,105.9z"/>
	<path id="XMLID_45_" class="st3" d="M115.4,126.6c-2.3,1.3-4.8,2.4-7.4,3.1c-2.5,0.7-5.2,1-8,1c-2.8,0-5.4-0.4-8-1
		c-2.6-0.7-5.1-1.7-7.4-3.1c-2.3-1.3-4.5-3-6.4-4.9c-1.9-1.9-3.5-4-4.9-6.4c-1.3-2.3-2.4-4.8-3.1-7.4l-22.4,6c1.2,4.6,3.1,9,5.4,13
		c2.4,4.1,5.2,7.8,8.6,11.2c3.3,3.3,7.1,6.2,11.2,8.6c4,2.3,8.4,4.2,13,5.4c4.4,1.2,9.1,1.8,13.9,1.8c4.8,0,9.5-0.6,13.9-1.8
		c4.6-1.2,9-3.1,13-5.4L115.4,126.6z"/>
	<path id="XMLID_44_" class="st4" d="M86.1,47.9c-4.6,1.2-9,3.1-13,5.4c-4.1,2.4-7.8,5.2-11.2,8.6c-3.3,3.3-6.2,7.1-8.6,11.2
		c-2.3,4-4.2,8.4-5.4,13l22.4,6c0.7-2.6,1.7-5.1,3.1-7.4c1.3-2.3,3-4.5,4.9-6.4c1.9-1.9,4-3.5,6.4-4.9c2.3-1.3,4.8-2.4,7.4-3.1
		c2.5-0.7,5.2-1,8-1V46.1C95.2,46.1,90.5,46.8,86.1,47.9z"/>
	<path id="XMLID_43_" class="st3" d="M154.2,103.5c-0.1,0.4-0.2,0.8-0.3,1.3c-7.7,0-15.4,0-23.1,0c0.1-1.6,0.2-3.1,0.3-4.8
		c7.7,0,15.4,0,23.1,0C154.2,101.1,154.2,102.3,154.2,103.5z"/>
	<path id="XMLID_42_" class="st3" d="M100.4,69.4c0-0.4,0-0.9,0-1.5c0.4,0,0.9-0.1,1.3-0.1c13.5,0,27,0,40.5,0c0.9,0,1.5,0.3,1.9,1
		c0.7,1.2,1.6,2.4,2.5,3.7c-0.6,0-1,0.1-1.3,0.1c-10.2,0-20.3,0-30.5,0c-0.4,0-0.9,0-1.3-0.1c-2.1-0.7-4.2-1.6-6.3-2.1
		C105,69.8,102.7,69.7,100.4,69.4z"/>
	<path id="XMLID_41_" class="st3" d="M140.3,64.6c-13.3,0-26.5,0-39.9,0c0-1.6,0-3.1,0-4.8c0.5,0,1,0,1.5,0c10.9,0,21.8,0,32.8,0
		c0.9,0,1.6,0.2,2.3,0.9c1.2,1.2,2.5,2.3,3.8,3.5C140.6,64.3,140.4,64.5,140.3,64.6z"/>
	<path id="XMLID_40_" class="st3" d="M150.5,80.7c-5.5,0-10.8,0-16.1,0c-3.2,0-6.3,0-9.5,0c-0.5,0-1.2-0.3-1.6-0.7
		c-1.3-1.3-2.5-2.8-3.7-4.2c-0.1,0.1-0.2,0.1-0.3,0.2c0.3,0,0.6-0.1,1-0.1c9,0,17.9,0,26.9,0c0.9,0,1.4,0.2,1.7,1.1
		C149.3,78.2,149.9,79.4,150.5,80.7z"/>
	<path id="XMLID_39_" class="st3" d="M100.4,56.5c0-1.6,0-3.1,0-4.7c0.5,0,1,0,1.5,0c6.9,0,13.8,0,20.7,0c0.8,0,1.7,0.2,2.4,0.6
		c2.2,1.2,4.4,2.5,6.4,4.1C121.1,56.5,110.8,56.5,100.4,56.5z"/>
	<path id="XMLID_38_" class="st3" d="M126.3,83.9c1.4,0,2.6,0,3.8,0c6.8,0,13.6,0,20.3,0c0.9,0,1.4,0.3,1.6,1.2
		c0.2,1.2,0.6,2.3,0.9,3.6c-0.5,0-0.9,0.1-1.3,0.1c-7.2,0-14.5,0-21.7,0c-1,0-1.4-0.3-1.8-1.2C127.7,86.4,127.1,85.3,126.3,83.9z"/>
	<path id="XMLID_37_" class="st3" d="M129.9,92c7.9,0,15.7,0,23.7,0c0.2,1.5,0.3,3.1,0.5,4.7c-0.6,0-1,0.1-1.5,0.1
		c-6.8,0-13.6,0-20.5,0c-1,0-1.5-0.2-1.5-1.3C130.5,94.4,130.2,93.3,129.9,92z"/>
	<path id="XMLID_36_" class="st3" d="M153.6,108.1c-0.3,1.6-0.6,3.1-0.9,4.9c-2.5-0.2-5-0.2-7.3-0.7c-4.8-1.1-9.5-2.5-14.2-3.7
		c-0.3-0.1-0.7-0.2-1-0.5C138,108.1,145.7,108.1,153.6,108.1z"/>
	<path id="XMLID_35_" class="st3" d="M100.4,48.5c0-0.7,0-1.3,0-2c4.9-0.2,9.6,0.7,14.3,2C109.9,48.5,105.2,48.5,100.4,48.5z"/>
	<path id="XMLID_32_" class="st5" d="M72.3,95.5L44.5,88l0.7-2.7c1.3-4.8,3.2-9.4,5.7-13.7c2.5-4.3,5.5-8.3,9-11.7
		c3.5-3.5,7.4-6.5,11.7-9c4.3-2.5,8.9-4.4,13.7-5.7l0,0c4.8-1.3,9.7-1.9,14.7-1.9h2.8v28.7H100c-2.4,0-4.9,0.3-7.2,1
		c-2.3,0.6-4.6,1.6-6.7,2.8c-2.1,1.2-4.1,2.7-5.8,4.4C78.5,82,77,83.9,75.8,86c-1.2,2.1-2.2,4.4-2.8,6.7L72.3,95.5z M51.4,84.1
		l17,4.6c0.7-1.9,1.5-3.7,2.5-5.4c1.5-2.6,3.3-4.9,5.3-6.9c2.1-2.1,4.4-3.8,6.9-5.3c2.5-1.5,5.3-2.6,8.1-3.4c1.9-0.5,3.9-0.9,5.9-1
		V49c-3.5,0.2-7,0.7-10.4,1.7l0,0c-4.3,1.1-8.4,2.9-12.3,5.1c-3.9,2.3-7.5,5-10.6,8.1c-3.1,3.1-5.9,6.7-8.1,10.6
		C54,77.5,52.5,80.8,51.4,84.1z"/>
	<path id="XMLID_29_" class="st5" d="M154,117.4l-27.8-7.4l0.7-2.7c0.6-2.4,1-4.8,1-7.2c0-2.4-0.3-4.9-1-7.2
		c-0.6-2.3-1.6-4.6-2.8-6.7c-1.2-2.1-2.7-4.1-4.4-5.8c-1.7-1.7-3.7-3.2-5.8-4.4c-2.1-1.2-4.4-2.2-6.7-2.8c-2.4-0.6-4.8-1-7.2-1h-2.8
		V43.3h2.8c4.9,0,9.9,0.6,14.7,1.9c4.8,1.3,9.4,3.2,13.7,5.7c4.3,2.5,8.3,5.5,11.7,9c3.5,3.5,6.5,7.4,9,11.7
		c2.5,4.3,4.4,8.9,5.7,13.7c1.3,4.8,1.9,9.7,1.9,14.7c0,4.9-0.6,9.9-1.9,14.7L154,117.4z M133,105.9l17,4.6c0.7-3.5,1.1-7,1.1-10.5
		c0-4.5-0.6-8.9-1.7-13.2l0,0c-1.1-4.3-2.9-8.4-5.1-12.3c-2.3-3.9-5-7.5-8.1-10.6c-3.1-3.1-6.7-5.9-10.6-8.1c-3.9-2.2-8-4-12.3-5.1
		c-3.4-0.9-6.9-1.5-10.4-1.7v17.6c2,0.2,4,0.5,5.9,1c2.8,0.8,5.5,1.9,8.1,3.4c2.6,1.5,4.9,3.3,6.9,5.3c2.1,2.1,3.8,4.4,5.3,6.9
		c1.5,2.5,2.6,5.3,3.4,8.1c0.8,2.8,1.1,5.7,1.1,8.7C133.5,102,133.3,104,133,105.9z"/>
	<path id="XMLID_26_" class="st5" d="M125.9,150.5l-14.4-24.9l2.4-1.4c2.1-1.2,4.1-2.7,5.8-4.4c1.7-1.7,3.2-3.7,4.4-5.8
		c1.2-2.1,2.2-4.4,2.8-6.7l0.7-2.7l27.8,7.4l-0.7,2.7c-1.3,4.8-3.2,9.4-5.7,13.7c-2.5,4.3-5.5,8.3-9,11.7c-3.5,3.5-7.4,6.5-11.7,9
		L125.9,150.5z M119.1,127.5l8.8,15.2c3-1.9,5.7-4.2,8.2-6.6c3.1-3.1,5.9-6.7,8.1-10.6c1.8-3.1,3.2-6.3,4.3-9.6l-17-4.6
		c-0.7,1.9-1.5,3.7-2.5,5.4c-1.5,2.5-3.3,4.9-5.3,6.9C122.3,125.1,120.8,126.4,119.1,127.5z"/>
	<path id="XMLID_25_" class="st2" d="M119.1,127.5l8.8,15.2c3-1.9,5.7-4.2,8.2-6.6c3.1-3.1,5.9-6.7,8.1-10.6
		c1.8-3.1,3.2-6.3,4.3-9.6l-17-4.6c-0.7,1.9-1.5,3.7-2.5,5.4c-1.5,2.5-3.3,4.9-5.3,6.9C122.3,125.1,120.8,126.4,119.1,127.5z"/>
	<path id="XMLID_23_" class="st5" d="M46,117.4l-0.7-2.7c-1.3-4.8-1.9-9.7-1.9-14.7c0-4.9,0.6-9.9,1.9-14.7l0.7-2.7l27.8,7.4
		L73,92.8c-0.6,2.4-1,4.8-1,7.2c0,2.4,0.3,4.9,1,7.2l0.7,2.7L46,117.4z"/>
	<path id="XMLID_22_" class="st5" d="M46,117.4l-0.7-2.7c-1.3-4.8-1.9-9.7-1.9-14.7c0-4.9,0.6-9.9,1.9-14.7l0.7-2.7l27.8,7.4
		L73,92.8c-0.6,2.4-1,4.8-1,7.2c0,2.4,0.3,4.9,1,7.2l0.7,2.7L46,117.4z"/>
	<path id="XMLID_21_" class="st2" d="M50,89.5c-0.7,3.5-1.1,7-1.1,10.5c0,3.5,0.4,7.1,1.1,10.5l17-4.6c-0.4-2-0.5-4-0.5-5.9
		c0-2,0.2-4,0.5-5.9L50,89.5z"/>
	<path id="XMLID_18_" class="st5" d="M100,156.7c-4.9,0-9.9-0.6-14.7-1.9c-4.8-1.3-9.4-3.2-13.7-5.7c-4.3-2.5-8.3-5.5-11.7-9
		c-3.5-3.5-6.5-7.4-9-11.7c-2.5-4.3-4.4-8.9-5.7-13.7l-0.7-2.7l27.8-7.4l0.7,2.7c0.6,2.3,1.6,4.6,2.8,6.7c1.2,2.1,2.7,4.1,4.4,5.8
		c1.7,1.7,3.7,3.2,5.8,4.4c2.1,1.2,4.4,2.2,6.7,2.8c4.7,1.3,9.7,1.3,14.5,0c2.3-0.6,4.6-1.6,6.7-2.8l2.4-1.4l14.4,24.9l-2.4,1.4
		c-4.3,2.5-8.9,4.4-13.7,5.7C109.9,156,104.9,156.7,100,156.7z M51.4,115.9c1.1,3.3,2.5,6.6,4.3,9.6c2.3,3.9,5,7.5,8.1,10.6
		c3.1,3.1,6.7,5.9,10.6,8.1c3.9,2.2,8,4,12.3,5.1c8.6,2.3,17.8,2.3,26.5,0c3.4-0.9,6.7-2.2,9.9-3.8l-8.8-15.2
		c-1.8,0.9-3.7,1.5-5.6,2.1c-5.7,1.5-11.7,1.5-17.3,0c-2.8-0.8-5.5-1.9-8.1-3.4c-2.5-1.5-4.9-3.3-6.9-5.3c-2.1-2.1-3.8-4.4-5.3-6.9
		c-1-1.7-1.8-3.5-2.5-5.4L51.4,115.9z"/>
</g>
</svg>
