<?xml version="1.0" encoding="utf-8"?>
<!-- Generator: Adobe Illustrator 19.0.0, SVG Export Plug-In . SVG Version: 6.00 Build 0)  -->
<svg version="1.1" id="Calque_1" xmlns="http://www.w3.org/2000/svg" xmlns:xlink="http://www.w3.org/1999/xlink" x="0px" y="0px"
	 viewBox="0 0 200 200" style="enable-background:new 0 0 200 200;" xml:space="preserve">
<style type="text/css">
	.st0{opacity:0.15;fill:#3E7388;}
	.st1{fill:#86D0F5;}
	.st2{fill:#FFFFFF;}
	.st3{fill:#57AADF;}
	.st4{fill:#0D58A1;}
</style>
<path id="XMLID_24_" class="st0" d="M166.1,92.8l-12.7,13.7c-5.8,6.3-15.7,6.7-22,0.9l-0.1-0.1c-6.3-5.8-6.7-15.7-0.9-22l12.7-13.7
	c5.8-6.3,5.4-16.2-0.9-22l-0.1-0.1c-6.3-5.8-16.2-5.4-22,0.9l-1.1,1.2c-5.8,6.3-15.7,6.7-22,0.9l-0.1-0.1c-6.3-5.8-6.7-15.7-0.9-22
	l1.1-1.2c5.8-6.3,5.4-16.2-0.9-22l0,0c-6.3-5.8-16.2-5.4-22,0.9L10.9,76.5c-5.8,6.3-5.4,16.2,0.9,22l0,0c6.3,5.8,16.2,5.4,22-0.9
	l12.7-13.7c5.8-6.3,15.7-6.7,22-0.9l0.1,0.1c6.3,5.8,6.7,15.7,0.9,22l-12.7,13.7c-5.8,6.3-5.4,16.2,0.9,22l0.1,0.1
	c6.3,5.8,16.2,5.4,22-0.9l5.9-6.4c5.8-6.3,15.7-6.7,22-0.9l0.1,0.1c6.3,5.8,6.7,15.7,0.9,22l-5.9,6.4c-5.8,6.3-5.4,16.2,0.9,22
	l0.1,0.1c6.3,5.8,16.2,5.4,22-0.9l63.2-68.5c5.8-6.3,5.4-16.2-0.9-22l-0.1-0.1C181.8,86.1,171.9,86.5,166.1,92.8z"/>
<g id="XMLID_1_">
	<path id="XMLID_15_" class="st1" d="M100,49.8c-29.9,0-54.1,24.2-54.1,54.1S70.1,158,100,158c29.9,0,54.1-24.2,54.1-54.1
		S129.9,49.8,100,49.8z M100,144.3c-22.4,0-40.5-18.1-40.5-40.5S77.6,63.4,100,63.4c22.4,0,40.5,18.1,40.5,40.5
		S122.4,144.3,100,144.3z"/>
	<circle id="XMLID_14_" class="st2" cx="100" cy="103.9" r="40.5"/>
	<path id="XMLID_13_" class="st3" d="M100,63.4c-2.2,0-4.3,0.2-6.4,0.5c19.3,3.1,34.1,19.8,34.1,40s-14.8,36.9-34.1,40
		c2.1,0.3,4.2,0.5,6.4,0.5c22.4,0,40.5-18.1,40.5-40.5S122.4,63.4,100,63.4z"/>
	<path id="XMLID_8_" class="st4" d="M100,160.6c-31.3,0-56.7-25.4-56.7-56.7c0-31.3,25.4-56.7,56.7-56.7c31.3,0,56.7,25.4,56.7,56.7
		C156.7,135.1,131.3,160.6,100,160.6z M100,52.4c-28.4,0-51.5,23.1-51.5,51.5c0,28.4,23.1,51.5,51.5,51.5
		c28.4,0,51.5-23.1,51.5-51.5C151.5,75.5,128.4,52.4,100,52.4z M100,146.9c-23.8,0-43.1-19.3-43.1-43.1c0-23.8,19.3-43.1,43.1-43.1
		c23.8,0,43.1,19.3,43.1,43.1C143.1,127.6,123.8,146.9,100,146.9z M100,66c-20.9,0-37.9,17-37.9,37.9c0,20.9,17,37.9,37.9,37.9
		c20.9,0,37.9-17,37.9-37.9C137.9,83,120.9,66,100,66z"/>
	<path id="XMLID_4_" class="st4" d="M100,113.6c-4.7,0-8.6-3.9-8.6-8.6c0-4.7,3.9-8.6,8.6-8.6c4.7,0,8.6,3.9,8.6,8.6
		C108.6,109.7,104.7,113.6,100,113.6z M100,101.5c-1.9,0-3.4,1.5-3.4,3.4c0,1.9,1.5,3.4,3.4,3.4c1.9,0,3.4-1.5,3.4-3.4
		C103.4,103.1,101.9,101.5,100,101.5z"/>
	<path id="XMLID_3_" class="st4" d="M100,101c-1.4,0-2.6-1.2-2.6-2.6V77.6c0-1.4,1.2-2.6,2.6-2.6c1.4,0,2.6,1.2,2.6,2.6v20.8
		C102.6,99.8,101.4,101,100,101z"/>
	<path id="XMLID_2_" class="st4" d="M88.1,121.9c-0.7,0-1.3-0.3-1.8-0.8c-1-1-1-2.7,0-3.7l8.9-8.9c1-1,2.7-1,3.7,0c1,1,1,2.7,0,3.7
		l-8.9,8.9C89.4,121.6,88.8,121.9,88.1,121.9z"/>
</g>
</svg>
