<?xml version="1.0" encoding="utf-8"?>
<!-- Generator: Adobe Illustrator 19.0.0, SVG Export Plug-In . SVG Version: 6.00 Build 0)  -->
<svg version="1.1" id="Calque_1" xmlns="http://www.w3.org/2000/svg" xmlns:xlink="http://www.w3.org/1999/xlink" x="0px" y="0px"
	 viewBox="0 0 200 200" style="enable-background:new 0 0 200 200;" xml:space="preserve">
<style type="text/css">
	.st0{opacity:0.15;fill:#3E7388;}
	.st1{fill:#FFFFFF;}
	.st2{fill:#86D0F5;}
	.st3{fill:#57AADF;}
	.st4{fill:#0D58A1;}
	.st5{fill:#2C62AC;}
</style>
<path id="XMLID_24_" class="st0" d="M166.1,92.8l-12.7,13.7c-5.8,6.3-15.7,6.7-22,0.9l-0.1-0.1c-6.3-5.8-6.7-15.7-0.9-22l12.7-13.7
	c5.8-6.3,5.4-16.2-0.9-22l-0.1-0.1c-6.3-5.8-16.2-5.4-22,0.9l-1.1,1.2c-5.8,6.3-15.7,6.7-22,0.9l-0.1-0.1c-6.3-5.8-6.7-15.7-0.9-22
	l1.1-1.2c5.8-6.3,5.4-16.2-0.9-22l0,0c-6.3-5.8-16.2-5.4-22,0.9L10.9,76.5c-5.8,6.3-5.4,16.2,0.9,22l0,0c6.3,5.8,16.2,5.4,22-0.9
	l12.7-13.7c5.8-6.3,15.7-6.7,22-0.9l0.1,0.1c6.3,5.8,6.7,15.7,0.9,22l-12.7,13.7c-5.8,6.3-5.4,16.2,0.9,22l0.1,0.1
	c6.3,5.8,16.2,5.4,22-0.9l5.9-6.4c5.8-6.3,15.7-6.7,22-0.9l0.1,0.1c6.3,5.8,6.7,15.7,0.9,22l-5.9,6.4c-5.8,6.3-5.4,16.2,0.9,22
	l0.1,0.1c6.3,5.8,16.2,5.4,22-0.9l63.2-68.5c5.8-6.3,5.4-16.2-0.9-22l-0.1-0.1C181.8,86.1,171.9,86.5,166.1,92.8z"/>
<g id="XMLID_17_">
	<path id="XMLID_16_" class="st1" d="M152,42H48c-4.6,0-8.4,3.8-8.4,8.4V121c0,4.6,3.8,8.4,8.4,8.4H152c4.6,0,8.4-3.8,8.4-8.4V50.4
		C160.4,45.8,156.6,42,152,42z"/>
	<path id="XMLID_15_" class="st2" d="M40.3,104.8v17.6c0,3.1,2.5,5.7,5.7,5.7H154c3.1,0,5.7-2.5,5.7-5.7v-17.6H40.3z"/>
	<path id="XMLID_14_" class="st3" d="M147.5,104.8v17.6c0,3.1-2.5,5.7-5.7,5.7H154c3.1,0,5.7-2.5,5.7-5.7v-17.6H147.5z"/>
	<path class="st4" d="M154,131.2H46c-4.8,0-8.7-3.9-8.7-8.7V49c0-4.8,3.9-8.7,8.7-8.7H154c4.8,0,8.7,3.9,8.7,8.7v73.4
		C162.8,127.3,158.9,131.2,154,131.2z M46,46.4c-1.5,0-2.6,1.2-2.6,2.6v73.4c0,1.5,1.2,2.6,2.6,2.6H154c1.5,0,2.6-1.2,2.6-2.6V49
		c0-1.5-1.2-2.6-2.6-2.6H46z"/>
	<path class="st4" d="M154,131.2H46c-4.8,0-8.7-3.9-8.7-8.7v-20.7h125.5v20.7C162.8,127.3,158.9,131.2,154,131.2z M43.3,107.9v14.6
		c0,1.5,1.2,2.6,2.6,2.6H154c1.5,0,2.6-1.2,2.6-2.6v-14.6H43.3z"/>
	<path class="st4" d="M126.3,161.5H73.7c-4.8,0-8.6-3.9-8.6-8.6v-0.6c0-4,2.8-7.5,6.8-8.4c7.7-1.9,10.5-11.1,11.4-16.4l0.4-2.5h32.5
		l0.4,2.5c0.9,5.3,3.7,14.6,11.4,16.4h0c4,1,6.8,4.4,6.8,8.4v0.6C134.9,157.6,131,161.5,126.3,161.5z M88.8,131
		c-1.6,6.9-5.6,16.4-15.5,18.8c-1.3,0.3-2.1,1.3-2.1,2.5v0.6c0,1.4,1.1,2.5,2.5,2.5h52.6c1.4,0,2.5-1.1,2.5-2.5v-0.6
		c0-1.2-0.9-2.2-2.1-2.5c-9.8-2.4-13.8-11.9-15.5-18.8H88.8z"/>
	<path id="XMLID_7_" class="st1" d="M88.8,131c-1.6,6.9-5.6,16.4-15.5,18.8c-1.3,0.3-2.1,1.3-2.1,2.5v0.6c0,1.4,1.1,2.5,2.5,2.5
		h52.6c1.4,0,2.5-1.1,2.5-2.5v-0.6c0-1.2-0.9-2.2-2.1-2.5c-9.8-2.4-13.8-11.9-15.5-18.8H88.8z"/>
	<rect id="XMLID_6_" x="73.7" y="55.8" class="st3" width="59.4" height="36.3"/>
	<circle id="XMLID_4_" class="st1" cx="128.9" cy="55.8" r="17.3"/>
	<circle id="XMLID_3_" class="st3" cx="128.9" cy="55.8" r="12"/>
	<path class="st1" d="M125.5,60.3h2.1v-9.4h-2.2v-2.4h4.8v11.8h1.9v2.2h-6.7V60.3z"/>
	<circle id="XMLID_1_" class="st5" cx="102.3" cy="115.9" r="6.3"/>
</g>
</svg>
