<?xml version="1.0" encoding="utf-8"?>
<!-- Generator: Adobe Illustrator 19.0.0, SVG Export Plug-In . SVG Version: 6.00 Build 0)  -->
<svg version="1.1" id="Calque_1" xmlns="http://www.w3.org/2000/svg" xmlns:xlink="http://www.w3.org/1999/xlink" x="0px" y="0px"
	 viewBox="0 0 200 200" style="enable-background:new 0 0 200 200;" xml:space="preserve">
<style type="text/css">
	.st0{opacity:0.15;fill:#3E7388;}
	.st1{fill:#FFFFFF;}
	.st2{fill:#86D0F5;}
	.st3{fill:#0D58A1;}
	.st4{fill:#3E8BCB;}
</style>
<path id="XMLID_24_" class="st0" d="M166.1,92.8l-12.7,13.7c-5.8,6.3-15.7,6.7-22,0.9l-0.1-0.1c-6.3-5.8-6.7-15.7-0.9-22l12.7-13.7
	c5.8-6.3,5.4-16.2-0.9-22l-0.1-0.1c-6.3-5.8-16.2-5.4-22,0.9l-1.1,1.2c-5.8,6.3-15.7,6.7-22,0.9l-0.1-0.1c-6.3-5.8-6.7-15.7-0.9-22
	l1.1-1.2c5.8-6.3,5.4-16.2-0.9-22l0,0c-6.3-5.8-16.2-5.4-22,0.9L10.9,76.5c-5.8,6.3-5.4,16.2,0.9,22l0,0c6.3,5.8,16.2,5.4,22-0.9
	l12.7-13.7c5.8-6.3,15.7-6.7,22-0.9l0.1,0.1c6.3,5.8,6.7,15.7,0.9,22l-12.7,13.7c-5.8,6.3-5.4,16.2,0.9,22l0.1,0.1
	c6.3,5.8,16.2,5.4,22-0.9l5.9-6.4c5.8-6.3,15.7-6.7,22-0.9l0.1,0.1c6.3,5.8,6.7,15.7,0.9,22l-5.9,6.4c-5.8,6.3-5.4,16.2,0.9,22
	l0.1,0.1c6.3,5.8,16.2,5.4,22-0.9l63.2-68.5c5.8-6.3,5.4-16.2-0.9-22l-0.1-0.1C181.8,86.1,171.9,86.5,166.1,92.8z"/>
<g id="XMLID_5_">
	<path id="XMLID_38_" class="st1" d="M73.8,49.4c-5.5,0-9.9,4.5-9.9,9.9v89.3c0,5.5,4.5,9.9,9.9,9.9h43.1c5.5,0,9.9-4.5,9.9-9.9
		V59.3c0-5.5-4.5-9.9-9.9-9.9H73.8z"/>
	<path id="XMLID_37_" class="st2" d="M129.4,65.1v-5.8c0-6.9-5.6-12.5-12.5-12.5H73.8c-6.9,0-12.5,5.6-12.5,12.5v5.8H129.4z"/>
	<path id="XMLID_36_" class="st2" d="M61.3,142.4v6.3c0,6.9,5.6,12.5,12.5,12.5h43.1c6.9,0,12.5-5.6,12.5-12.5v-6.3H61.3z"/>
	<path id="XMLID_33_" class="st3" d="M116.9,163.8H73.8c-8.3,0-15.1-6.8-15.1-15.1V59.3c0-8.3,6.8-15.1,15.1-15.1h43.1
		c8.3,0,15.1,6.8,15.1,15.1v89.3C132,157,125.3,163.8,116.9,163.8z M73.8,49.4c-5.5,0-9.9,4.5-9.9,9.9v89.3c0,5.5,4.5,9.9,9.9,9.9
		h43.1c5.5,0,9.9-4.5,9.9-9.9V59.3c0-5.5-4.5-9.9-9.9-9.9H73.8z"/>
	<path id="XMLID_30_" class="st3" d="M132,67.7H58.7v-8.4c0-8.3,6.8-15.1,15.1-15.1h43.1c8.3,0,15.1,6.8,15.1,15.1V67.7z M63.9,62.5
		h62.9v-3.2c0-5.5-4.5-9.9-9.9-9.9H73.8c-5.5,0-9.9,4.5-9.9,9.9V62.5z"/>
	<path id="XMLID_27_" class="st3" d="M116.9,163.8H73.8c-8.3,0-15.1-6.8-15.1-15.1v-8.9H132v8.9C132,157,125.3,163.8,116.9,163.8z
		 M63.9,145v3.7c0,5.5,4.5,9.9,9.9,9.9h43.1c5.5,0,9.9-4.5,9.9-9.9V145H63.9z"/>
	<circle id="XMLID_26_" class="st4" cx="95.4" cy="151.6" r="5"/>
	<rect id="XMLID_25_" x="72.6" y="74.3" class="st4" width="9.7" height="7"/>
	<rect id="XMLID_23_" x="72.6" y="86.6" class="st4" width="45.6" height="18.9"/>
	<rect id="XMLID_22_" x="72.6" y="74.3" class="st4" width="9.7" height="7"/>
	<rect id="XMLID_21_" x="72.6" y="112" class="st4" width="45.6" height="13"/>
	<circle id="XMLID_20_" class="st1" cx="136.6" cy="56.9" r="20.6"/>
	<circle id="XMLID_19_" class="st4" cx="136.6" cy="56.9" r="15.8"/>
	<polygon id="XMLID_18_" class="st1" points="134.7,63.7 134.7,63.7 132.9,65.4 125.8,58.3 129.8,54.4 133,57.5 143.4,47.1 
		147.4,51 	"/>
</g>
</svg>
