<?xml version="1.0" encoding="utf-8"?>
<!-- Generator: Adobe Illustrator 19.0.0, SVG Export Plug-In . SVG Version: 6.00 Build 0)  -->
<svg version="1.1" id="Calque_1" xmlns="http://www.w3.org/2000/svg" xmlns:xlink="http://www.w3.org/1999/xlink" x="0px" y="0px"
	 viewBox="-94 186 422 422" style="enable-background:new -94 186 422 422;" xml:space="preserve">
<style type="text/css">
	.st0{fill:#0023FF;}
	.st1{fill:#6978A8;}
	.st2{fill:#D4E1F4;}
</style>
<g>
	<path class="st0" d="M165.7,344.5c-3.9,0-7-3.1-7-7v-76.3c0-33.8-27.4-61.2-61.2-61.2s-61.2,27.4-61.2,61.2v76.3c0,3.9-3.1,7-7,7
		s-7-3.1-7-7v-76.3c0-41.5,33.7-75.2,75.2-75.2s75.2,33.7,75.2,75.2v76.3C172.7,341.4,169.6,344.5,165.7,344.5z"/>
	<path class="st1" d="M225.8,308.8c-2.1-13.4-13.7-23.3-27.3-23.3H-3.4c-13.6-0.1-25.2,9.8-27.3,23.3l-38.5,217.4
		c-0.1,0.4-0.1,0.8-0.1,1.2c0,26.6,21.6,48.2,48.2,48.2h216.2c3.9,0,7-3.1,7-7c0-3.9-3.1-7-7-7H-21.1c-18.7,0-33.9-15-34.3-33.7
		l38.4-216.8c0,0,0-0.1,0-0.1c1-6.6,6.7-11.5,13.5-11.5h201.9c6.7,0,12.4,4.9,13.5,11.5c0,0,0,0.1,0,0.1l20.8,117.4
		c0.7,3.8,4.3,6.3,8.1,5.6c3.8-0.7,6.3-4.3,5.7-8.1L225.8,308.8z"/>
	<path class="st0" d="M226.4,608c-1.9,0-3.8-0.8-5.1-2.2l-49.6-52.9c-7.6-8-13.6-17.4-17.5-27.7c-3.7-10-5.3-20.6-4.6-31.2
		c1.3-19.3,9.5-37.6,23.2-51.3c14.2-14.2,33.5-22.2,53.6-22.2s39.4,8,53.6,22.2c13.7,13.7,21.9,32,23.2,51.3
		c0.7,10.6-0.9,21.3-4.6,31.2c-3.9,10.3-9.8,19.8-17.5,27.7l-49.6,52.9C230.2,607.2,228.3,608,226.4,608z M226.4,434.4
		c-16.4-0.1-32.1,6.5-43.7,18.1c-11.3,11.4-18.1,26.4-19.1,42.4c-0.5,8.7,0.7,17.4,3.8,25.5c3.2,8.6,8.2,16.4,14.5,23l44.5,47.4
		l44.5-47.4c6.3-6.6,11.3-14.4,14.5-23c3-8.1,4.3-16.8,3.8-25.5c-1-16-7.8-31-19.1-42.4C258.5,440.9,242.8,434.3,226.4,434.4z
		 M226.4,531.1c-20.2,0-36.7-16.8-36.7-37.5s16.5-37.5,36.7-37.5s36.7,16.8,36.7,37.5S246.6,531.1,226.4,531.1z M226.4,470.1
		c-12.5,0-22.7,10.5-22.7,23.5c0,13,10.2,23.5,22.7,23.5c12.5,0,22.7-10.6,22.7-23.5C249.1,480.6,238.9,470.1,226.4,470.1z"/>
	<g>
		<path class="st2" d="M156.9,531.7H8.9c-18.7,0-33.9-15-34.3-33.7L9.8,299.5H-3.4c-6.7,0-12.5,4.9-13.5,11.5c0,0,0,0.1,0,0.1
			L-55.3,528c0.3,18.7,15.6,33.6,34.3,33.7h200.9l-8.2-8.7C165.7,546.6,160.7,539.5,156.9,531.7z"/>
		<path class="st2" d="M202.8,412.7c-5.1,5.1-9.5,10.9-13,17.1c11.2-6.2,23.8-9.4,36.6-9.4c1.7,0,3.3,0.1,5,0.2l-4.3-24.3
			C218,400.1,209.7,405.7,202.8,412.7z"/>
	</g>
</g>
</svg>
