<?xml version="1.0" encoding="utf-8"?>
<!-- Generator: Adobe Illustrator 19.0.0, SVG Export Plug-In . SVG Version: 6.00 Build 0)  -->
<svg version="1.1" id="Calque_1" xmlns="http://www.w3.org/2000/svg" xmlns:xlink="http://www.w3.org/1999/xlink" x="0px" y="0px"
	 viewBox="-94 186 422 422" style="enable-background:new -94 186 422 422;" xml:space="preserve">
<style type="text/css">
	.st0{fill:#D4E1F4;}
	.st1{fill:#0023FF;}
	.st2{fill:#6978A8;}
</style>
<g>
	<path class="st0" d="M147.2,544.8c-98.2,0-178-79.8-178-178c0-39.8,13.3-78.5,38-109.8c-43,33.7-68.2,85.3-68.2,140
		c0,98.2,79.8,178,178,178c54.7,0,106.3-25.1,140-68.2C225.7,531.5,187,544.9,147.2,544.8z"/>
	<path class="st1" d="M277.4,242.5c-2.7-2.8-7.1-2.9-10-0.2l-52.8,50.4l-27.9-27.9c-2.7-2.7-7.2-2.7-10,0c-2.7,2.7-2.7,7.2,0,10
		l32.8,32.8c2.7,2.7,7.1,2.8,9.8,0.1l57.8-55.2C280,249.8,280.1,245.3,277.4,242.5z"/>
	<path class="st1" d="M117,328.9c16.6,0,30.1,13.5,30.1,30.1c0,3.9,3.2,7,7,7c3.9,0,7-3.2,7-7c0-21.7-15.8-40.1-37.1-43.6v-13.9
		c0-3.9-3.2-7-7-7s-7,3.2-7,7v13.9c-22.7,3.7-38.8,24.2-37,47.1c1.8,22.9,21,40.6,44,40.6c16.6,0,30,13.4,30.1,29.9
		c0.1,16.6-13.2,30.1-29.7,30.3c-0.1,0-0.2,0-0.3,0s-0.2,0-0.3,0c-16.5-0.2-29.7-13.6-29.8-30.1c0-3.9-3.2-7-7-7s-7,3.2-7,7
		c0,21.7,15.7,40.1,37.1,43.6v15.6c0,3.9,3.2,7,7,7s7-3.2,7-7v-15.6c22.7-3.7,38.8-24.2,37-47.1c-1.8-23-21-40.6-44-40.6
		c-10.8,0.1-20.8-5.7-26.2-15c-5.4-9.3-5.4-20.9,0-30.2C96.2,334.6,106.2,328.9,117,328.9L117,328.9z"/>
	<path class="st2" d="M272.1,324.6c-3.6,1.5-5.3,5.6-3.8,9.2c8.4,20,12.7,41.5,12.6,63.1c0,90.4-73.5,163.9-163.9,163.9
		S-46.9,487.4-46.9,397S26.6,233.1,117,233.1c18.4,0,36.6,3,54,9.1c2.4,0.8,5,0.3,6.9-1.3c1.9-1.6,2.8-4.2,2.3-6.7
		c-0.5-2.5-2.2-4.5-4.6-5.3c-18.8-6.6-38.6-9.9-58.6-9.9c-98.2,0-178,79.8-178,178s79.8,178,178,178s178-79.8,178-178
		c0-23.5-4.6-46.9-13.7-68.6C279.8,324.8,275.7,323.1,272.1,324.6z"/>
</g>
</svg>
