<?xml version="1.0" encoding="utf-8"?>
<!-- Generator: Adobe Illustrator 19.0.0, SVG Export Plug-In . SVG Version: 6.00 Build 0)  -->
<svg version="1.1" id="Calque_1" xmlns="http://www.w3.org/2000/svg" xmlns:xlink="http://www.w3.org/1999/xlink" x="0px" y="0px"
	 viewBox="-94 186 422 422" style="enable-background:new -94 186 422 422;" xml:space="preserve">
<style type="text/css">
	.st0{fill:#D4E1F4;}
	.st1{fill:#0023FF;}
	.st2{fill:#6978A8;}
</style>
<g>
	<path class="st0" d="M58.7,449.3c-16.1-17.1-27.9-35.8-35.1-55.6c-7.4-19.8-10.5-40.9-9.1-62c2.5-38.7,19-75.2,46.3-102.7
		c8-8,16.8-15.1,26.4-21.2c-29,5.8-55.6,20.2-76.4,41.2c-27.3,27.5-43.8,64-46.3,102.7c-1.3,21.1,1.8,42.2,9.1,62
		c7.2,19.8,19,38.5,35.1,55.6l108.4,115.5l34.4-36.6L58.7,449.3z"/>
	<path class="st1" d="M117.1,468.2c-63.9,0-115.9-53.3-115.9-118.8s52-118.8,115.9-118.8c63.9,0,115.9,53.3,115.9,118.8
		C233,414.9,181,468.2,117.1,468.2z M117.1,244.6c-56.2,0-101.9,47-101.9,104.8s45.7,104.8,101.9,104.8c56.2,0,101.9-47,101.9-104.8
		S173.3,244.6,117.1,244.6z"/>
	<g>
		<path class="st2" d="M-1.5,478.9L112,599.8c1.3,1.4,3.2,2.2,5.1,2.2s3.8-0.8,5.1-2.2l113.5-120.9c17.4-18.5,30.2-38.8,38-60.4
			c8-21.6,11.4-44.7,9.9-67.7c-2.8-42.1-20.7-81.7-50.4-111.6c-30.8-30.9-72.6-48.2-116.2-48.2c-43.6,0-85.4,17.3-116.2,48.2
			c-29.7,29.9-47.6,69.5-50.4,111.6c-1.5,23,1.9,46.1,9.9,67.7C-31.7,440.1-18.9,460.4-1.5,478.9z M-35.5,351.8
			c2.5-38.7,19-75.2,46.3-102.7C39,220.9,77.2,205,117.1,205c39.9,0,78.1,15.9,106.3,44.1c27.3,27.5,43.8,64,46.3,102.7
			c1.3,21.1-1.8,42.2-9.1,62c-7.2,19.8-19,38.5-35.1,55.6L117.1,584.8L8.7,469.3c-16.1-17.1-27.9-35.8-35.1-55.6
			C-33.7,394-36.8,372.8-35.5,351.8z"/>
		<path class="st2" d="M98.3,384.8c2.7,2.7,7,2.7,9.8,0.1l63.8-60.9c2.8-2.7,2.9-7.1,0.2-9.9c-2.7-2.8-7.1-2.9-9.9-0.2L103.4,370
			l-31.3-31.3c-2.7-2.7-7.2-2.7-9.9,0c-2.7,2.7-2.7,7.2,0,9.9L98.3,384.8z"/>
	</g>
</g>
</svg>
