<?xml version="1.0" encoding="utf-8"?>
<!-- Generator: Adobe Illustrator 19.0.0, SVG Export Plug-In . SVG Version: 6.00 Build 0)  -->
<svg version="1.1" id="Calque_1" xmlns="http://www.w3.org/2000/svg" xmlns:xlink="http://www.w3.org/1999/xlink" x="0px" y="0px"
	 viewBox="-94 186 422 422" style="enable-background:new -94 186 422 422;" xml:space="preserve">
<style type="text/css">
	.st0{fill:#0023FF;}
	.st1{fill:#6978A8;}
	.st2{fill:#D4E1F4;}
</style>
<g>
	<path class="st0" d="M92.3,445.6c-2.3,0-4.5-1-6-2.8l-41.7-48.8c-2.8-3.3-2.4-8.3,0.9-11.1c3.3-2.8,8.3-2.4,11.1,0.9l36.7,43
		l91.2-74.2c3.4-2.8,8.4-2.2,11.1,1.1c2.8,3.4,2.2,8.4-1.1,11.1l-97.1,79C95.9,444.9,94.1,445.6,92.3,445.6z"/>
	<path class="st1" d="M89.7,598l21.4,9.3c2,0.9,4.3,0.9,6.3,0l24.1-10.4c84.7-35.6,139.8-118.5,139.8-210.3V278.4
		c0-2.9-1.6-5.6-4.2-7l-158.6-84.5c-2.4-1.3-5.2-1.2-7.5,0l-154.2,84.5c-2.5,1.4-4.1,4-4.1,6.9v110.4
		C-47.2,479.6,6.6,561.7,89.7,598z M-31.5,283.1l146.4-80.2l150.7,80.3v103.5c0,85.5-51.3,162.7-130.2,195.8l-0.1,0l-21,9.1l-18.3-8
		C18.6,549.7-31.4,473.3-31.5,388.8L-31.5,283.1z"/>
	<path class="st2" d="M169.2,537.3L169.2,537.3l-21.1,9.1l-18.3-8C52.5,504.6,2.4,428.2,2.3,343.7v-79.1l-33.8,18.5v105.7
		c0.1,84.5,50.1,160.9,127.5,194.7l18.2,8l21-9.1l0.1,0c43.7-18.4,80-50.9,103.2-92.2C218.8,510.3,195.2,526.3,169.2,537.3z"/>
</g>
</svg>
