<?xml version="1.0" encoding="utf-8"?>
<!-- Generator: Adobe Illustrator 19.0.0, SVG Export Plug-In . SVG Version: 6.00 Build 0)  -->
<svg version="1.1" id="Capa_1" xmlns="http://www.w3.org/2000/svg" xmlns:xlink="http://www.w3.org/1999/xlink" x="0px" y="0px"
	 viewBox="-49 141 512 512" style="enable-background:new -49 141 512 512;" xml:space="preserve">
<style type="text/css">
	.st0{fill:#FFD700;}
	.st1{fill:none;}
	.st2{opacity:0.3;}
	.st3{fill:#FCFCFC;}
</style>
<g>
	<path class="st0" d="M428.7,525V269L207,141L-14.7,269v256L207,653L428.7,525z M75.8,321.3L207,245.6l131.2,75.7v151.4L207,548.4
		L75.8,472.7V321.3z M207,469.6l-62.9-36.3v-72.6l62.9-36.3l62.9,36.3v72.6L207,469.6z"/>
	<rect x="-49" y="141" class="st1" width="512" height="512"/>
	<g class="st2">
		<polygon class="st3" points="144.1,360.7 144.1,427.2 263.5,356.9 207,324.4 		"/>
		<polygon class="st3" points="75.8,467.3 75.8,321.3 207,245.6 331.1,317.2 420.8,264.4 207,141 -14.7,269 -14.7,520.6 		"/>
	</g>
</g>
</svg>
