<?xml version="1.0" encoding="utf-8"?>
<!-- Generator: Adobe Illustrator 19.0.0, SVG Export Plug-In . SVG Version: 6.00 Build 0)  -->
<svg version="1.1" id="Capa_1" xmlns="http://www.w3.org/2000/svg" xmlns:xlink="http://www.w3.org/1999/xlink" x="0px" y="0px"
	 viewBox="0 0 250 250" style="enable-background:new 0 0 250 250;" xml:space="preserve">
<style type="text/css">
	.st0{fill:#FFFFFF;stroke:#CECECE;stroke-width:4;stroke-miterlimit:10;}
	.st1{fill:none;stroke:#CECECE;stroke-width:4;stroke-miterlimit:10;}
</style>
<g>
	<path id="XMLID_4_" class="st0" d="M228.5,217.7h-207c-0.6,0-1.2-0.6-1.2-1.4V88.9c0-0.7,0.5-1.4,1.2-1.4h207
		c0.6,0,1.2,0.6,1.2,1.4v127.5C229.7,217.1,229.1,217.7,228.5,217.7z"/>
	<path id="XMLID_1_" class="st0" d="M228.5,77.1h-207c-0.6,0-1.2-0.5-1.2-1.2V33.5c0-0.6,0.5-1.2,1.2-1.2h207c0.6,0,1.2,0.5,1.2,1.2
		v42.4C229.7,76.6,229.1,77.1,228.5,77.1z"/>
	<line class="st1" x1="45.6" y1="114.3" x2="143.8" y2="114.3"/>
	<line class="st1" x1="45.6" y1="140.3" x2="121" y2="140.3"/>
	<line class="st1" x1="45.6" y1="165" x2="180.7" y2="165"/>
	<line class="st1" x1="45.6" y1="189.7" x2="89.3" y2="189.7"/>
</g>
</svg>
