<?xml version="1.0" encoding="utf-8"?>
<!-- Generator: Adobe Illustrator 19.0.0, SVG Export Plug-In . SVG Version: 6.00 Build 0)  -->
<svg version="1.1" id="Capa_1" xmlns="http://www.w3.org/2000/svg" xmlns:xlink="http://www.w3.org/1999/xlink" x="0px" y="0px"
	 viewBox="262 0 250 250" style="enable-background:new 262 0 250 250;" xml:space="preserve">
<style type="text/css">
	.st0{fill:#FFFFFF;stroke:#CECECE;stroke-width:4;stroke-miterlimit:10;}
	.st1{fill:#FFFFFF;stroke:#CECECE;stroke-width:4;stroke-linecap:round;stroke-linejoin:round;stroke-miterlimit:10;}
	.st2{fill:#FFFFFF;stroke:#E5E5E5;stroke-width:4;stroke-linecap:round;stroke-linejoin:round;stroke-miterlimit:10;}
	.st3{fill:#E5E5E5;}
</style>
<g>
	<path id="XMLID_1_" class="st0" d="M476.2,62.3H297.8c-0.6,0-1.2-0.5-1.2-1.2V27.8c0-0.6,0.5-1.2,1.2-1.2h178.4
		c0.6,0,1.2,0.5,1.2,1.2v33.3C477.4,61.8,476.9,62.3,476.2,62.3z"/>
	<rect x="296.6" y="75.8" class="st1" width="180.7" height="147.5"/>
	<g>
		<line class="st2" x1="317.2" y1="99.7" x2="331.8" y2="99.7"/>
		<line class="st2" x1="342.2" y1="99.7" x2="356.8" y2="99.7"/>
		<line class="st2" x1="367.2" y1="99.7" x2="381.8" y2="99.7"/>
		<line class="st2" x1="392.2" y1="99.7" x2="406.8" y2="99.7"/>
		<line class="st2" x1="417.2" y1="99.7" x2="431.8" y2="99.7"/>
		<line class="st2" x1="442.2" y1="99.7" x2="456.8" y2="99.7"/>
	</g>
	<g>
		<line class="st2" x1="317.2" y1="125.1" x2="331.8" y2="125.1"/>
		<line class="st2" x1="342.2" y1="125.1" x2="356.8" y2="125.1"/>
		<line class="st2" x1="367.2" y1="125.1" x2="381.8" y2="125.1"/>
		<line class="st2" x1="392.2" y1="125.1" x2="406.8" y2="125.1"/>
		<line class="st2" x1="417.2" y1="125.1" x2="431.8" y2="125.1"/>
		<line class="st2" x1="442.2" y1="125.1" x2="456.8" y2="125.1"/>
	</g>
	<line class="st2" x1="317.2" y1="150.5" x2="331.8" y2="150.5"/>
	<line class="st2" x1="342.2" y1="150.5" x2="356.8" y2="150.5"/>
	<line class="st2" x1="392.2" y1="150.5" x2="406.8" y2="150.5"/>
	<line class="st2" x1="417.2" y1="150.5" x2="431.8" y2="150.5"/>
	<line class="st2" x1="442.2" y1="150.5" x2="456.8" y2="150.5"/>
	<g>
		<line class="st2" x1="317.2" y1="175.9" x2="331.8" y2="175.9"/>
		<line class="st2" x1="342.2" y1="175.9" x2="356.8" y2="175.9"/>
		<line class="st2" x1="367.2" y1="175.9" x2="381.8" y2="175.9"/>
		<line class="st2" x1="392.2" y1="175.9" x2="406.8" y2="175.9"/>
		<line class="st2" x1="417.2" y1="175.9" x2="431.8" y2="175.9"/>
		<line class="st2" x1="442.2" y1="175.9" x2="456.8" y2="175.9"/>
	</g>
	<g>
		<line class="st2" x1="317.2" y1="201.3" x2="331.8" y2="201.3"/>
		<line class="st2" x1="342.2" y1="201.3" x2="356.8" y2="201.3"/>
		<line class="st2" x1="367.2" y1="201.3" x2="381.8" y2="201.3"/>
		<line class="st2" x1="392.2" y1="201.3" x2="406.8" y2="201.3"/>
		<line class="st2" x1="417.2" y1="201.3" x2="431.8" y2="201.3"/>
		<line class="st2" x1="442.2" y1="201.3" x2="456.8" y2="201.3"/>
	</g>
	<circle class="st3" cx="374.9" cy="150.8" r="8.5"/>
	<circle class="st2" cx="315.1" cy="44.5" r="7.7"/>
</g>
</svg>
