<?xml version="1.0" encoding="utf-8"?>
<!-- Generator: Adobe Illustrator 19.0.0, SVG Export Plug-In . SVG Version: 6.00 Build 0)  -->
<svg version="1.1" id="Capa_1" xmlns="http://www.w3.org/2000/svg" xmlns:xlink="http://www.w3.org/1999/xlink" x="0px" y="0px"
	 viewBox="262 0 250 250" style="enable-background:new 262 0 250 250;" xml:space="preserve">
<style type="text/css">
	.st0{fill:#FFFFFF;stroke:#CECECE;stroke-width:4;stroke-miterlimit:10;}
	.st1{fill:#CECECE;}
</style>
<g>
	<path id="XMLID_4_" class="st0" d="M490.5,69.3h-207c-0.6,0-1.2-0.5-1.2-1.2V42.1c0-0.6,0.5-1.2,1.2-1.2h207c0.6,0,1.2,0.5,1.2,1.2
		v26.1C491.7,68.8,491.1,69.3,490.5,69.3z"/>
	<path id="XMLID_1_" class="st0" d="M490.5,118.1h-207c-0.6,0-1.2-0.5-1.2-1.2V90.9c0-0.6,0.5-1.2,1.2-1.2h207
		c0.6,0,1.2,0.5,1.2,1.2V117C491.7,117.6,491.1,118.1,490.5,118.1z"/>
	<path id="XMLID_2_" class="st0" d="M490.5,167h-207c-0.6,0-1.2-0.5-1.2-1.2v-26.1c0-0.6,0.5-1.2,1.2-1.2h207c0.6,0,1.2,0.5,1.2,1.2
		v26.1C491.7,166.4,491.1,167,490.5,167z"/>
</g>
<rect id="XMLID_7_" x="421.5" y="182.8" class="st1" width="70.2" height="29.2"/>
</svg>
