<?xml version="1.0" encoding="utf-8"?>
<!-- Generator: Adobe Illustrator 19.0.0, SVG Export Plug-In . SVG Version: 6.00 Build 0)  -->
<svg version="1.1" id="Capa_1" xmlns="http://www.w3.org/2000/svg" xmlns:xlink="http://www.w3.org/1999/xlink" x="0px" y="0px"
	 viewBox="262 0 250 250" style="enable-background:new 262 0 250 250;" xml:space="preserve">
<style type="text/css">
	.st0{fill:#FFFFFF;stroke:#CECECE;stroke-width:4;stroke-linecap:round;stroke-linejoin:round;stroke-miterlimit:10;}
	.st1{fill:#FFFFFF;stroke:#CECECE;stroke-width:4;stroke-miterlimit:10;}
</style>
<g>
	<line class="st0" x1="296.9" y1="172.5" x2="433.1" y2="172.5"/>
	<line class="st0" x1="296.4" y1="186" x2="383.9" y2="186"/>
	<g>
		<path id="XMLID_1_" class="st1" d="M476.5,158H298.1c-0.6,0-1.2-0.5-1.2-1.2V65.2c0-0.6,0.5-1.2,1.2-1.2h178.4
			c0.6,0,1.2,0.5,1.2,1.2v91.7C477.6,157.5,477.1,158,476.5,158z"/>
		<line class="st0" x1="313.8" y1="76.7" x2="353.1" y2="76.7"/>
		<line class="st0" x1="314.1" y1="85.7" x2="340.1" y2="85.7"/>
		<g>
			<path class="st0" d="M327.4,103.5l2.3,4.7c0.3,0.5,0.7,0.9,1.3,0.9l5.2,0.8c1.4,0.2,2,1.9,1,2.9l-3.7,3.7c-0.4,0.4-0.6,1-0.5,1.5
				l0.9,5.2c0.2,1.4-1.2,2.5-2.5,1.8l-4.6-2.4c-0.5-0.3-1.1-0.3-1.6,0l-4.6,2.4c-1.3,0.7-2.7-0.4-2.5-1.8l0.9-5.2
				c0.1-0.6-0.1-1.1-0.5-1.5l-3.7-3.7c-1-1-0.5-2.7,1-2.9l5.2-0.8c0.6-0.1,1-0.4,1.3-0.9l2.3-4.7C325,102.2,326.8,102.2,327.4,103.5
				z"/>
			<path class="st0" d="M358.1,103.5l2.3,4.7c0.3,0.5,0.7,0.9,1.3,0.9l5.2,0.8c1.4,0.2,2,1.9,1,2.9l-3.7,3.7c-0.4,0.4-0.6,1-0.5,1.5
				l0.9,5.2c0.2,1.4-1.2,2.5-2.5,1.8l-4.6-2.4c-0.5-0.3-1.1-0.3-1.6,0l-4.6,2.4c-1.3,0.7-2.7-0.4-2.5-1.8l0.9-5.2
				c0.1-0.6-0.1-1.1-0.5-1.5l-3.7-3.7c-1-1-0.5-2.7,1-2.9l5.2-0.8c0.6-0.1,1-0.4,1.3-0.9l2.3-4.7
				C355.7,102.2,357.5,102.2,358.1,103.5z"/>
			<path class="st0" d="M388.8,103.5l2.3,4.7c0.3,0.5,0.7,0.9,1.3,0.9l5.2,0.8c1.4,0.2,2,1.9,1,2.9l-3.7,3.7c-0.4,0.4-0.6,1-0.5,1.5
				l0.9,5.2c0.2,1.4-1.2,2.5-2.5,1.8l-4.6-2.4c-0.5-0.3-1.1-0.3-1.6,0l-4.6,2.4c-1.3,0.7-2.7-0.4-2.5-1.8l0.9-5.2
				c0.1-0.6-0.1-1.1-0.5-1.5l-3.7-3.7c-1-1-0.5-2.7,1-2.9l5.2-0.8c0.6-0.1,1-0.4,1.3-0.9l2.3-4.7
				C386.3,102.2,388.2,102.2,388.8,103.5z"/>
			<path class="st0" d="M419.5,103.5l2.3,4.7c0.3,0.5,0.7,0.9,1.3,0.9l5.2,0.8c1.4,0.2,2,1.9,1,2.9l-3.7,3.7c-0.4,0.4-0.6,1-0.5,1.5
				l0.9,5.2c0.2,1.4-1.2,2.5-2.5,1.8l-4.6-2.4c-0.5-0.3-1.1-0.3-1.6,0l-4.6,2.4c-1.3,0.7-2.7-0.4-2.5-1.8l0.9-5.2
				c0.1-0.6-0.1-1.1-0.5-1.5l-3.7-3.7c-1-1-0.5-2.7,1-2.9l5.2-0.8c0.6-0.1,1-0.4,1.3-0.9l2.3-4.7C417,102.2,418.9,102.2,419.5,103.5
				z"/>
			<path class="st0" d="M450.2,103.5l2.3,4.7c0.3,0.5,0.7,0.9,1.3,0.9l5.2,0.8c1.4,0.2,2,1.9,1,2.9l-3.7,3.7c-0.4,0.4-0.6,1-0.5,1.5
				l0.9,5.2c0.2,1.4-1.2,2.5-2.5,1.8l-4.6-2.4c-0.5-0.3-1.1-0.3-1.6,0l-4.6,2.4c-1.3,0.7-2.7-0.4-2.5-1.8l0.9-5.2
				c0.1-0.6-0.1-1.1-0.5-1.5l-3.7-3.7c-1-1-0.5-2.7,1-2.9l5.2-0.8c0.6-0.1,1-0.4,1.3-0.9l2.3-4.7
				C447.7,102.2,449.6,102.2,450.2,103.5z"/>
		</g>
	</g>
</g>
</svg>
