<?xml version="1.0" encoding="utf-8"?>
<!-- Generator: Adobe Illustrator 19.0.0, SVG Export Plug-In . SVG Version: 6.00 Build 0)  -->
<svg version="1.1" id="Capa_1" xmlns="http://www.w3.org/2000/svg" xmlns:xlink="http://www.w3.org/1999/xlink" x="0px" y="0px"
	 viewBox="262 0 250 250" style="enable-background:new 262 0 250 250;" xml:space="preserve">
<style type="text/css">
	.st0{fill:#FFFFFF;stroke:#CECECE;stroke-width:4;stroke-miterlimit:10;}
	.st1{fill:#FFFFFF;stroke:#CECECE;stroke-width:4;stroke-linecap:round;stroke-linejoin:round;stroke-miterlimit:10;}
</style>
<path id="XMLID_4_" class="st0" d="M490.5,207h-207c-0.6,0-1.2-0.5-1.2-1.2V99.3c0-0.6,0.5-1.2,1.2-1.2h207c0.6,0,1.2,0.5,1.2,1.2
	v106.6C491.7,206.5,491.1,207,490.5,207z"/>
<g>
	<path id="XMLID_1_" class="st0" d="M490.5,87.8h-207c-0.6,0-1.2-0.5-1.2-1.2V44.2c0-0.6,0.5-1.2,1.2-1.2h207c0.6,0,1.2,0.5,1.2,1.2
		v42.4C491.7,87.3,491.1,87.8,490.5,87.8z"/>
	<polyline class="st1" points="456.9,64.1 464.4,72 473.1,64.1 	"/>
</g>
<circle class="st0" cx="329.5" cy="134.5" r="10.6"/>
<line class="st0" x1="351.9" y1="134.5" x2="450.1" y2="134.5"/>
<circle class="st0" cx="329.5" cy="169.7" r="10.6"/>
<line class="st0" x1="351.9" y1="169.7" x2="450.1" y2="169.7"/>
</svg>
