<?xml version="1.0" encoding="utf-8"?>
<!-- Generator: Adobe Illustrator 19.0.0, SVG Export Plug-In . SVG Version: 6.00 Build 0)  -->
<svg version="1.1" id="Capa_1" xmlns="http://www.w3.org/2000/svg" xmlns:xlink="http://www.w3.org/1999/xlink" x="0px" y="0px"
	 viewBox="0 0 250 250" style="enable-background:new 0 0 250 250;" xml:space="preserve">
<style type="text/css">
	.st0{fill:#FFFFFF;stroke:#CECECE;stroke-width:4;stroke-miterlimit:10;}
	.st1{fill:#EDEEEF;}
	.st2{fill:none;stroke:#CECECE;stroke-width:4;stroke-miterlimit:10;}
</style>
<g>
	<path class="st0" d="M90,64.7V36.4c0-0.7-0.6-1.3-1.3-1.3H23.3c-0.7,0-1.3,0.6-1.3,1.3V66v147.6c0,0.7,0.6,1.3,1.3,1.3H230
		c0.7,0,1.3-0.6,1.3-1.3V67.4c0-0.7-0.6-1.3-1.3-1.3H91.3C90.6,66,90,65.5,90,64.7z"/>
	<path class="st1" d="M150.3,60.5H98.8c-0.6,0-1-0.4-1-1V36c0-0.6,0.4-1,1-1h51.5c0.6,0,1,0.4,1,1v23.5
		C151.3,60.1,150.8,60.5,150.3,60.5z"/>
	<path class="st1" d="M210,60.5h-51.5c-0.6,0-1-0.4-1-1V36c0-0.6,0.4-1,1-1H210c0.6,0,1,0.4,1,1v23.5C211,60.1,210.6,60.5,210,60.5z
		"/>
	<g>
		<line class="st2" x1="54.6" y1="111" x2="152.8" y2="111"/>
		<line class="st2" x1="54.6" y1="137" x2="130" y2="137"/>
		<line class="st2" x1="54.6" y1="161.7" x2="189.7" y2="161.7"/>
	</g>
</g>
</svg>
